<?xml version="1.0" encoding="UTF-8"?>
<svg width="244px" height="187px" viewBox="0 0 244 187" version="1.1" xmlns="http://www.w3.org/2000/svg" xmlns:xlink="http://www.w3.org/1999/xlink">
    <!-- Generator: Sketch 63.1 (92452) - https://sketch.com -->
    <title>Group 12</title>
    <desc>Created with Sketch.</desc>
    <defs>
        <ellipse id="path-1" cx="154" cy="132.5" rx="135.099162" ry="72.7487189"></ellipse>
        <polygon id="path-3" points="0.0476124845 0.0209903857 90.2527862 0.0209903857 90.2527862 136.000907 0.0476124845 136.000907"></polygon>
        <polygon id="path-5" points="0.208804071 0.257118816 52.6365394 0.257118816 52.6365394 51.5760046 0.208804071 51.5760046"></polygon>
    </defs>
    <g id="Page-1" stroke="none" stroke-width="1" fill="none" fill-rule="evenodd">
        <g id="Desktop-HD-Copy-3" transform="translate(-596.000000, -4000.000000)">
            <g id="Group-17" transform="translate(163.000000, 3961.000000)">
                <g id="Group-15" transform="translate(401.000000, 0.000000)">
                    <g id="Group-12">
                        <mask id="mask-2" fill="white">
                            <use xlink:href="#path-1"></use>
                        </mask>
                        <use id="Mask" fill="#FFF9E8" transform="translate(154.000000, 132.500000) scale(-1, 1) rotate(-31.000000) translate(-154.000000, -132.500000) " xlink:href="#path-1"></use>
                        <g id="v259-binn-marketing-strategy-01" mask="url(#mask-2)">
                            <g transform="translate(68.183206, 79.734513)">
                                <path d="M92.870229,30.5661002 C91.6983571,30.3988965 90.4802272,30.4939784 89.3435115,30.8691737 L89.8088679,32.8318584 L92.870229,30.5661002" id="Fill-73" fill="#F4BFB3"></path>
                                <g id="Group-77" stroke-width="1" fill="none" transform="translate(0.000000, 29.314159)">
                                    <mask id="mask-4" fill="white">
                                        <use xlink:href="#path-3"></use>
                                    </mask>
                                    <g id="Clip-75"></g>
                                    <path d="M90.2527862,2.05453895 L89.8350697,0.0209903857 C89.4696716,0.160366546 89.1150693,0.339484504 88.7734774,0.551907207 L88.4673181,3.57984031 L90.2527862,2.05453895" id="Fill-74" fill="#E0998D" mask="url(#mask-4)"></path>
                                    <polyline id="Fill-76" fill="#6CB476" mask="url(#mask-4)" points="0.0476124845 136.017699 25.9164165 136.017699 63.6512482 106.091286 65.2160934 101.335145 16.8155115 85.0564012 0.0476124845 136.017699"></polyline>
                                </g>
                                <path d="M32.4761784,87.9750715 L32.654037,86.2407587 L32.4900559,89.1371176 C32.4441752,88.7586194 32.4356787,88.3705175 32.4761784,87.9750715 Z M77.2010986,100.721423 C71.1210538,103.675404 64.2808619,104.704411 57.5978539,103.670603 L52.3011799,102.8509 C51.4393588,102.717578 50.6763794,102.271571 50.1382722,101.623887 L49.5673122,92.4475649 L49.5455047,92.0942057 C48.9533036,82.5769523 46.1038844,73.3458323 41.2456262,65.1550174 L40.9499505,34.8118872 C40.9442862,34.2178709 40.8188222,33.6535131 40.5981983,33.139151 C40.161765,32.1208777 39.3475239,31.3054117 38.3338999,30.8594052 C37.781632,30.6167709 37.1715884,30.480907 36.5284087,30.4869169 L27.8478902,30.5712946 C25.4295232,30.5947389 23.4880891,32.5691439 23.5116628,34.9810816 L24.0505527,90.2223342 C24.0870874,93.9770932 25.3105732,97.5143569 27.4151387,100.4158 L67.5720954,113.738938 C73.0636208,111.986265 77.6128922,107.604724 79.2770595,101.610894 L79.9389313,99.2274852 L79.8865367,99.4164518 L77.2010986,100.721423 L77.2010986,100.721423 Z" id="Fill-78" fill="#F4BFB3"></path>
                                <path d="M76.4712105,97.9613651 L49.3740458,94.9778761 L49.7696367,101.838002 C50.285153,102.507718 51.0161009,102.968895 51.8417409,103.106752 L56.9160493,103.954337 C63.3184904,105.023311 69.8715166,103.959303 75.6963081,100.904841 L78.2690058,99.55548 L78.7633588,97.6330791 C78.0549309,97.9233961 77.2767726,98.0501542 76.4712105,97.9613651" id="Fill-79" fill="#E0998D"></path>
                                <path d="M41.0067699,34.1173869 L43.6622221,7.90594066 C43.9802453,4.76743103 46.7577586,2.48327794 49.8660271,2.80439527 L55.7019881,3.40722388 C56.7008965,3.51035033 57.5611368,4.163764 57.9367307,5.10419898 L58.5251705,6.57815266 C58.9123894,7.54821205 59.7997544,8.22202743 60.8304927,8.32850758 L72.0493215,9.48721292 C73.0797831,9.59369308 74.0839503,9.11523106 74.6577206,8.24438546 L75.529309,6.92134855 C76.085642,6.07705313 77.0590864,5.61312383 78.0582716,5.71625028 L83.8939557,6.31907889 C87.002501,6.64019622 89.2643684,9.44473265 88.9466219,12.5832423 L86.5388902,36.3495575 L89.2109493,34.0695966 L91.6676716,9.82202454 C91.9555255,6.98059735 89.9076111,4.44156262 87.0935625,4.15090813 L47.1676737,0.0272474349 C44.353625,-0.263407063 41.8390552,1.80443201 41.5512013,4.6458592 L38.7938931,31.8620198 C39.784498,32.3030321 40.580248,33.1098778 41.0067699,34.1173869" id="Fill-80" fill="#585887"></path>
                                <path d="M32.8411599,88.1741552 C32.8012264,88.4943411 32.8096041,88.8085806 32.8548433,89.1150442 L33.0165319,86.7699115 L32.8411599,88.1741552" id="Fill-81" fill="#585887"></path>
                                <path d="M81.0118339,87.9679538 L80.8056122,90.1159259 C80.4862744,93.4426019 77.6972798,95.8636991 74.5761627,95.5236258 L49.3740458,92.7754893 L49.5291289,95.4412735 L77.2856703,98.4672748 C78.1108348,98.5573291 78.9079286,98.4287648 79.6335953,98.134311 C81.3931493,97.4200977 82.7208052,95.7040305 82.9253593,93.5717586 L83.4656489,87.9424779 L81.0118339,87.9679538" id="Fill-82" fill="#585887"></path>
                                <path d="M88.1380249,12.1525447 C88.4572872,9.01452878 86.1846292,6.21043355 83.0612539,5.88936675 L77.1977294,5.28663298 C76.1937774,5.18352275 75.215689,5.64737906 74.6567019,6.49154166 L73.7809554,7.81437043 C73.2044478,8.68507903 72.1954899,9.16346578 71.1601123,9.05700237 L59.8877617,7.89847932 C58.852106,7.79201591 57.9605076,7.11830654 57.5714415,6.14839976 L56.9801944,4.67467796 C56.6028086,3.73439092 55.7384643,3.08108005 54.7347905,2.97796982 L48.8709878,2.37523605 C45.7478907,2.05416924 42.9571266,4.33796299 42.6375862,7.47597887 L39.9694656,33.6833015 C40.1861079,34.1918669 40.3090295,34.7504505 40.3148696,35.338095 L40.6052092,65.3560252 C45.3757888,73.4587007 48.1737835,82.590802 48.7552969,92.0059673 L48.7767109,92.3558156 L73.9948166,94.9478223 C77.1179138,95.2686097 79.9086778,92.9848159 80.2282182,89.8468001 L80.4345707,87.8206422 L79.32633,87.83154 C75.9112247,87.8647923 73.1157329,85.1101565 73.0826386,81.6787375 L73.06484,79.8439902 C73.035083,76.7923187 75.2009495,74.2349615 78.0826532,73.6822459 C75.8322434,72.7710198 74.2339852,70.5679817 74.208956,67.9784899 L74.1911574,66.1437426 C74.1769741,64.6770066 74.6711632,63.3248375 75.5068629,62.2537765 C74.6119273,62.0735432 73.8318482,61.5694487 73.4135813,60.8613693 C72.3284232,60.6115575 71.4117956,59.7511879 71.1840292,58.5434849 L69.6700362,50.5251976 L52.7491347,59.2225035 C50.7276037,60.2619887 48.0820095,59.9149348 46.4904258,58.4219322 C46.2587659,58.2478464 46.040177,58.0511266 45.8388303,57.8295374 C44.1585318,55.9791419 44.2383473,53.1241901 46.0190411,51.3713163 L70.5446703,27.2273159 C72.2135666,25.584538 75.0310286,26.4708948 75.4698752,28.7767636 L76.1186896,32.1875047 C77.3865613,32.3551636 78.5251152,33.1582497 78.7501005,34.3684676 L79.9501152,40.8124377 L85.7188066,35.915121 L88.1380249,12.1525447" id="Fill-83" fill="#FFFFFF"></path>
                                <polygon id="Fill-84" fill="#FFFFFF" points="16.4580153 115.019309 68.5481891 120.823673 65.0822778 131.327434 70.5343511 114.803419 66.4941715 113.448638 21.9098105 98.4955752"></polygon>
                                <g id="Group-88" stroke-width="1" fill="none" transform="translate(16.458015, 114.911504)">
                                    <mask id="mask-6" fill="white">
                                        <use xlink:href="#path-5"></use>
                                    </mask>
                                    <g id="Clip-86"></g>
                                    <polyline id="Fill-85" fill="#D3D3EF" mask="url(#mask-6)" points="0.208804071 0.257118816 0.208804071 0.257118816 49.1481679 16.6554916 52.6365394 6.09360317 0.208804071 0.257118816"></polyline>
                                    <polyline id="Fill-87" fill="#55935B" mask="url(#mask-6)" points="37.6096438 51.5929204 47.5659033 21.4465849 9.41101781 51.5929204 37.6096438 51.5929204"></polyline>
                                </g>
                                <path d="M88.1679389,60.5348261 L90.8803666,60.5107406 C91.7880917,60.5024444 92.6525364,60.6686349 93.4385536,60.9734513 C96.1030534,60.5840678 98.2182706,58.6957582 98.7480916,56.2831858 L89.4358493,59.2861226 L88.1679389,60.5348261" id="Fill-89" fill="#E0998D"></path>
                                <path d="M87.341564,59.9316162 L88.5408865,58.6283186 L78.2937539,62.2748146 C77.6865367,62.4739683 77.0567894,62.4935205 76.4740258,62.3748104 C75.6483753,63.4454362 75.1601288,64.7970558 75.1741415,66.2631958 L75.191726,68.0971975 C75.2164543,70.6856371 76.7954937,72.8877799 79.0188426,73.7986357 C76.171791,74.3511267 74.0319688,76.9074447 74.061368,79.9578761 L74.0789526,81.7918779 C74.1116489,85.2219025 76.8735252,87.9754189 80.2475643,87.9421801 L81.3424785,87.9312867 L83.7683247,87.9072653 L85.3218114,87.8919029 L94.6245977,77.7831065 C94.0459555,76.0820601 92.7631063,74.7187091 91.1332366,74.0503012 C90.4111702,73.7539449 89.621788,73.5927784 88.7942142,73.6008786 L85.3957215,73.6343968 L95.221374,62.9580263 C94.5550837,61.8150572 93.5401244,60.9086704 92.3270639,60.3894183 C91.5835664,60.0712752 90.765884,59.8978187 89.9072624,59.9064776 L87.341564,59.9316162" id="Fill-90" fill="#F4BFB3"></path>
                                <path d="M84.6412214,74.6045945 L88.3758107,74.5691623 C89.285228,74.5605996 90.1526768,74.7309689 90.9461525,75.0442478 C94.0762752,74.4613897 96.4289245,71.7585108 96.3966178,68.5327132 L96.3772942,66.5939867 C96.3655189,65.3960863 96.0210152,64.2799751 95.4382876,63.3185841 L84.6412214,74.6045945" id="Fill-91" fill="#E0998D"></path>
                                <path d="M88.5940991,89.0777201 C92.2899525,89.0427288 95.256868,86.1122039 95.2210532,82.5311315 L95.2017914,80.6165219 C95.1945682,79.8962834 95.0615416,79.2072456 94.8313032,78.5619469 L84.6412214,89.1150442 L88.5940991,89.0777201" id="Fill-92" fill="#E0998D"></path>
                                <path d="M76.1181976,63.3185841 C77.0422248,61.9011853 78.3915068,60.9031236 79.9389313,60.6066957 C79.5139498,60.3920977 79.1135654,60.1209745 78.7437905,59.800885 L75.8755072,61.4667311 C75.2758871,61.7907643 74.6440176,61.8413739 74.0610687,61.6810005 C74.4721119,62.5137592 75.2387183,63.1066151 76.1181976,63.3185841" id="Fill-96" fill="#FFFFFF"></path>
                                <path d="M76.1181976,63.3185841 L76.1181976,63.3185841 C75.2387183,63.1066151 74.4721119,62.5137592 74.0610687,61.6810005 C74.2712364,61.7388401 74.4879633,61.7694031 74.7071498,61.7694031 C75.0957824,61.7694031 75.4923407,61.6737705 75.8755072,61.4667311 L78.7437905,59.800885 C79.1135654,60.1209745 79.5139498,60.3920977 79.9389313,60.6066957 C78.3915068,60.9031236 77.0422248,61.9011853 76.1181976,63.3185841" id="Fill-97" fill="#F0F0F4"></path>
                                <path d="M53.3712096,59.2109436 L70.5343511,50.6280941 L69.811651,46.9026549 L52.4891317,58.5270732 C50.8062164,59.6562866 48.6065224,59.5776967 47.0229008,58.4209078 C48.6372696,59.8942625 51.3207383,60.2367492 53.3712096,59.2109436" id="Fill-98" fill="#FFFFFF"></path>
                                <path d="M50.7988822,59.800885 C49.4206179,59.800885 48.0522266,59.3367869 47.067188,58.4609846 C47.0522375,58.4477483 47.0375692,58.4342362 47.0229008,58.4209999 C47.8465871,59.0227004 48.8369854,59.3326506 49.8347178,59.3326506 C50.7551591,59.3326506 51.6815242,59.0690275 52.4891317,58.5271661 L69.811651,46.9026549 L70.5343511,50.6281239 L53.3712096,59.211042 C52.5765779,59.6086827 51.6868838,59.8006092 50.8011389,59.800885 C50.8002926,59.800885 50.7997284,59.800885 50.7988822,59.800885" id="Fill-99" fill="#F0F0F4"></path>
                                <path d="M79.6417317,35.0825053 C79.3656082,33.8336198 77.9682666,33.0048742 76.4122137,32.8318584 L78.7993675,43.3849558 L81.1145038,41.7323667 L79.6417317,35.0825053" id="Fill-100" fill="#FFFFFF"></path>
                                <path d="M78.7993675,43.3849558 L76.4122137,32.8318584 C77.9682666,33.0048742 79.3656082,33.8336198 79.6417317,35.0825053 L81.1145038,41.7323667 L78.7993675,43.3849558" id="Fill-101" fill="#F0F0F4"></path>
                                <path d="M97.5539667,52.2799997 C97.5473118,51.6303122 97.4359144,51.0069403 97.2411859,50.420354 L95.0138163,51.4724177 L88.1679389,58.6283186 L97.444016,55.4531688 C97.5316872,55.0284384 97.5768249,54.5887108 97.5721954,54.1382306 L97.5539667,52.2799997" id="Fill-102" fill="#E0998D"></path>
                                <path d="M88.1679389,58.6283186 L95.0138414,51.4724177 L97.2412191,50.420354 C97.4359482,51.0069403 97.5473461,51.6303122 97.554001,52.2799997 L97.5722297,54.1382306 C97.5725191,54.15917 97.5725191,54.1803924 97.5725191,54.2013318 C97.5725191,54.6300237 97.5276706,55.0482459 97.4440499,55.4531688 L88.1679389,58.6283186" id="Fill-103" fill="#D3918A"></path>
                                <path d="M76.4122137,63.2394501 C77.0025572,63.3673446 77.6404955,63.3462796 78.2556105,63.1317177 L88.6360248,59.2030979 L95.221374,51.5929204 L79.086155,60.0183128 C79.462739,60.311417 79.8704963,60.5596829 80.3033035,60.7561892 C78.7273843,61.0276266 77.3532563,61.941546 76.4122137,63.2394501" id="Fill-104" fill="#F4BFB3"></path>
                                <path d="M77.1481251,63.3185841 C76.8981825,63.3185841 76.6513014,63.2911996 76.4122137,63.23944 C77.3532563,61.941537 78.7273843,61.0276184 80.3033035,60.7561812 C79.8704963,60.5596752 79.462739,60.3114095 79.086155,60.0183055 L95.221374,51.5929204 L88.6360248,59.2030913 L78.2556105,63.1317077 C78.2492089,63.1338142 78.2430856,63.1359207 78.2369623,63.1380272 C78.2288906,63.1407356 78.2205406,63.1434439 78.212469,63.1461523 C78.2085723,63.1476569 78.2043973,63.1488606 78.2005007,63.1503653 C77.8534199,63.2647179 77.4999375,63.3179822 77.1523001,63.3185841 C77.1509085,63.3185841 77.1495168,63.3185841 77.1481251,63.3185841" id="Fill-105" fill="#E6B4AD"></path>
                                <path d="M143.257987,20.4364115 L145.629369,14.6415007 C146.054531,13.6030173 145.485978,12.4240547 144.411241,12.1159517 L106.493907,1.24811539 C104.938045,0.802051664 103.589612,2.41532482 104.29543,3.87860414 L110.227366,16.1778181 L79.3211592,42.4239393 L76.7242493,28.7669455 C76.2848879,26.4577121 73.4641209,25.5700621 71.7932669,27.2152369 L47.2388676,51.3944657 C45.4558065,53.1498971 45.3761757,56.0090145 47.0584454,57.8621099 C47.2597497,58.0840224 47.4788736,58.2810292 47.7108052,58.4553691 C49.2739071,59.6292946 51.4450986,59.7090488 53.1062077,58.5631072 L70.204271,46.7664845 L72.4333758,58.577379 C72.6614093,59.7865643 73.5791122,60.6481893 74.6655433,60.8983655 C75.2594329,61.0349271 75.9034398,60.991552 76.5140352,60.7159104 L95.5769739,51.4624666 L97.7203225,50.4217445 L121.237851,39.005983 L127.213779,51.3961447 C127.787343,52.5851816 129.278332,52.765398 130.14731,51.9840869 C130.3475,51.8038704 130.514836,51.5727232 130.630106,51.291205 L143.257987,20.4364115" id="Fill-106" fill="#6CB476"></path>
                            </g>
                        </g>
                    </g>
                </g>
            </g>
        </g>
    </g>
</svg>