<?xml version="1.0" encoding="UTF-8"?>
<svg width="696px" height="1015px" viewBox="0 0 696 1015" version="1.1" xmlns="http://www.w3.org/2000/svg" xmlns:xlink="http://www.w3.org/1999/xlink">
    <!-- Generator: Sketch 63.1 (92452) - https://sketch.com -->
    <title>Group 9</title>
    <desc>Created with Sketch.</desc>
    <defs>
        <ellipse id="path-1" cx="454.8529" cy="586.385206" rx="332" ry="517.5"></ellipse>
    </defs>
    <g id="Page-1" stroke="none" stroke-width="1" fill="none" fill-rule="evenodd">
        <g id="Desktop-HD-Copy-3" transform="translate(-587.000000, -1665.000000)">
            <g id="Group-9" transform="translate(480.000000, 1586.000000)">
                <mask id="mask-2" fill="white">
                    <use xlink:href="#path-1"></use>
                </mask>
                <use id="Mask" fill="#FFF9E8" transform="translate(454.852900, 586.385206) rotate(15.000000) translate(-454.852900, -586.385206) " xlink:href="#path-1"></use>
                <g id="Group-23" mask="url(#mask-2)">
                    <g transform="translate(282.000000, 268.000000)">
                        <g id="Group-9" stroke-width="1" fill-rule="evenodd" transform="translate(0.000000, 132.000000)">
                            <g id="Group-8" transform="translate(0.000000, 0.778144)">
                                <g id="Group-2-Copy-2" transform="translate(0.000000, 101.221856)">
                                    <path d="M38.845959,25.9969674 C38.7620332,26.2481636 30.5925472,52.9083134 32.5239029,67.2223268 C34.4297622,81.3596691 39.2438098,147.348699 36.497099,174.384601 C33.855561,200.405816 29.824998,267.549723 29.7840974,268 L26,267.603402 C26.0398382,267.153646 30.0730571,199.984202 32.717251,173.937972 C35.4331536,147.191311 31.8323118,82.1335827 29.9423878,68.1239231 C27.8739887,52.7863634 38.6441121,26.0579425 39,25 L38.845959,25.9969674" id="Fill-193" fill="#797E4B"></path>
                                    <path d="M74.8432522,82.3601391 C69.9693089,89.8978759 52.2942951,113.477677 35,134.567491 L35,140 C53.082282,117.638604 72.2376917,91.2945834 77.4111125,83.296491 C85.2973536,71.1020198 109.00068,55.8070561 109.230067,55.6673332 L110,55 C109.035725,55.5865233 83.293403,69.2950067 74.8432522,82.3601391" id="Fill-194" fill="#797E4B"></path>
                                    <path d="M22.2514194,224.887313 C21.160274,226.691767 -4.96362984,206.640757 7.23988659,178 C7.23988659,178 14.8811111,180.858854 21.8853888,200.047987 C24.9007335,208.307543 26.879971,217.249109 22.2514194,224.887313" id="Fill-195" fill="#B4B294"></path>
                                    <path d="M27.5362037,231.556407 C27.5362037,231.556407 21.447757,226.185379 19.6708269,222.119333 C17.8944407,218.052764 10.7138374,195.810548 9,185 C9,185 19.4592487,216.91927 21.4216497,221.215361 C23.3845945,225.510929 29.2870265,230.651389 29.8804243,231.146509 C30.474366,231.641628 28.7235433,232.545601 27.5362037,231.556407" id="Fill-196" fill="#797E4B"></path>
                                    <path d="M40.7485806,179.887318 C41.839726,181.691731 67.9636298,161.640644 55.7601134,133 C55.7601134,133 48.1188889,135.859317 41.1146112,155.048021 C38.0992665,163.307392 36.120029,172.248231 40.7485806,179.887318" id="Fill-197" fill="#B4B294"></path>
                                    <path d="M36.4634126,187.55627 C36.4634126,187.55627 42.5518067,182.18578 44.3292654,178.119224 C46.1050923,174.052667 53.2861774,151.810516 55,141 C55,141 44.5408417,172.919176 42.5779138,177.215254 C40.6155299,181.511332 34.712605,186.651778 34.1192123,187.146896 C33.5263635,187.640968 35.2766272,188.545984 36.4634126,187.55627" id="Fill-198" fill="#797E4B"></path>
                                    <path d="M48.6980198,194.59039 C44.1240082,201.982996 32.4408047,222.073874 34.173894,227 C34.173894,227 48.8445557,224.777434 55.7515721,214.177143 C62.6563851,203.577902 70.0966598,190.609958 65.6625734,178 C65.6625734,178 57.5105531,180.345048 48.6980198,194.59039" id="Fill-199" fill="#B4B294"></path>
                                    <path d="M29.0282135,237.993462 C29.0282135,237.993462 42.2947466,218.041385 46.6540677,212.468755 C51.012305,206.892465 58.6829761,192.590932 61,187 C61,187 49.9058123,205.901031 47.2717962,209.069331 C44.6372382,212.239722 30.1292876,234.002105 29.3235311,233.910073 C28.516691,233.818042 26.9609904,238.191644 29.0282135,237.993462" id="Fill-200" fill="#797E4B"></path>
                                    <path d="M32.533534,175.921333 C32.533534,175.921333 25.3358062,153.05912 22.6959891,146.502874 C20.0577976,139.943463 16.6686236,124.039384 16,118 C16,118 21.4004632,139.270486 23.0514325,143.039365 C24.70186,146.809827 32.5893429,171.754786 33.3901741,171.877672 C34.1926308,171.999504 34.4678827,176.656544 32.533534,175.921333" id="Fill-202" fill="#797E4B"></path>
                                    <path d="M41,126.62321 C41,126.62321 47.1544077,103.533346 48.4433745,96.6152935 C49.7355097,89.6956599 55.3555321,74.4656147 58,69 C58,69 51.201901,89.815818 50.5714108,93.8616693 C49.9398646,97.9075206 43.2526558,123.119124 43.8498789,123.635066 C44.4492141,124.151536 42.2113437,128.242183 41,126.62321" id="Fill-204" fill="#797E4B"></path>
                                    <path d="M30,186.970098 C30,186.970098 28.0281422,177.136642 22.010686,170.611392 C15.9937604,164.086142 8.4156923,151.803939 1,154.339633 C1,154.339633 7.11933908,172.195411 15.3251542,178.469831 C27.7394741,187.965511 30,186.970098 30,186.970098" id="Fill-205" fill="#B4B294"></path>
                                    <path d="M31,193.033101 C31,193.033101 29.746174,185.661182 27.2536222,182.420265 C24.7605497,179.180396 12.0478584,164.488484 8,161 C8,161 20.0279815,175.259721 23.0183148,179.55332 C26.0112515,183.847443 27.5712442,187.480165 28.070067,187.857285 C28.566807,188.233355 29.4472969,194.817992 30.00652,194.987407 C30.5673051,195.158396 30.4397356,193.540298 31,193.033101" id="Fill-206" fill="#797E4B"></path>
                                    <path d="M84,75.6441516 C84,75.6441516 92.7931807,71.0022151 101.737132,71.2018208 C110.678952,71.401917 125.038928,69.16751 128,75.8834823 C128,75.8834823 110.356633,82.5445262 100.161232,80.6661726 C84.7336086,77.8270633 84,75.6441516 84,75.6441516" id="Fill-207" fill="#8B925B"></path>
                                    <path d="M78.9454935,78.7239227 C78.9454935,78.7239227 85.4428379,74.4173489 89.6066667,74.1545336 C93.7694282,73.8928786 113.598175,73.887077 119,74.7497841 C119,74.7497841 99.9636771,75.0166606 94.6568366,75.6264153 C89.349996,76.2355898 85.5132757,77.5670712 84.8878742,77.4214495 C84.2651409,77.2781485 78.6231876,81.3248078 78.1162496,80.9790287 C77.6071771,80.6320893 78.9342875,79.5634232 78.9454935,78.7239227" id="Fill-208" fill="#797E4B"></path>
                                    <path d="M37.7441006,75 C37.7441006,75 37.3758951,77.2052585 35.2689417,79.9310097 C34.5181564,80.9023973 33.8055185,81.75 33.1946071,82.4454817 C33.3272937,82.7840256 33.3433267,83.159357 33.1968185,83.5157976 C33.1315809,83.676867 33.0657905,83.8384335 33,84 C37.4267584,82.7273531 36.9911039,82.0060208 37.7916466,80.9337163 C38.6817529,79.7416041 40.3132459,78.036456 40.9318974,77.7779496 C41.5511017,77.5209346 37.7441006,75 37.7441006,75" id="Fill-213" fill="#797E4B"></path>
                                    <path d="M52.5220265,72.1461674 C56.7220796,65.8671747 58.3921755,59.6623993 55.6799155,57.0978334 C52.9524635,54.523609 46.6630181,56.6459208 40.8830076,61.6937185 C34.9622189,66.8670758 31.1049962,74.0890358 36.768029,78.5522447 C41.6400705,82.3896893 48.5868187,78.0271314 52.5220265,72.1461674" id="Fill-214" fill="#7C7644"></path>
                                    <path d="M57.7237532,108.996963 C57.7237532,108.996963 65.8893591,109.147234 70.0441958,107.333787 C74.19957,105.51873 95.1086819,93.8700593 104,87 C104,87 73.8829444,103.611901 69.4324473,105.470429 C64.9814125,107.32842 57.1114671,107.133605 56.3357614,107.097647 C55.5600557,107.061153 56.1718042,108.925584 57.7237532,108.996963" id="Fill-218" fill="#797E4B"></path>
                                    <path d="M26,106.278922 C26,106.278922 28.0977094,107.002823 30.4044944,109.308547 C31.2273884,110.12804 31.9340741,110.893733 32.509653,111.544139 C32.8642374,111.494182 33.2357067,111.550384 33.5595009,111.741567 C33.7064995,111.827551 33.853498,111.914016 34,112 C33.5187783,107.989001 32.7356136,108.225818 31.822832,107.343398 C30.8097337,106.362505 29.4206965,104.654828 29.2736979,104.078877 C29.1286858,103.501966 26,106.278922 26,106.278922" id="Fill-219" fill="#797E4B"></path>
                                    <path d="M9.96339069,85.7569507 C6.71319199,88.0054543 7.6355603,94.788031 11.7167019,101.634299 C15.8995475,108.647625 22.6477131,113.979403 28.4740513,109.133139 C33.4856759,104.964506 30.3588203,97.0741228 25.0274774,91.9287197 C19.3363838,86.4371922 13.2000649,83.5199324 9.96339069,85.7569507 Z" id="Fill-220" fill="#7C7644"></path>
                                    <path d="M28.5291871,104 C28.5291871,104 27.2338372,99.4655008 24.9477411,96.8028463 C22.3094144,93.7257342 14.5619141,85.9095042 12,86.2336579 C12,86.2336579 13.8841452,85.1912503 17.2447275,87.5099156 C20.604263,89.8306688 31.3648256,97.5064845 28.5291871,104" id="Fill-221" fill="#4C4E2C"></path>
                                    <path d="M14.5537048,98 C14.5537048,98 9.47336158,92.162058 11.4613498,91.1144491 C13.4454989,90.0656605 16.0560531,96.5318139 14.5537048,98" id="Fill-222" fill="#C4BEBD"></path>
                                    <path d="M37.1967448,199 C37.1967448,199 36.6641961,201.267398 34.4647182,203.940912 C33.6824403,204.894403 32.9446277,205.721696 32.3153929,206.396826 C32.4094938,206.759838 32.3934656,207.152452 32.2259454,207.511829 C32.1504579,207.674899 32.0754875,207.837969 32,208 C36.235572,207.020023 35.892259,206.234276 36.7293429,205.180554 C37.6625957,204.008944 39.3284908,202.360069 39.9277374,202.139354 C40.527501,201.919677 37.1967448,199 37.1967448,199" id="Fill-223" fill="#797E4B"></path>
                                    <path d="M52.1172853,198.112647 C57.2139541,192.205908 59.5694282,186.162476 56.8704818,183.382894 C54.1545263,180.591624 47.1742463,182.184675 40.4820223,186.733129 C33.6268409,191.3949 28.8176793,198.270682 34.5349028,203.185511 C39.4521539,207.414338 47.3426905,203.643355 52.1172853,198.112647" id="Fill-224" fill="#7C7644"></path>
                                    <path d="M39,201.756525 C39,201.756525 43.303807,200.027938 45.6642083,197.549943 C48.3921835,194.690679 55.207231,186.421436 54.6110817,184 C54.6110817,184 55.8383874,185.695763 53.9325628,189.166067 C52.024679,192.637382 45.6745045,203.779018 39,201.756525" id="Fill-225" fill="#4C4E2C"></path>
                                    <path d="M44,186.804771 C44,186.804771 48.7366343,183.026138 49.8520388,184.240564 C50.9685009,185.452887 45.4470111,187.669456 44,186.804771" id="Fill-226" fill="#C4BEBD"></path>
                                    <path d="M24.8427443,81.8275847 C24.1089207,83.7824812 -5.63600737,69.0889067 0.951690547,39 C0.951690547,39 9.07443315,40.3753198 19.7054399,57.7443456 C24.280919,65.220885 27.9608207,73.5500808 24.8427443,81.8275847" id="Fill-227" fill="#B4B294"></path>
                                    <path d="M30.667683,88.7524032 C30.667683,88.7524032 23.8040125,84.5408323 21.3235325,80.8361902 C18.8435835,77.1289106 7.70770963,56.3991619 4,46 C4,46 20.1265721,75.7210095 22.8300882,79.6202996 C25.5325423,83.5195897 32.1742387,87.5375676 32.8380366,87.9189511 C33.5018345,88.300862 31.9958098,89.5172802 30.667683,88.7524032" id="Fill-228" fill="#797E4B"></path>
                                    <path d="M69,80.0491266 C69,80.0491266 70.4222258,82.0198399 70.7561773,85.4291536 C70.8783998,86.6424124 70.9314864,87.7358306 70.9537087,88.6484635 C71.3345738,88.8394915 71.646303,89.1288505 71.8012417,89.4986153 C71.8722295,89.6660849 71.9419828,89.8330425 72.0129706,90 C74.8234716,86.3817334 73.8784074,86.0631825 73.7222342,84.7393015 C73.5493943,83.2674121 73.6098882,80.9515166 73.9382841,80.3815052 C74.2697664,79.8114938 69,80.0491266 69,80.0491266" id="Fill-229" fill="#797E4B"></path>
                                    <path d="M80.0188514,76.0730468 C80.0188514,76.0730468 81.3755995,68.2761488 83.9095104,64.6491882 C86.4455529,61.021707 101.659676,43.2226857 110,36 C110,36 88.2483333,61.6661992 85.6153041,65.5669909 C82.9833407,69.4677826 81.7241122,76.9918907 81.6164676,77.7363364 C81.5093559,78.4802616 79.8030294,77.5629795 80.0188514,76.0730468" id="Fill-234" fill="#797E4B"></path>
                                    <path d="M114.541268,49.4105389 C111.650424,51.6668657 104.853334,56.3474828 99.0117281,60.3099649 C98.9740813,60.9058973 99.0271049,61.4669889 99.1702685,62 C105.805637,57.2944224 115.900792,50.4474404 117.970832,48.7319248 C121.11619,46.1240707 140,35 140,35 C134.390107,37.3655291 120.083821,45.0876892 114.541268,49.4105389" id="Fill-236" fill="#797E4B"></path>
                                    <path d="M33,51.9645929 C33,51.9645929 35.1433388,42.2952121 41.1553447,35.9841591 C47.1663158,29.6736269 54.829153,17.7117318 62,20.3827739 C62,20.3827739 55.6346511,37.8840876 47.4948266,43.8973167 C35.1811046,52.9981248 33,51.9645929 33,51.9645929" id="Fill-237" fill="#B4B294"></path>
                                    <path d="M30,58.9820205 C30,58.9820205 31.4975087,51.5263312 34.2016945,48.2948933 C36.9058803,45.0645207 50.6517922,30.4466185 55,27 C55,27 41.9850085,41.1949976 38.7320837,45.4836968 C35.4764152,49.7729286 33.7462411,53.4246078 33.2106719,53.7958477 C32.6789438,54.1660223 31.5929893,60.8296978 30.9992537,60.9889528 C30.4049694,61.1498056 30.5778222,59.5093196 30,58.9820205" id="Fill-238" fill="#797E4B"></path>
                                    <path d="M33.0189407,40.0730707 C33.0189407,40.0730707 34.3751519,32.2762693 36.9090553,28.6493537 C39.4456231,25.0219175 54.6597011,7.22311672 63,0 C63,0 41.2478652,25.6664017 38.6153767,29.5676656 C35.9828883,33.4678883 34.7241964,40.9913826 34.6165522,41.7363397 C34.5089079,42.4802557 32.8025864,41.5629849 33.0189407,40.0730707" id="Fill-240" fill="#797E4B"></path>
                                    <path d="M27,42.0701676 C27,42.0701676 28.7354175,43.6317396 30.0301022,46.866089 C30.4931571,48.016776 30.8643278,49.0677438 31.1571113,49.9505985 C31.5210143,50.0414422 31.8584422,50.2445353 32.0941226,50.5650988 C32.2015803,50.710762 32.3074808,50.855381 32.4149386,51 C33.5829581,46.7721128 32.7284869,46.6995422 32.2041759,45.4501801 C31.6227618,44.0608979 30.973862,41.7913714 31.0657462,41.1538991 C31.1607452,40.5153827 27,42.0701676 27,42.0701676" id="Fill-241" fill="#797E4B"></path>
                                    <path d="M30.2697815,42 C30.2697815,42 30.7637629,37.2452239 29.6952324,33.8724039 C28.4620414,29.9759232 24.400417,19.6774383 22,19.0044628 C22,19.0044628 24.0585074,18.7439561 26.2096678,22.2036117 C28.3593175,25.6653851 35.157226,36.9804814 30.2697815,42" id="Fill-243" fill="#1A1A19"></path>
                                </g>
                                <g id="Group-2-Copy-2" transform="translate(224.000000, 213.221856)">
                                    <path d="M21.9052055,17.5743845 C21.8535589,17.7191066 16.8261829,33.0788637 18.0147095,41.3256204 C19.187546,49.4705913 22.1500368,87.4889625 20.4597532,103.065202 C18.8341914,118.056849 16.3538449,156.740581 16.3286753,157 L14,156.771507 C14.0245158,156.512389 16.5064967,117.813944 18.1336929,102.807885 C19.8050176,87.398286 17.589115,49.9164674 16.4260848,41.8450586 C15.1532238,33.0086044 21.7809921,17.6095142 22,17 L21.9052055,17.5743845" id="Fill-193" fill="#797E4B"></path>
                                    <path d="M41.3122212,50.4504315 C38.582813,54.7070358 28.6848052,68.0226881 19,79.9322301 L19,83 C29.1260779,70.3723879 39.8531073,55.4957648 42.750223,50.9791949 C47.166518,44.0929053 60.4403806,35.4557493 60.5688373,35.376847 L61,35 C60.4600059,35.3312132 46.0443057,43.0724743 41.3122212,50.4504315" id="Fill-194" fill="#797E4B"></path>
                                    <path d="M12.4293825,130.937662 C11.8058708,131.935871 -3.1220742,120.843823 3.85136377,105 C3.85136377,105 8.21777776,106.581494 12.2202221,117.196759 C13.9432763,121.765875 15.0742691,126.712273 12.4293825,130.937662" id="Fill-195" fill="#8B925B"></path>
                                    <path d="M16.5921164,135.754608 C16.5921164,135.754608 13.113004,132.783401 12.0976154,130.534099 C11.0825375,128.284508 6.97933565,115.980303 6,110 C6,110 11.9767136,127.657468 13.0980855,130.034029 C14.2197683,132.410301 17.5925866,135.25396 17.931671,135.527856 C18.2710663,135.801752 17.2705962,136.301822 16.5921164,135.754608" id="Fill-196" fill="#797E4B"></path>
                                    <path d="M22.5706175,105.937665 C23.1941292,106.935851 38.1220742,95.8437603 31.1486362,80 C31.1486362,80 26.7822222,81.58175 22.7797779,92.1967776 C21.0567237,96.7657913 19.9257309,101.711787 22.5706175,105.937665" id="Fill-197" fill="#8B925B"></path>
                                    <path d="M20.4076644,109.754533 C20.4076644,109.754533 23.8867467,106.783623 24.9024373,104.534039 C25.9171956,102.284454 30.0206728,89.9802853 31,84 C31,84 25.0233381,101.657416 23.901665,104.03397 C22.7803028,106.410524 19.4072029,109.254175 19.0681213,109.52807 C18.7293506,109.801387 19.7295013,110.302034 20.4076644,109.754533" id="Fill-198" fill="#797E4B"></path>
                                    <path d="M27.0171017,115.141643 C24.5221863,119.21512 18.1495298,130.285604 19.0948513,133 C19.0948513,133 27.0970304,131.775321 30.8644939,125.934344 C34.6307555,120.093946 38.6890872,112.948344 36.2704946,106 C36.2704946,106 31.8239381,107.29217 27.0171017,115.141643" id="Fill-199" fill="#8B925B"></path>
                                    <path d="M16.5608438,139.996282 C16.5608438,139.996282 23.7971345,128.650984 26.174946,125.482233 C28.5521664,122.311402 32.7361688,114.179157 34,111 C34,111 27.9486249,121.747645 26.5118888,123.549227 C25.0748572,125.351999 17.1614296,137.726687 16.7219261,137.674355 C16.2818314,137.622024 15.4332675,140.108974 16.5608438,139.996282" id="Fill-200" fill="#797E4B"></path>
                                    <path d="M14.8903142,76.77314 C16.1484423,81.5745852 19.1763929,94.5127169 17.512562,97 C17.512562,97 10.1760768,93.5756121 8.18977946,86.6392108 C6.20438038,79.7031139 4.30251716,71.3671405 8.56075058,65 C8.56075058,65 12.4665764,67.5210554 14.8903142,76.77314" id="Fill-201" fill="#8B925B"></path>
                                    <path d="M18.1852967,103.955241 C18.1852967,103.955241 14.186559,90.9474303 12.719994,87.2171522 C11.254332,83.4850736 9.37145756,74.436201 9,71 C9,71 12.0002573,83.1021732 12.9174625,85.2465355 C13.8343667,87.391798 18.2163016,101.584619 18.6612078,101.654538 C19.1070171,101.723856 19.2599348,104.373551 18.1852967,103.955241" id="Fill-202" fill="#797E4B"></path>
                                    <path d="M33.6286906,50.4068582 C32.2828979,55.1624996 28.366841,67.7820807 25.8224736,69 C25.8224736,69 21.6449146,62.1438361 23.454599,55.1829049 C25.264565,48.2222783 27.8263846,40.1177394 34.3400101,37 C34.3400101,37 36.2225999,41.2430737 33.6286906,50.4068582" id="Fill-203" fill="#8B925B"></path>
                                    <path d="M23,75.7856194 C23,75.7856194 26.6202398,62.6482832 27.3784556,58.7121498 C28.1385351,54.7751168 31.4444306,46.1097463 33,43 C33,43 29.0011182,54.8434827 28.6302417,57.1454325 C28.2587439,59.4473824 24.3250916,73.7919155 24.6763993,74.0854688 C25.0289495,74.379322 23.7125551,76.7067592 23,75.7856194" id="Fill-204" fill="#797E4B"></path>
                                    <path d="M17,110.98369 C17,110.98369 15.9120785,105.619987 12.5921026,102.060759 C9.27241953,98.5015321 5.09141644,91.8021484 1,93.1852544 C1,93.1852544 4.37618708,102.924769 8.90353333,106.347181 C15.7528133,111.526643 17,110.98369 17,110.98369" id="Fill-205" fill="#8B925B"></path>
                                    <path d="M18,112.900851 C18,112.900851 17.2913158,108.781249 15.8824821,106.970148 C14.4733542,105.159633 7.28791995,96.9494467 5,95 C5,95 11.7984243,102.968667 13.4886127,105.368032 C15.1802726,107.767689 16.0620076,109.797739 16.3439509,110.008483 C16.624717,110.218639 17.1223852,113.89829 17.4384678,113.992963 C17.7554333,114.088515 17.6833288,113.184284 18,112.900851" id="Fill-206" fill="#797E4B"></path>
                                    <path d="M47,45.7864909 C47,45.7864909 51.9961254,43.0013291 57.0779159,43.1210925 C62.1584957,43.2411502 70.3175726,41.900506 72,45.9300894 C72,45.9300894 61.9753599,49.9267157 56.1825183,48.7997036 C47.4168231,47.096238 47,45.7864909 47,45.7864909" id="Fill-207" fill="#8B925B"></path>
                                    <path d="M43.5303988,47.6993844 C43.5303988,47.6993844 47.1752506,45.2384851 49.5110569,45.0883049 C51.8462646,44.9387878 62.9697081,44.9354726 66,45.4284481 C66,45.4284481 55.3210872,45.5809489 52.344079,45.9293802 C49.3670709,46.2774799 47.2147644,47.0383264 46.8639294,46.955114 C46.5145912,46.8732277 43.3495931,49.1856045 43.0652132,48.9880164 C42.7796359,48.7897653 43.5241125,48.179099 43.5303988,47.6993844" id="Fill-208" fill="#797E4B"></path>
                                    <path d="M29.6423026,73 C29.6423026,73 28.5980039,74.1581991 26.6036406,74.8296246 C25.8933321,75.0696719 25.248524,75.2519665 24.7084547,75.3890803 C24.628433,75.6538789 24.4844557,75.8880331 24.2786856,76.0349688 C24.1859964,76.1021506 24.0929982,76.1693325 24,76.2357286 C26.3969436,77.5066831 26.5023003,76.8714023 27.2744017,76.5944245 C28.1333219,76.2864096 29.5143915,76.0102176 29.8817498,76.139081 C30.2494171,76.269123 29.6423026,73 29.6423026,73" id="Fill-209" fill="#797E4B"></path>
                                    <path d="M36.1745282,77.484584 C40.2523353,76.2305913 43.2191265,74.0063064 42.9872969,71.7363935 C42.7526194,69.4559272 39.2871384,67.9471009 34.9786411,68.0014199 C30.564197,68.0579116 26.2910152,69.8876855 27.0990009,74.2117873 C27.7942046,77.931862 32.3541829,78.6588053 36.1745282,77.484584" id="Fill-210" fill="#2C2B2B"></path>
                                    <path d="M29,76.496705 C29,76.496705 31.5318989,77.1639785 33.4288785,76.742172 C35.6199836,76.2566786 41.4676358,74.4635211 42,73 C42,73 41.9953908,74.3179051 39.9751147,75.415626 C37.9542624,76.5136669 31.3642387,79.9550058 29,76.496705" id="Fill-211" fill="#1A1A19"></path>
                                    <path d="M36,70.1499562 C36,70.1499562 39.9897725,69.6340901 40,70.5159672 C40.0114491,71.3971049 36.3273807,70.9546875 36,70.1499562" id="Fill-212" fill="#C4BEBD"></path>
                                    <path d="M20.9650629,46 C20.9650629,46 20.7349345,47.4701723 19.4180886,49.2873398 C18.9488478,49.9349315 18.5034491,50.5 18.1216294,50.9636544 C18.2045586,51.1893504 18.2145792,51.4395714 18.1230116,51.6771984 C18.0822381,51.784578 18.041119,51.892289 18,52 C20.766724,51.1515687 20.4944399,50.6706805 20.9947792,49.9558109 C21.5510956,49.1610694 22.5707787,48.024304 22.9574358,47.8519664 C23.3444386,47.6806231 20.9650629,46 20.9650629,46" id="Fill-213" fill="#797E4B"></path>
                                    <path d="M28.4689715,44.7458407 C30.8429146,41.3447196 31.7868818,37.9837996 30.2538653,36.5946598 C28.712262,35.2002882 25.1573581,36.3498738 21.8903956,39.0840975 C18.5438628,41.8863327 16.3636935,45.7982277 19.5645382,48.2157992 C22.3183007,50.2944151 26.2447236,47.9313628 28.4689715,44.7458407" id="Fill-214" fill="#2C2B2B"></path>
                                    <path d="M22,47.9260449 C22,47.9260449 24.5539172,46.7315998 25.8748213,45.1987528 C27.4019679,43.4293446 31.158755,38.3623367 30.665994,37 C30.665994,37 31.5084154,37.9159837 30.5174994,39.9978972 C29.5265833,42.0803927 26.2048093,48.7748138 22,47.9260449" id="Fill-215" fill="#1A1A19"></path>
                                    <path d="M24,39.9144929 C24,39.9144929 27.0092204,37.4288296 27.8699434,38.122068 C28.7321379,38.814025 25.064869,40.381692 24,39.9144929" id="Fill-216" fill="#C4BEBD"></path>
                                    <path d="M37.0028628,64.302539 C36.7331249,65.4266422 55.5994665,67.2151984 62,51.284233 C62,51.284233 57.6845004,49.5671264 47.0973659,54.5738112 C42.5399901,56.7285832 38.139987,59.5408659 37.0028628,64.302539" id="Fill-217" fill="#8B925B"></path>
                                    <path d="M32.9336996,65.9983433 C32.9336996,65.9983433 37.3567362,66.0803092 39.6072727,65.0911565 C41.8581004,64.1011256 53.1838693,57.7473051 58,54 C58,54 41.6865949,63.0610369 39.2759089,64.0747794 C36.8649318,65.0882292 32.6020447,64.9819662 32.1818708,64.962353 C31.7616969,64.942447 32.0930606,65.9594095 32.9336996,65.9983433" id="Fill-218" fill="#797E4B"></path>
                                    <path d="M14,64.4243263 C14,64.4243263 15.3110683,64.8767646 16.752809,66.3178422 C17.2671178,66.8300251 17.7087963,67.308583 18.0685331,67.715087 C18.2901484,67.6838636 18.5223167,67.7189899 18.7246881,67.8384792 C18.8165622,67.8922194 18.9084363,67.9462598 19,68 C18.6992365,65.4931255 18.2097585,65.6411361 17.63927,65.0896237 C17.0060836,64.4765653 16.1379353,63.4092673 16.0460612,63.0492981 C15.9554286,62.6887285 14,64.4243263 14,64.4243263" id="Fill-219" fill="#797E4B"></path>
                                    <path d="M13.8839013,55.7308491 C10.914635,52.7738727 7.71307735,51.2030405 6.02437775,52.4075889 C4.32862191,53.6183215 4.80985755,57.2704783 6.93914884,60.9569302 C9.12150306,64.7333367 12.6422851,67.6042939 15.6821137,64.9947672 C18.2968744,62.7501189 16.6654715,58.5014507 13.8839013,55.7308491" id="Fill-220" fill="#2C2B2B"></path>
                                    <path d="M16.7230512,63 C16.7230512,63 15.9610807,60.4808338 14.6163183,59.0015813 C13.0643614,57.2920746 8.50700829,52.9497245 7,53.12981 C7,53.12981 8.1083207,52.5506946 10.0851338,53.838842 C12.0613312,55.1281494 18.3910739,59.3924914 16.7230512,63" id="Fill-221" fill="#1A1A19"></path>
                                    <path d="M8.7768524,60 C8.7768524,60 6.23668079,56.6640331 7.23067489,56.0653995 C8.22274947,55.4660917 9.52802657,59.1610365 8.7768524,60" id="Fill-222" fill="#C4BEBD"></path>
                                    <path d="M21.2479655,117 C21.2479655,117 20.9151226,118.511598 19.5404489,120.293941 C19.0515252,120.929602 18.5903923,121.481131 18.1971206,121.931218 C18.2559336,122.173226 18.245916,122.434968 18.1412159,122.674553 C18.0940362,122.783266 18.0471797,122.891979 18,123 C20.6472325,122.346682 20.4326619,121.822851 20.9558393,121.120369 C21.5391223,120.339296 22.5803068,119.240046 22.9548359,119.092902 C23.3296881,118.946451 21.2479655,117 21.2479655,117" id="Fill-223" fill="#797E4B"></path>
                                    <path d="M28.8323844,116.107148 C31.5767445,112.768557 32.8450767,109.352704 31.3917979,107.781636 C29.9293603,106.203962 26.170748,107.104382 22.5672428,109.675247 C18.8759913,112.310161 16.2864427,116.196472 19.3649477,118.974419 C22.0126983,121.364626 26.2614487,119.233201 28.8323844,116.107148" id="Fill-224" fill="#2C2B2B"></path>
                                    <path d="M22,119.85121 C22,119.85121 24.4208914,118.794851 25.7486172,117.280521 C27.2831032,115.533192 31.1165674,110.479767 30.7812334,109 C30.7812334,109 31.4715929,110.036299 30.3995666,112.157041 C29.3263819,114.2784 25.7544088,121.087178 22,119.85121" id="Fill-225" fill="#1A1A19"></path>
                                    <path d="M24,111.869847 C24,111.869847 27.1577562,109.350759 27.9013592,110.160376 C28.6456673,110.968592 24.9646741,112.446304 24,111.869847" id="Fill-226" fill="#C4BEBD"></path>
                                    <path d="M13.3768623,49.8997585 C12.9817265,51.0363263 -3.0347732,42.4935504 0.512448756,25 C0.512448756,25 4.88623324,25.7996045 10.6106215,35.8978754 C13.074341,40.2447006 15.0558265,45.0872563 13.3768623,49.8997585" id="Fill-227" fill="#8B925B"></path>
                                    <path d="M16.7132044,53.8560484 C16.7132044,53.8560484 12.9263517,51.4074606 11.557811,49.253599 C10.1895633,47.0982038 4.0456329,35.0460244 2,29 C2,29 10.8974191,46.2796567 12.3890142,48.5466858 C13.8800233,50.8137149 17.5444076,53.1497486 17.9106409,53.3714832 C18.2768742,53.5935244 17.445964,54.3007443 16.7132044,53.8560484" id="Fill-228" fill="#797E4B"></path>
                                    <path d="M38,49.0294759 C38,49.0294759 38.8533355,50.211904 39.0537064,52.2574922 C39.1270399,52.9854475 39.1588918,53.6414984 39.1722252,54.1890781 C39.4007443,54.3036949 39.5877818,54.4773103 39.680745,54.6991692 C39.7233377,54.799651 39.7651897,54.8998255 39.8077824,55 C41.4940829,52.82904 40.9270445,52.6379095 40.8333405,51.8435809 C40.7296366,50.9604473 40.7659329,49.57091 40.9629705,49.2289031 C41.1618599,48.8868963 38,49.0294759 38,49.0294759" id="Fill-229" fill="#797E4B"></path>
                                    <path d="M42.9336197,43.0958605 C42.4784259,38.6278199 40.8398538,35.1524761 38.5334127,35.0046277 C36.2166049,34.8579862 34.0383344,38.2129391 33.25329,42.7150753 C32.4503394,47.3279469 33.4402053,52.0986242 37.9057542,51.9984493 C41.7467859,51.9118524 43.35897,47.2814803 42.9336197,43.0958605" id="Fill-230" fill="#2C2B2B"></path>
                                    <path d="M41.1284339,49 C41.1284339,49 42.5863317,46.6763976 42.5320957,44.7934494 C42.4701694,42.6185082 41.6898177,36.7374156 40,36 C40,36 41.6392243,36.2084062 42.5049776,38.3143461 C43.3699214,40.4214081 46.0189889,47.2693594 41.1284339,49" id="Fill-231" fill="#1A1A19"></path>
                                    <path d="M36,42 C36,42 36.059007,37.8082859 37.4464593,38.0068373 C38.8339116,38.2030762 37.3347393,41.8572809 36,42" id="Fill-232" fill="#C4BEBD"></path>
                                    <path d="M45.3023352,40 C44.1182517,40.0417129 45.7143713,22.0138068 62.9556745,19 C62.9556745,19 63.9114437,23.3690556 56.9466659,32.3584633 C53.9488505,36.2281398 50.3157385,39.8266497 45.3023352,40" id="Fill-233" fill="#8B925B"></path>
                                    <path d="M44.0106825,45.8988839 C44.0106825,45.8988839 44.7795064,41.4435136 46.2153892,39.3709647 C47.65248,37.2981183 56.2738165,27.1272489 61,23 C61,23 48.6740555,37.6663996 47.1820056,39.8954234 C45.6905597,42.1244472 44.9769969,46.4239375 44.9159983,46.8493351 C44.8553017,47.2744352 43.8883833,46.750274 44.0106825,45.8988839" id="Fill-234" fill="#797E4B"></path>
                                    <path d="M74.070982,30.7941009 C69.9663121,33.3148371 58.8006732,39.7697849 56,38.924203 C56,38.924203 57.0517346,31.1439767 62.9320218,27.3456987 C68.8120126,23.548585 76.020011,19.4347784 83.189177,21.598944 C83.189177,21.598944 81.9797415,25.937754 74.070982,30.7941009 L122,35.4" id="Fill-235" fill="#8B925B"></path>
                                    <path d="M64.7182724,32.0058549 C63.0965792,33.2593698 59.2835774,35.8597126 56.0065792,38.0610916 C55.9854603,38.3921652 56.0152052,38.7038827 56.0955165,39 C59.8177962,36.3857902 65.4809322,32.5819113 66.642174,31.6288471 C68.4066429,30.1800393 79,24 79,24 C75.8529871,25.3141828 67.8275092,29.6042718 64.7182724,32.0058549" id="Fill-236" fill="#797E4B"></path>
                                    <path d="M18,32.9800835 C18,32.9800835 19.1825318,27.5410568 22.4995005,23.9910895 C25.8158984,20.4414151 30.0436706,13.7128491 34,15.2153103 C34,15.2153103 30.4880833,25.0597992 25.9971457,28.4422406 C19.2033681,33.5614452 18,32.9800835 18,32.9800835" id="Fill-237" fill="#8B925B"></path>
                                    <path d="M18,36.8723056 C18,36.8723056 18.7787045,32.7058909 20.1848811,30.9000874 C21.5910577,29.0948792 28.7389319,20.9260515 31,19 C31,19 24.2322044,26.9324987 22.5406835,29.3291247 C20.8477359,31.7260483 19.9480454,33.7666926 19.6695494,33.9741502 C19.3930508,34.1810125 18.8283544,37.9048311 18.5196119,37.9938265 C18.2105841,38.0837149 18.3004675,37.1669727 18,36.8723056" id="Fill-238" fill="#797E4B"></path>
                                    <path d="M20.3022129,21 C19.1184405,21.0417129 20.7145415,3.01351458 37.9556426,0 C37.9556426,0 38.9116978,4.36905556 31.9467044,13.3581711 C28.9489242,17.2278476 25.3155574,20.8266497 20.3022129,21" id="Fill-239" fill="#8B925B"></path>
                                    <path d="M18.0107331,26.8988975 C18.0107331,26.8988975 18.7792527,22.4435825 20.2151313,20.3710592 C21.6525197,18.2982386 30.2738306,8.12749527 35,4 C35,4 22.6737903,18.6665153 21.1820468,20.8958089 C19.6903033,23.1245076 18.9770446,27.4236472 18.9160462,27.849337 C18.8550478,28.2744318 17.8881323,27.7502771 18.0107331,26.8988975" id="Fill-240" fill="#797E4B"></path>
                                    <path d="M14,26.6421005 C14,26.6421005 15.156945,27.5790438 16.0200682,29.5196534 C16.3287714,30.2100656 16.5762185,30.8406463 16.7714075,31.3703591 C17.0140095,31.4248653 17.2389614,31.5467212 17.3960817,31.7390593 C17.4677202,31.8264572 17.5383205,31.9132286 17.6099591,32 C18.3886387,29.4632677 17.8189913,29.4197253 17.4694506,28.6701081 C17.0818412,27.8365387 16.6492414,26.4748228 16.7104975,26.0923395 C16.7738301,25.7092296 14,26.6421005 14,26.6421005" id="Fill-241" fill="#797E4B"></path>
                                    <path d="M17.9989546,20.2479364 C16.2876506,16.2911617 13.8000423,13.5636454 11.6816374,14.0577733 C9.55405426,14.5559418 8.57079464,18.2145658 9.17626466,22.5410705 C9.79742656,26.9737895 12.0783757,31.0613118 16.0679642,29.7518153 C19.4994544,28.6247306 19.6015997,23.9553382 17.9989546,20.2479364" id="Fill-242" fill="#2C2B2B"></path>
                                    <path d="M16.9618689,27 C16.9618689,27 17.2582577,24.3125179 16.6171394,22.4061414 C15.8772249,20.2037827 13.4402502,14.3828999 12,14.0025224 C12,14.0025224 13.2351044,13.8552795 14.5258007,15.810737 C15.8155905,17.7673916 19.8943356,24.1628808 16.9618689,27" id="Fill-243" fill="#1A1A19"></path>
                                    <path d="M11.3994062,21 C11.3994062,21 10.5137548,17.154154 11.3800998,17.0045459 C12.2464448,16.8527237 12.1596881,20.5511756 11.3994062,21" id="Fill-244" fill="#C4BEBD"></path>
                                </g>
                                <g id="iStock-539674644" transform="translate(150.771560, 82.500000) scale(-1, 1) rotate(-360.000000) translate(-150.771560, -82.500000) translate(19.771560, 0.000000)">
                                    <polyline id="Fill-4" fill="#D72333" points="157 87.4386645 98.0944638 130 95 109.988357 151.971186 79 157 87.4386645"></polyline>
                                    <path d="M173.970375,96.9180973 L157.063878,88.0871452 L152,79.470676 L152.119816,59.7365634 C152.123976,58.9926288 153.060036,58.7198809 153.432796,59.3540408 L174.891459,95.8693267 C175.264219,96.5034867 174.607728,97.2507991 173.970375,96.9180973" id="Fill-5" fill="#D72333"></path>
                                    <path d="M21.9885809,88 C3.70509158,80.0726328 -4.88619585,58.3567375 2.83682317,39.5900782 C6.57743981,30.4986044 13.5435282,23.4468046 22.4522113,19.7347637 C31.3600636,16.0210645 41.1420005,16.0923702 50,19.932098 L48.0615596,24.6415892 C40.4307681,21.3333374 32.002333,21.2736397 24.3258432,24.4716164 C16.6510151,27.6704222 10.6487462,33.7463292 7.42493625,41.579175 C0.771258322,57.748981 8.1735581,76.4600882 23.9261904,83.2896796 L21.9885809,88" id="Fill-6" fill="#DA2E44"></path>
                                    <path d="M109.238202,31 L104.329439,28.8554162 C106.042091,24.6633078 106.113451,20.0525792 104.530088,15.8739746 C102.956798,11.7198458 99.9311131,8.48904428 96.0138413,6.77827242 C87.9047697,3.23603782 78.4356509,7.37497479 74.9104421,16.0064814 L70,13.8618976 C74.6694954,2.4325574 87.2650438,-3.02300715 98.0883331,1.7008163 C103.339627,3.99563066 107.390384,8.31518192 109.492581,13.8635856 C111.586382,19.3892015 111.496552,25.4752281 109.238202,31" id="Fill-7" fill="#DA2E44"></path>
                                    <path d="M90.1214919,140.633445 L12.7514108,107.002742 C10.3651598,105.965524 9.31924621,103.073332 10.4669153,100.682643 L53.7038486,10.5832661 C54.7589368,8.38366479 57.2969871,7.41153445 59.493072,8.36614141 L126.248048,37.3823546 C128.444133,38.3369616 129.536754,40.8870305 128.740225,43.1992822 L96.1175627,137.912314 C95.2518065,140.426502 92.508577,141.670662 90.1214919,140.633445" id="Fill-8" fill="#DA2E44"></path>
                                    <path d="M92.1769985,141 C91.5936457,141 90.9994436,140.881865 90.4261054,140.63219 L72.024202,132.605721 C72.0158565,132.60237 72.0083455,132.598181 72,132.594829 L90.4261054,140.63219 C90.9994436,140.881865 91.5936457,141 92.1769985,141 C94.0238653,141 95.7672474,139.817813 96.4257101,137.900007 L99.0111567,130.367861 L96.4257101,137.900007 C95.7672474,139.817813 94.0238653,141 92.1769985,141 M108.235476,103.493434 L129,43 C128.996662,43.010054 128.993324,43.0192702 128.989985,43.0293243 L108.235476,103.493434" id="Fill-9" fill="#EBD0CB"></path>
                                    <polyline id="Fill-10" fill="#C9242D" points="99 130 108 103 99 130"></polyline>
                                    <path d="M91.9144999,141 C91.3309501,141 90.7365474,140.882534 90.1630157,140.634272 L71.7306898,132.642408 C69.3797939,131.606873 68.3370848,128.770191 69.4415717,126.397541 L111.214219,36.6325747 C111.981433,34.9838831 113.589326,34 115.281536,34 C115.790786,34 116.306714,34.0883079 116.810955,34.2749208 L126.021691,37.6864377 C128.344203,38.5470231 129.558053,41.163769 128.749932,43.5547467 L96.1646457,137.917555 C95.5059608,139.824505 93.7619901,141 91.9144999,141" id="Fill-11" fill="#D72438"></path>
                                    <path d="M158.473684,59 L157,56.8552809 C157.040887,56.8247191 158.004785,56.0786517 159.737712,55 L161,57.2921348 C159.387995,58.294382 158.482384,58.9919101 158.473684,59" id="Fill-12" fill="#65C5E5"></path>
                                    <path d="M177.41548,51.2219613 L176.971324,48.7956698 C179.054346,48.3911486 181.15657,48.1236966 183.221225,48 L183.359815,50.4647377 C181.39785,50.581748 179.398316,50.8366632 177.41548,51.2219613 Z M195.238468,51.4609966 C193.309063,51.0071639 191.322887,50.6945793 189.337546,50.5299292 L189.528733,48.0693704 C191.629288,48.2432142 193.729842,48.5741861 195.770285,49.0530924 L195.238468,51.4609966 Z M165.966789,54.9102921 L165,52.6511582 C166.92356,51.7785959 168.899718,51.0130144 170.875041,50.3728011 L171.593871,52.7288864 C169.702871,53.340683 167.809366,54.0745045 165.966789,54.9102921 Z M206.374078,55.8438669 C204.605805,54.8459365 202.780761,53.97421 200.949872,53.2504179 L201.808962,50.9461514 C203.740036,51.7092255 205.662762,52.6285919 207.525376,53.6791769 L206.374078,55.8438669 Z M216.115442,63.0274616 C215.651249,62.5911805 215.183717,62.1699435 214.712846,61.7629149 C213.637522,60.8326833 212.537987,59.9509273 211.444296,59.1418849 L212.842718,57.1368304 C213.985666,57.9826475 215.133625,58.9028496 216.254866,59.8731991 C216.749115,60.3002866 217.241693,60.7440898 217.729262,61.2012656 L216.115442,63.0274616 Z M224.162836,72.2762875 C222.9005,70.554565 221.612282,68.9297938 220.333248,67.4487782 L222.125733,65.8089628 C223.446511,67.33929 224.775637,69.0142084 226.076378,70.7885855 L224.162836,72.2762875 Z M230.900307,82.7077529 C229.828323,80.8464539 228.741311,79.0570326 227.667657,77.3888004 L229.667191,76.0256308 C230.761717,77.7281302 231.870436,79.5526546 232.963292,81.4473852 L230.900307,82.7077529 Z M236.708557,93.7694022 C235.786851,91.853777 234.842603,89.972419 233.90253,88.1788188 L236.013938,87.0070445 C236.9657,88.8257184 237.922471,90.7329858 238.8567,92.6736846 L236.708557,93.7694022 Z M241.825528,105.219693 C241.013191,103.266457 240.177478,101.32743 239.340929,99.4544297 L241.519128,98.4239035 C242.364025,100.316127 243.208087,102.274377 244.028773,104.246 L241.825528,105.219693 Z M246.405672,116.925734 C245.668474,114.923187 244.918753,112.944878 244.176546,111.045968 L246.400663,110.124095 C247.148714,112.038884 247.904279,114.033073 248.647321,116.0515 L246.405672,116.925734 Z M250.54166,128.816485 C249.888785,126.828146 249.210029,124.820584 248.526264,122.852304 L250.78294,122.01986 C251.471715,124.002348 252.155481,126.023283 252.813365,128.02583 L250.54166,128.816485 Z M254.29444,140.850155 C253.725887,138.923665 253.115591,136.907745 252.463551,134.819112 L254.746944,134.064395 C255.401489,136.165566 256.016794,138.194858 256.587851,140.133885 L254.29444,140.850155 Z M257.685717,153 C257.209001,151.185505 256.657981,149.14284 256.035162,146.910451 L258.339426,146.229284 C258.96642,148.475046 259.52078,150.530248 260,152.354772 L257.685717,153 L257.685717,153 Z" id="Fill-13" fill="#65C5E5"></path>
                                    <path d="M259.693765,162 C259.692118,161.991579 259.458116,160.804211 259,158.672749 L261.293875,158 C261.761055,160.172632 262,161.377778 262,161.377778 L259.693765,162" id="Fill-14" fill="#65C5E5"></path>
                                    <path d="M162.361025,66 L161,63.6922009 C161.043305,63.6625781 162.075563,62.9581115 163.875829,62 L165,64.4512844 C163.33407,65.3381162 162.370747,65.9925943 162.361025,66" id="Fill-15" fill="#65C5E5"></path>
                                    <path d="M182.448012,58.7255369 L182.171814,56.2894489 C184.290995,56.0345481 186.37617,55.9448762 188.495351,56.0328875 L188.399967,58.4830905 C186.40437,58.4017215 184.444439,58.4864117 182.448012,58.7255369 Z M199.989525,60.9806204 C198.140736,60.2341845 196.225593,59.6446744 194.29718,59.2295265 L194.784882,56.8291412 C196.843515,57.2725192 198.886389,57.9010531 200.858762,58.6973069 L199.989525,60.9806204 Z M170.888314,61.8175586 L170,59.5417177 C171.973202,58.7255369 173.9829,58.038052 175.97352,57.5008506 L176.578171,59.8730058 C174.682934,60.384468 172.769451,61.0387411 170.888314,61.8175586 Z M210.265273,67.1505488 C208.669459,65.8486449 207.012267,64.6762672 205.340146,63.6657972 L206.545301,61.5502034 C208.313635,62.6187941 210.062064,63.8559349 211.744138,65.2284139 L210.265273,67.1505488 Z M218.554548,76.0372052 C217.277233,74.3151716 215.969229,72.7234945 214.665373,71.3070098 L216.393895,69.6198486 C217.755811,71.0994358 219.119386,72.7575366 220.448125,74.5484847 L218.554548,76.0372052 Z M225.179995,86.5005933 C224.147361,84.6208035 223.089015,82.8182313 222.034815,81.141864 L224.03373,79.8092391 C225.113641,81.5254606 226.196871,83.370378 227.253558,85.2925129 L225.179995,86.5005933 Z M230.694014,97.7062659 C229.822288,95.7426163 228.932315,93.8345965 228.050636,92.0378363 L230.177282,90.9318822 C231.073061,92.7577028 231.974646,94.6939526 232.860472,96.687493 L230.694014,97.7062659 Z M235.424225,109.322105 C234.672766,107.31611 233.904719,105.348309 233.142477,103.472671 L235.339624,102.526133 C236.110989,104.422529 236.886502,106.412748 237.646255,108.43867 L235.424225,109.322105 Z M239.55891,121.198656 C238.898687,119.161941 238.224365,117.155116 237.556677,115.232981 L239.798614,114.406836 C240.472936,116.345577 241.152235,118.369008 241.818264,120.4215 L239.55891,121.198656 Z M243.212527,133.251231 C242.641053,131.234442 242.044697,129.200217 241.440875,127.205847 L243.715159,126.476017 C244.323128,128.484502 244.922802,130.533673 245.498423,132.565406 L243.212527,133.251231 Z M246.447285,145.437483 C245.94963,143.428997 245.422945,141.374845 244.880501,139.328996 L247.178009,138.683856 C247.723771,140.74133 248.254603,142.810427 248.754746,144.831367 L246.447285,145.437483 Z M248.675951,155 C248.451177,153.969603 248.196543,152.822964 247.59438,150.166848 L249.912624,149.604738 C250.515616,152.269157 250.773567,153.424929 251,154.463629 L248.675951,155 L248.675951,155 Z" id="Fill-16" fill="#65C5E5"></path>
                                    <path d="M250.585303,161 C250.585303,160.99424 250.389633,160.071994 250,158.427646 L252.403589,158 C252.800911,159.678906 253,160.616991 253,160.616991 L250.585303,161" id="Fill-17" fill="#65C5E5"></path>
                                    <path d="M167.246683,72 L166,70.1437455 C166.046773,70.1229371 167.153137,69.6249701 169.027659,69 L170,70.9638842 C168.280189,71.5371921 167.256577,71.9956948 167.246683,72" id="Fill-18" fill="#65C5E5"></path>
                                    <path d="M193.440872,66.9628975 C191.690046,66.6351729 189.877046,66.4688026 188.05244,66.4688026 L187.516084,66.4746548 L187.47795,64.0058522 L188.047466,64 C190.018803,64 191.974389,64.1789109 193.863656,64.5342245 L193.440872,66.9628975 Z M175.784224,68.7603663 L175,66.427837 C177.061697,65.6820964 179.124223,65.1018902 181.131206,64.7014309 L181.580519,67.1267598 C179.687107,67.5046462 177.736494,68.0530832 175.784224,68.7603663 Z M204.422496,71.5033874 C202.72058,70.369728 200.944056,69.4149794 199.141004,68.6650587 L200.026364,66.3726589 C201.968687,67.1802658 203.881166,68.2077492 205.709087,69.4258478 L204.422496,71.5033874 Z M213.218074,79.8520031 C211.885888,78.1189087 210.518056,76.5822819 209.153539,75.2822521 L210.763437,73.4630464 C212.218313,74.8491875 213.669874,76.480286 215.079156,78.3120321 L213.218074,79.8520031 Z M219.806054,90.4344964 C218.796345,88.4890499 217.760937,86.6514515 216.728016,84.9743713 L218.733342,83.6442444 C219.799422,85.3739946 220.864674,87.265099 221.90174,89.2657236 L219.806054,90.4344964 Z M225.008792,101.942477 C224.200528,99.9142635 223.371538,97.9537684 222.543378,96.1128259 L224.701237,95.0686219 C225.543491,96.9421696 226.387402,98.936942 227.20893,100.999433 L225.008792,101.942477 Z M229.296326,113.899407 C228.633134,111.850293 227.944244,109.825423 227.247893,107.879977 L229.480362,107.020536 C230.184174,108.990227 230.882183,111.039342 231.553665,113.112701 L229.296326,113.899407 Z M232.923984,126.113835 C232.356955,124.028771 231.771689,121.965444 231.183106,119.980704 L233.459511,119.255028 C234.052239,121.257325 234.643308,123.339881 235.215311,125.443337 L232.923984,126.113835 Z M236.025234,138.497141 C235.543591,136.403717 235.042052,134.315309 234.53554,132.287931 L236.839302,131.668432 C237.349959,133.710022 237.855643,135.81515 238.340602,137.922787 L236.025234,138.497141 Z M238.664737,151 C238.270967,148.942525 237.846524,146.834052 237.402186,144.73394 L239.727501,144.205568 C240.174326,146.321565 240.602085,148.445086 241,150.518446 L238.664737,151 L238.664737,151 Z" id="Fill-19" fill="#65C5E5"></path>
                                    <path d="M240.336142,164 C239.917603,161.936675 239.755618,160.799472 239,156.407212 L241.655431,156 C242.417603,160.432718 243,163.645558 243,163.645558 L240.336142,164" id="Fill-20" fill="#65C5E5"></path>
                                    <path d="M171.123596,78 L170,76.0104244 C170.04953,75.9910648 171.236414,75.5256888 173.191928,75 L174,77.0930752 C172.221509,77.5718541 171.134602,77.9955324 171.123596,78" id="Fill-21" fill="#65C5E5"></path>
                                    <path d="M179.623863,75.5845478 L179,73.1962455 C181.229873,72.5763423 183.312759,72.1851332 185.368084,72 L185.577709,74.4645337 C183.663526,74.6371013 181.716771,75.004017 179.623863,75.5845478 Z M197.310852,76.2027755 C195.477679,75.4262212 193.543452,74.886738 191.563291,74.6010799 L191.894849,72.1507872 C194.074613,72.4649273 196.203432,73.0588615 198.22201,73.9141603 L197.310852,76.2027755 Z M206.956934,83.3676827 C206.149336,82.4261001 205.320858,81.5749899 204.496557,80.8369701 C203.853485,80.2614655 203.187028,79.7161183 202.516396,79.2160073 L203.923638,77.2122124 C204.649391,77.7542087 205.370968,78.3447921 206.066655,78.9672083 C206.971132,79.7755955 207.875609,80.7054501 208.752525,81.7274526 L206.956934,83.3676827 Z M213.630687,93.9144126 C212.641859,91.9072669 211.619625,90.0500706 210.591544,88.3947618 L212.610123,87.0611324 C213.680796,88.7834578 214.743118,90.7126968 215.768693,92.7935608 L213.630687,93.9144126 Z M218.49131,105.680844 C217.757205,103.591603 216.995541,101.582782 216.228865,99.7113444 L218.437859,98.7479814 C219.221238,100.658791 219.997101,102.706984 220.746238,104.836435 L218.49131,105.680844 Z M222.269567,117.930632 C221.694143,115.812071 221.094499,113.737071 220.489009,111.764271 L222.774838,111.017037 C223.38868,113.016643 223.99584,115.117612 224.578781,117.262142 L222.269567,117.930632 Z M225.308709,130.430057 C224.846867,128.304794 224.362475,126.19461 223.868061,124.157307 L226.194813,123.556671 C226.694237,125.613242 227.182805,127.744368 227.648824,129.888898 L225.308709,130.430057 Z M227.778273,143.074405 C227.404957,140.935739 227.010763,138.803775 226.608216,136.737152 L228.959188,136.248769 C229.36591,138.332146 229.76261,140.480864 230.138431,142.636284 L227.778273,143.074405 Z M229.623974,155 C229.386789,153.227412 229.117033,151.355975 228.823057,149.437626 L231.190731,149.049768 C231.488048,150.984871 231.760309,152.873062 232,154.662404 L229.623974,155 L229.623974,155 Z" id="Fill-22" fill="#65C5E5"></path>
                                    <path d="M230.556093,165 C230.316913,161.511142 230.217825,160.347893 230,158.297721 L232.437927,158 C232.660023,160.094741 233,164.759328 233,164.759328 L230.556093,165" id="Fill-23" fill="#65C5E5"></path>
                                    <path d="M176,85 L175,82.8713435 C175.053371,82.8527052 176.327715,82.4201398 178.36985,82 L179,84.2296143 C177.163858,84.6078178 176.012172,84.996117 176,85" id="Fill-24" fill="#65C5E5"></path>
                                    <path d="M184.337188,82.7871942 L184,80.3348801 C186.421009,79.9850289 188.579012,79.9128774 190.629115,80.101646 L190.409943,82.5699006 C188.549508,82.3979114 186.572744,82.466707 184.337188,82.7871942 Z M201.258122,87.2874381 C199.696099,85.9115246 197.995828,84.8175056 196.202832,84.035584 L197.151173,81.7560981 C199.173457,82.6370183 201.086999,83.8661117 202.837847,85.4106585 L201.258122,87.2874381 Z M208.24297,97.4733927 C207.270183,95.3986159 206.245974,93.5411327 205.199849,91.9537983 L207.206117,90.5678172 C208.317994,92.2541502 209.40121,94.2165048 210.425419,96.401187 L208.24297,97.4733927 Z M212.687107,109.4925 C212.044764,107.329632 211.368702,105.273312 210.67831,103.380592 L212.946742,102.513095 C213.654836,104.454476 214.346915,106.560295 215.002745,108.771824 L212.687107,109.4925 Z M215.823798,122.036804 C215.36185,119.848766 214.874614,117.72449 214.378104,115.721865 L216.723247,115.111093 C217.228185,117.142244 217.721323,119.295884 218.190014,121.512447 L215.823798,122.036804 Z M218.143651,134.803436 C217.804777,132.62966 217.443143,130.475181 217.068021,128.400404 L219.447725,127.949876 C219.827904,130.04395 220.192067,132.218564 220.53347,134.414153 L218.143651,134.803436 Z M219.86078,147.687523 C219.621377,145.548146 219.355841,143.376887 219.070918,141.234153 L221.47001,140.900243 C221.756619,143.059756 222.024684,145.248633 222.266616,147.405629 L219.86078,147.687523 Z M220.590792,155 L220.220728,151.011529 L222.630779,150.783329 L223,154.773478 L220.590792,155 L220.590792,155 Z" id="Fill-25" fill="#65C5E5"></path>
                                    <path d="M221.25979,163 C221.205349,161.356993 221.146132,160.202068 221,158.177007 L223.73639,158 C223.886342,160.066246 224,162.876446 224,162.876446 L221.25979,163" id="Fill-26" fill="#65C5E5"></path>
                                    <path d="M180.654076,91 L180,88.7184361 C180.043031,88.702145 181.066459,88.3038284 182.669376,88 L183,90.374423 C181.576381,90.6448547 180.663399,90.9967418 180.654076,91" id="Fill-27" fill="#65C5E5"></path>
                                    <path d="M194.625671,92.0909305 C192.939953,91.2328982 191.046826,90.6829204 189,90.4585764 L189.249552,88 C191.572373,88.2553169 193.73158,88.8839825 195.66685,89.8700918 L194.625671,92.0909305 Z M202.288252,101.03372 C201.320617,98.8739896 200.27448,97.0951422 199.178763,95.7448924 L200.99091,94.1485338 C202.222146,95.6653674 203.382316,97.629215 204.439196,99.9873388 L202.288252,101.03372 Z M206.123261,113.229497 C205.615067,110.989405 205.063077,108.894132 204.483818,106.999765 L206.743837,106.248882 C207.342102,108.202684 207.910618,110.359903 208.43286,112.659429 L206.123261,113.229497 Z M208.393197,126.0079 C208.084975,123.767808 207.748657,121.605567 207.393334,119.583959 L209.727723,119.138619 C210.088004,121.192874 210.42928,123.384414 210.74246,125.657153 L208.393197,126.0079 Z M209.805399,138.963769 C209.619474,136.752139 209.411238,134.568132 209.183997,132.472022 L211.54235,132.195778 C211.771244,134.311978 211.981958,136.516075 212.16871,138.74947 L209.805399,138.963769 Z M210.628426,152 C210.534224,149.817668 210.416885,147.62278 210.282193,145.476443 L212.650461,145.314882 C212.78598,147.477123 212.903319,149.688754 213,151.886991 L210.628426,152 L210.628426,152 Z" id="Fill-28" fill="#65C5E5"></path>
                                    <path d="M211.040942,161 C211.040942,160.992763 211.036847,159.922541 211,158.057089 L212.959058,158 C212.995906,159.901635 213,160.989547 213,160.989547 L211.040942,161" id="Fill-29" fill="#65C5E5"></path>
                                </g>
                            </g>
                        </g>
                        <text id="Your-investment-not" font-family="Barlow-SemiBold, Barlow" font-size="24" font-weight="500" letter-spacing="0.289411762">
                            <tspan x="0" y="544" fill="#7C7644">Your investment not only brings </tspan>
                            <tspan x="0" y="573" fill="#7C7644">you profits, but also helps them </tspan>
                            <tspan x="0" y="602" fill="#7C7644">close the </tspan>
                            <tspan x="104.054118" y="602" font-family="Barlow-Bold, Barlow" font-weight="bold" fill="#4C4E2C">$1-4 billion</tspan>
                            <tspan x="222.919059" y="602" font-family="Barlow-Bold, Barlow" font-weight="bold" fill="#7C7644"> </tspan>
                            <tspan x="228.008471" y="602" fill="#7C7644">revenue </tspan>
                            <tspan x="0" y="631" fill="#7C7644">gap.</tspan>
                        </text>
                        <text id="Poorly-rated-establi" font-family="Barlow-SemiBold, Barlow" font-size="24" font-weight="500" letter-spacing="0.289411762">
                            <tspan x="0" y="24" fill="#7C7644">Poorly rated establishments in </tspan>
                            <tspan x="0" y="53" fill="#7C7644">white neighborhoods receive </tspan>
                            <tspan x="0" y="82" fill="#7C7644">more business than highly rated </tspan>
                            <tspan x="0" y="111" fill="#7C7644">ones in  black neighborhoods.  </tspan>
                        </text>
                    </g>
                </g>
            </g>
        </g>
    </g>
</svg>