<?xml version="1.0" encoding="UTF-8"?>
<svg width="327px" height="275px" viewBox="0 0 327 275" version="1.1" xmlns="http://www.w3.org/2000/svg" xmlns:xlink="http://www.w3.org/1999/xlink">
    <!-- Generator: Sketch 63.1 (92452) - https://sketch.com -->
    <title>Group 23</title>
    <desc>Created with Sketch.</desc>
    <g id="Page-1" stroke="none" stroke-width="1" fill="none" fill-rule="evenodd">
        <g id="Desktop-HD-Copy-3" transform="translate(-64.000000, -4.000000)">
            <g id="Group-18">
                <g id="Group-2" transform="translate(989.000000, 566.000000) rotate(7.000000) translate(-989.000000, -566.000000) translate(-117.000000, -772.000000)">
                    <g id="Group-23" transform="translate(126.133018, 884.759347)">
                        <path d="M253.931511,67.7530219 C169.059985,14.1050226 77.5487944,-14.3943613 29.2801307,7.45958648 C-19.1902238,29.4257366 -5.43490514,95.6862943 55.4273376,162.569065 C117.806296,231.083869 218.441982,283.171236 305.330417,235.826966 C380.068993,195.102631 333.438059,118.019652 253.931511,67.7530219" id="Fill-220" fill="#2C2B2B"></path>
                        <path d="M308.508081,190.041254 C308.508081,190.041254 289.001637,146.459678 254.575718,120.86861 C214.845623,91.2941435 98.1773823,16.1714881 59.5979702,19.2869662 C59.5979702,19.2869662 87.9709801,9.26827089 138.577396,31.5532205 C189.168049,53.8582376 351.209461,127.631354 308.508081,190.041254" id="Fill-221" fill="#1A1A19"></path>
                        <path d="M93.6455292,126.237103 C93.6455292,126.237103 22.5207242,73.6956244 50.3525591,64.2671446 C78.1306473,54.828047 114.678406,113.023428 93.6455292,126.237103" id="Fill-222" fill="#C4BEBD"></path>
                        <path d="M103.279974,155.911789 C108.079974,156.199789 112.207974,155.023789 115.663974,152.383789 C117.823974,150.991789 119.767974,149.239789 121.495974,147.127789 C127.111974,140.263789 131.023974,131.887789 133.231974,121.999789 C135.007974,114.031789 134.839974,107.599789 132.727974,102.703789 C132.439974,101.887789 132.139974,101.143789 131.827974,100.471789 C131.515974,99.7997893 131.311974,99.2957893 131.215974,98.9597893 C129.391974,96.5117893 127.183974,95.0477893 124.591974,94.5677893 C121.759974,94.0397893 119.455974,94.7117893 117.679974,96.5837893 C115.423974,95.7677893 113.023974,95.6717893 110.479974,96.2957893 C106.783974,97.1597893 103.423974,99.3197893 100.399974,102.775789 C94.3999745,109.735789 90.2479745,118.399789 87.9439745,128.767789 C85.1599745,141.391789 87.7759745,149.695789 95.7919745,153.679789 C97.8079745,155.023789 100.303974,155.767789 103.279974,155.911789 Z M104.431974,147.127789 C103.999974,146.935789 103.447974,146.443789 102.775974,145.651789 C102.103974,144.859789 101.623974,143.719789 101.335974,142.231789 L101.335974,142.231789 L101.191974,141.439789 L101.263974,141.007789 C101.695974,136.879789 103.279974,132.247789 106.015974,127.111789 C107.215974,124.903789 108.847974,122.239789 110.911974,119.119789 C112.975974,115.999789 114.943974,113.239789 116.815974,110.839789 C117.295974,116.407789 116.623974,122.455789 114.799974,128.983789 C112.975974,135.511789 110.431974,140.791789 107.167974,144.823789 C106.783974,145.303789 106.351974,145.711789 105.871974,146.047789 C105.391974,146.383789 104.911974,146.743789 104.431974,147.127789 Z M134.82021,153.679789 C134.91621,155.455789 136.06821,156.103789 138.27621,155.623789 C139.23621,155.383789 140.24421,154.963789 141.30021,154.363789 C142.35621,153.763789 143.26821,153.127789 144.03621,152.455789 C144.80421,151.783789 145.38021,151.063789 145.76421,150.295789 C146.14821,149.527789 146.48421,148.639789 146.77221,147.631789 C147.10821,146.623789 147.42021,145.471789 147.70821,144.175789 C147.99621,142.879789 148.38021,141.367789 148.86021,139.639789 C152.94021,124.759789 157.52421,111.295789 162.61221,99.2477893 C162.70821,98.2397893 162.20421,97.1117893 161.10021,95.8637893 C160.66821,95.3357893 160.28421,94.8197893 159.94821,94.3157893 C159.61221,93.8117893 159.46821,93.2477893 159.51621,92.6237893 C157.06821,91.8077893 155.00421,92.1677893 153.32421,93.7037893 C152.65221,94.2797893 152.10021,94.9157893 151.66821,95.6117893 C151.23621,96.3077893 150.85221,96.8717893 150.51621,97.3037893 C145.47621,106.087789 141.25221,115.951789 137.84421,126.895789 C136.40421,131.407789 135.22821,135.547789 134.31621,139.315789 C133.40421,143.083789 132.56421,146.287789 131.79621,148.927789 C131.36421,150.847789 131.65221,152.023789 132.66021,152.455789 C133.04421,152.647789 133.46421,152.779789 133.92021,152.851789 C134.37621,152.923789 134.67621,153.199789 134.82021,153.679789 Z M172.084445,108.031789 C173.548445,108.799789 175.456445,108.943789 177.808445,108.463789 C180.208445,107.455789 181.684445,106.279789 182.236445,104.935789 C182.788445,103.591789 182.728445,102.391789 182.056445,101.335789 C181.576445,100.087789 180.544445,99.3917893 178.960445,99.2477893 C178.336445,99.0557893 177.808445,98.9597893 177.376445,98.9597893 C176.944445,98.9597893 176.248445,99.0077893 175.288445,99.1037893 C173.176445,99.5357893 171.592445,100.471789 170.536445,101.911789 C169.624445,103.063789 169.288445,104.179789 169.528445,105.259789 C169.768445,106.339789 170.620445,107.263789 172.084445,108.031789 Z M159.340445,157.027789 C160.132445,157.051789 160.864445,156.931789 161.536445,156.667789 C162.208445,156.403789 162.688445,156.007789 162.976445,155.479789 C163.264445,154.951789 163.936445,154.663789 164.992445,154.615789 C165.424445,154.567789 165.880445,154.495789 166.360445,154.399789 C168.040445,154.063789 169.240445,151.735789 169.960445,147.415789 C170.248445,144.727789 171.352445,140.119789 173.272445,133.591789 C173.992445,131.047789 174.748445,128.563789 175.540445,126.139789 C176.332445,123.715789 176.992445,121.663789 177.520445,119.983789 C177.712445,118.255789 176.824445,117.007789 174.856445,116.239789 C172.936445,115.519789 170.872445,115.447789 168.664445,116.023789 C166.312445,116.599789 164.824445,117.679789 164.200445,119.263789 C162.808445,121.375789 161.368445,124.423789 159.880445,128.407789 C156.760445,136.471789 154.816445,143.119789 154.048445,148.351789 C153.232445,151.087789 153.496445,153.271789 154.840445,154.903789 C155.416445,155.575789 156.112445,156.091789 156.928445,156.451789 C157.744445,156.811789 158.548445,157.003789 159.340445,157.027789 Z M188.10868,154.255789 C190.36468,155.839789 193.41268,155.383789 197.25268,152.887789 C198.88468,151.879789 200.38468,150.667789 201.75268,149.251789 C203.12068,147.835789 204.18868,146.551789 204.95668,145.399789 C207.21268,141.943789 209.75668,137.791789 212.58868,132.943789 C214.31668,130.015789 216.21268,126.823789 218.27668,123.367789 C218.66068,122.887789 219.04468,122.359789 219.42868,121.783789 C220.77268,119.575789 220.26868,117.631789 217.91668,115.951789 C218.30068,114.991789 218.37268,114.223789 218.13268,113.647789 C217.65268,112.495789 216.50068,111.919789 214.67668,111.919789 C211.60468,111.919789 209.30068,112.759789 207.76468,114.439789 C205.26868,116.551789 202.98868,119.863789 200.92468,124.375789 C200.06068,126.295789 199.25668,128.239789 198.51268,130.207789 C197.76868,132.175789 196.96468,134.047789 196.10068,135.823789 C195.71668,132.943789 195.42868,130.051789 195.23668,127.147789 C195.04468,124.243789 194.82868,121.351789 194.58868,118.471789 C194.49268,118.231789 194.42068,118.039789 194.37268,117.895789 C193.94068,116.551789 193.07668,115.639789 191.78068,115.159789 C191.01268,114.919789 190.19668,114.703789 189.33268,114.511789 L189.33268,114.511789 L188.46868,114.511789 C186.30868,114.655789 184.82068,115.495789 184.00468,117.031789 C183.66868,117.703789 183.45268,118.435789 183.35668,119.227789 C183.26068,120.019789 183.16468,120.799789 183.06868,121.567789 C182.97268,122.335789 182.85268,123.151789 182.70868,124.015789 C182.56468,124.879789 182.44468,125.839789 182.34868,126.895789 C182.25268,127.951789 182.03668,129.535789 181.70068,131.647789 C180.21268,141.103789 179.97268,147.151789 180.98068,149.791789 C181.65268,151.039789 182.63668,152.047789 183.93268,152.815789 C185.22868,153.583789 186.62068,154.063789 188.10868,154.255789 Z M225.840916,153.643789 C227.904916,153.811789 229.968916,153.715789 232.032916,153.355789 C234.096916,152.995789 235.692916,152.539789 236.820916,151.987789 C237.948916,151.435789 238.704916,151.003789 239.088916,150.691789 C239.472916,150.379789 239.856916,149.863789 240.240916,149.143789 C239.904916,150.535789 240.720916,151.567789 242.688916,152.239789 C244.560916,152.863789 246.432916,152.887789 248.304916,152.311789 C250.464916,151.687789 251.496916,150.535789 251.400916,148.855789 C251.496916,147.271789 252.096916,142.351789 253.200916,134.095789 C253.776916,130.015789 254.016916,126.823789 253.920916,124.519789 C253.632916,122.839789 253.224916,121.591789 252.696916,120.775789 C251.880916,119.575789 250.848916,119.215789 249.600916,119.695789 C249.600916,119.647789 249.552916,119.623789 249.456916,119.623789 L249.456916,119.623789 L249.168916,119.551789 C249.168916,118.303789 248.304916,117.319789 246.576916,116.599789 C245.904916,116.311789 245.196916,116.095789 244.452916,115.951789 C243.708916,115.807789 243.012916,115.663789 242.364916,115.519789 C241.716916,115.375789 240.960916,115.351789 240.096916,115.447789 C237.552916,115.735789 234.912916,116.623789 232.176916,118.111789 C228.528916,120.127789 225.264916,122.671789 222.384916,125.743789 C219.888916,128.431789 218.160916,131.527789 217.200916,135.031789 C215.808916,140.359789 215.664916,144.751789 216.768916,148.207789 C217.344916,149.983789 218.484916,151.291789 220.188916,152.131789 C221.892916,152.971789 223.776916,153.475789 225.840916,153.643789 Z M233.904916,142.807789 C232.896916,144.103789 231.288916,144.463789 229.080916,143.887789 C226.536916,142.927789 226.392916,141.175789 228.648916,138.631789 C230.712916,136.327789 233.688916,134.383789 237.576916,132.799789 C237.192916,133.999789 236.892916,135.103789 236.676916,136.111789 C236.460916,137.119789 236.184916,137.959789 235.848916,138.631789 C235.992916,138.439789 236.136916,138.223789 236.280916,137.983789 C235.800916,138.895789 235.392916,139.783789 235.056916,140.647789 C234.720916,141.511789 234.336916,142.231789 233.904916,142.807789 Z" id="Oliva" fill="#7C7644" fill-rule="nonzero" transform="translate(170.404491, 124.614963) rotate(-7.000000) translate(-170.404491, -124.614963) "></path>
                    </g>
                </g>
            </g>
        </g>
    </g>
</svg>