<?xml version="1.0" encoding="UTF-8"?>
<svg width="168px" height="66px" viewBox="0 0 168 66" version="1.1" xmlns="http://www.w3.org/2000/svg" xmlns:xlink="http://www.w3.org/1999/xlink">
    <!-- Generator: Sketch 63.1 (92452) - https://sketch.com -->
    <title>Oliva</title>
    <desc>Created with Sketch.</desc>
    <g id="Page-1" stroke="none" stroke-width="1" fill="none" fill-rule="evenodd">
        <g id="Desktop-HD-Copy-3" transform="translate(-142.000000, -108.000000)" fill="#7C7644" fill-rule="nonzero">
            <path d="M158.496,172.472 C163.296,172.76 167.424,171.584 170.88,168.944 C173.04,167.552 174.984,165.8 176.712,163.688 C182.328,156.824 186.24,148.448 188.448,138.56 C190.224,130.592 190.056,124.16 187.944,119.264 C187.656,118.448 187.356,117.704 187.044,117.032 C186.732,116.36 186.528,115.856 186.432,115.52 C184.608,113.072 182.4,111.608 179.808,111.128 C176.976,110.6 174.672,111.272 172.896,113.144 C170.64,112.328 168.24,112.232 165.696,112.856 C162,113.72 158.64,115.88 155.616,119.336 C149.616,126.296 145.464,134.96 143.16,145.328 C140.376,157.952 142.992,166.256 151.008,170.24 C153.024,171.584 155.52,172.328 158.496,172.472 Z M159.648,163.688 C159.216,163.496 158.664,163.004 157.992,162.212 C157.32,161.42 156.84,160.28 156.552,158.792 L156.552,158.792 L156.408,158 L156.48,157.568 C156.912,153.44 158.496,148.808 161.232,143.672 C162.432,141.464 164.064,138.8 166.128,135.68 C168.192,132.56 170.16,129.8 172.032,127.4 C172.512,132.968 171.84,139.016 170.016,145.544 C168.192,152.072 165.648,157.352 162.384,161.384 C162,161.864 161.568,162.272 161.088,162.608 C160.608,162.944 160.128,163.304 159.648,163.688 Z M190.036235,170.24 C190.132235,172.016 191.284235,172.664 193.492235,172.184 C194.452235,171.944 195.460235,171.524 196.516235,170.924 C197.572235,170.324 198.484235,169.688 199.252235,169.016 C200.020235,168.344 200.596235,167.624 200.980235,166.856 C201.364235,166.088 201.700235,165.2 201.988235,164.192 C202.324235,163.184 202.636235,162.032 202.924235,160.736 C203.212235,159.44 203.596235,157.928 204.076235,156.2 C208.156235,141.32 212.740235,127.856 217.828235,115.808 C217.924235,114.8 217.420235,113.672 216.316235,112.424 C215.884235,111.896 215.500235,111.38 215.164235,110.876 C214.828235,110.372 214.684235,109.808 214.732235,109.184 C212.284235,108.368 210.220235,108.728 208.540235,110.264 C207.868235,110.84 207.316235,111.476 206.884235,112.172 C206.452235,112.868 206.068235,113.432 205.732235,113.864 C200.692235,122.648 196.468235,132.512 193.060235,143.456 C191.620235,147.968 190.444235,152.108 189.532235,155.876 C188.620235,159.644 187.780235,162.848 187.012235,165.488 C186.580235,167.408 186.868235,168.584 187.876235,169.016 C188.260235,169.208 188.680235,169.34 189.136235,169.412 C189.592235,169.484 189.892235,169.76 190.036235,170.24 Z M227.300471,124.592 C228.764471,125.36 230.672471,125.504 233.024471,125.024 C235.424471,124.016 236.900471,122.84 237.452471,121.496 C238.004471,120.152 237.944471,118.952 237.272471,117.896 C236.792471,116.648 235.760471,115.952 234.176471,115.808 C233.552471,115.616 233.024471,115.52 232.592471,115.52 C232.160471,115.52 231.464471,115.568 230.504471,115.664 C228.392471,116.096 226.808471,117.032 225.752471,118.472 C224.840471,119.624 224.504471,120.74 224.744471,121.82 C224.984471,122.9 225.836471,123.824 227.300471,124.592 Z M214.556471,173.588 C215.348471,173.612 216.080471,173.492 216.752471,173.228 C217.424471,172.964 217.904471,172.568 218.192471,172.04 C218.480471,171.512 219.152471,171.224 220.208471,171.176 C220.640471,171.128 221.096471,171.056 221.576471,170.96 C223.256471,170.624 224.456471,168.296 225.176471,163.976 C225.464471,161.288 226.568471,156.68 228.488471,150.152 C229.208471,147.608 229.964471,145.124 230.756471,142.7 C231.548471,140.276 232.208471,138.224 232.736471,136.544 C232.928471,134.816 232.040471,133.568 230.072471,132.8 C228.152471,132.08 226.088471,132.008 223.880471,132.584 C221.528471,133.16 220.040471,134.24 219.416471,135.824 C218.024471,137.936 216.584471,140.984 215.096471,144.968 C211.976471,153.032 210.032471,159.68 209.264471,164.912 C208.448471,167.648 208.712471,169.832 210.056471,171.464 C210.632471,172.136 211.328471,172.652 212.144471,173.012 C212.960471,173.372 213.764471,173.564 214.556471,173.588 Z M243.324706,170.816 C245.580706,172.4 248.628706,171.944 252.468706,169.448 C254.100706,168.44 255.600706,167.228 256.968706,165.812 C258.336706,164.396 259.404706,163.112 260.172706,161.96 C262.428706,158.504 264.972706,154.352 267.804706,149.504 C269.532706,146.576 271.428706,143.384 273.492706,139.928 C273.876706,139.448 274.260706,138.92 274.644706,138.344 C275.988706,136.136 275.484706,134.192 273.132706,132.512 C273.516706,131.552 273.588706,130.784 273.348706,130.208 C272.868706,129.056 271.716706,128.48 269.892706,128.48 C266.820706,128.48 264.516706,129.32 262.980706,131 C260.484706,133.112 258.204706,136.424 256.140706,140.936 C255.276706,142.856 254.472706,144.8 253.728706,146.768 C252.984706,148.736 252.180706,150.608 251.316706,152.384 C250.932706,149.504 250.644706,146.612 250.452706,143.708 C250.260706,140.804 250.044706,137.912 249.804706,135.032 C249.708706,134.792 249.636706,134.6 249.588706,134.456 C249.156706,133.112 248.292706,132.2 246.996706,131.72 C246.228706,131.48 245.412706,131.264 244.548706,131.072 L244.548706,131.072 L243.684706,131.072 C241.524706,131.216 240.036706,132.056 239.220706,133.592 C238.884706,134.264 238.668706,134.996 238.572706,135.788 C238.476706,136.58 238.380706,137.36 238.284706,138.128 C238.188706,138.896 238.068706,139.712 237.924706,140.576 C237.780706,141.44 237.660706,142.4 237.564706,143.456 C237.468706,144.512 237.252706,146.096 236.916706,148.208 C235.428706,157.664 235.188706,163.712 236.196706,166.352 C236.868706,167.6 237.852706,168.608 239.148706,169.376 C240.444706,170.144 241.836706,170.624 243.324706,170.816 Z M281.056941,170.204 C283.120941,170.372 285.184941,170.276 287.248941,169.916 C289.312941,169.556 290.908941,169.1 292.036941,168.548 C293.164941,167.996 293.920941,167.564 294.304941,167.252 C294.688941,166.94 295.072941,166.424 295.456941,165.704 C295.120941,167.096 295.936941,168.128 297.904941,168.8 C299.776941,169.424 301.648941,169.448 303.520941,168.872 C305.680941,168.248 306.712941,167.096 306.616941,165.416 C306.712941,163.832 307.312941,158.912 308.416941,150.656 C308.992941,146.576 309.232941,143.384 309.136941,141.08 C308.848941,139.4 308.440941,138.152 307.912941,137.336 C307.096941,136.136 306.064941,135.776 304.816941,136.256 C304.816941,136.208 304.768941,136.184 304.672941,136.184 L304.672941,136.184 L304.384941,136.112 C304.384941,134.864 303.520941,133.88 301.792941,133.16 C301.120941,132.872 300.412941,132.656 299.668941,132.512 C298.924941,132.368 298.228941,132.224 297.580941,132.08 C296.932941,131.936 296.176941,131.912 295.312941,132.008 C292.768941,132.296 290.128941,133.184 287.392941,134.672 C283.744941,136.688 280.480941,139.232 277.600941,142.304 C275.104941,144.992 273.376941,148.088 272.416941,151.592 C271.024941,156.92 270.880941,161.312 271.984941,164.768 C272.560941,166.544 273.700941,167.852 275.404941,168.692 C277.108941,169.532 278.992941,170.036 281.056941,170.204 Z M289.120941,159.368 C288.112941,160.664 286.504941,161.024 284.296941,160.448 C281.752941,159.488 281.608941,157.736 283.864941,155.192 C285.928941,152.888 288.904941,150.944 292.792941,149.36 C292.408941,150.56 292.108941,151.664 291.892941,152.672 C291.676941,153.68 291.400941,154.52 291.064941,155.192 C291.208941,155 291.352941,154.784 291.496941,154.544 C291.016941,155.456 290.608941,156.344 290.272941,157.208 C289.936941,158.072 289.552941,158.792 289.120941,159.368 Z" id="Oliva"></path>
        </g>
    </g>
</svg>