<?xml version="1.0" encoding="UTF-8"?>
<svg width="162px" height="120px" viewBox="0 0 162 120" version="1.1" xmlns="http://www.w3.org/2000/svg" xmlns:xlink="http://www.w3.org/1999/xlink">
    <!-- Generator: Sketch 63.1 (92452) - https://sketch.com -->
    <title>Group 23</title>
    <desc>Created with Sketch.</desc>
    <g id="Page-1" stroke="none" stroke-width="1" fill="none" fill-rule="evenodd">
        <g id="Group-23">
            <path d="M119.932667,31.9787063 C79.8475729,6.63319488 36.6265443,-6.83108101 13.8290996,3.49361873 C-9.06360424,13.8713274 -2.56692313,45.1755279 26.1785093,76.7736872 C55.6402913,109.142886 103.170849,133.751091 144.208535,111.383719 C179.507804,92.1438761 157.483865,55.7267205 119.932667,31.9787063" id="Fill-220-Copy" fill="#2C2B2B"></path>
            <path d="M48.7605491,73.4821974 C51.0302022,73.6154656 52.9821038,73.071287 54.616254,71.8496615 C55.6375979,71.2055317 56.5568074,70.3948166 57.3738825,69.4175162 C60.0293766,66.2412899 61.8791438,62.3654054 62.9231842,57.7898627 C63.7629559,54.1027748 63.683518,51.1264509 62.6848707,48.8608909 C62.5486915,48.4832976 62.4068382,48.1390213 62.2593107,47.8280621 C62.1117833,47.5171029 62.015323,47.2838834 61.9699299,47.1284038 C61.1074618,45.9956238 60.0634214,45.318177 58.8378087,45.0960632 C57.4987134,44.8517381 56.4092799,45.1626974 55.5695083,46.0289409 C54.5027713,45.6513476 53.3679448,45.6069248 52.1650287,45.8956727 C50.4173958,46.2954774 48.8286387,47.2949891 47.3987572,48.894208 C44.5616909,52.114857 42.598441,56.1240097 41.5090075,60.9216662 C40.1926087,66.7632572 41.4295697,70.6058246 45.2198903,72.4493686 C46.1731446,73.071287 47.3533642,73.4155633 48.7605491,73.4821974 Z M49.3052658,69.4175162 C49.100997,69.3286707 48.8399869,69.1010041 48.5222355,68.7345165 C48.2044841,68.3680288 47.9775188,67.8405087 47.8413396,67.1519562 L47.8413396,67.1519562 L47.77325,66.7854685 L47.8072948,66.5855662 C48.0115636,64.6753882 48.7605491,62.5319907 50.0542513,60.1553738 C50.6216646,59.1336507 51.3933466,57.9009195 52.3692975,56.4571803 C53.3452483,55.0134411 54.275806,53.7362872 55.1609707,52.6257185 C55.387936,55.2022378 55.0701846,58.0008707 54.2077164,61.0216174 C53.3452483,64.042364 52.1423322,66.485615 50.5989681,68.3513703 C50.4173958,68.573484 50.213127,68.7622807 49.9861617,68.9177603 C49.7591964,69.0732399 49.5322311,69.2398252 49.3052658,69.4175162 Z M63.6741724,72.4493686 C63.7195654,73.2711893 64.2642822,73.5710429 65.3083226,73.3489291 C65.7622532,73.2378723 66.2388803,73.0435228 66.738204,72.7658806 C67.2375277,72.4882385 67.6687618,72.1939378 68.0319063,71.8829786 C68.3950508,71.5720193 68.6674091,71.2388487 68.8489814,70.8834668 C69.0305536,70.5280848 69.1894293,70.1171744 69.3256085,69.6507356 C69.4844842,69.1842968 69.6320117,68.6512238 69.7681909,68.0515168 C69.9043701,67.4518097 70.0859423,66.7521515 70.3129076,65.9525421 C72.2421127,59.0670166 74.4096314,52.8367266 76.8154636,47.2616721 C76.8608567,46.7952332 76.6225431,46.273266 76.1005229,45.6957703 C75.8962542,45.4514452 75.7146819,45.2126729 75.5558062,44.9794535 C75.3969305,44.7462341 75.3288409,44.4852505 75.3515374,44.1965027 C74.1940144,43.8189093 73.2180635,43.9854946 72.423685,44.6962585 C72.1059335,44.962795 71.8449234,45.2570957 71.6406547,45.5791606 C71.4363859,45.9012255 71.2548136,46.1622091 71.0959379,46.3621115 C68.7128022,50.4267927 66.7155075,54.9912297 65.1040538,60.0554227 C64.4231579,62.1432917 63.8670929,64.0590226 63.4358588,65.8026153 C63.0046247,67.5462081 62.6074354,69.0288172 62.2442909,70.2504427 C62.0400222,71.1388976 62.1762014,71.6830762 62.6528285,71.8829786 C62.8344007,71.971824 63.0329954,72.0329053 63.2486124,72.0662224 C63.4642295,72.0995394 63.6060828,72.2272548 63.6741724,72.4493686 Z M81.294357,51.3263532 C81.9866011,51.6817352 82.8887882,51.7483693 84.0009182,51.5262556 C85.1357448,51.0598168 85.8336631,50.5156381 86.0946732,49.8937197 C86.3556833,49.2718013 86.3273126,48.716517 86.0095612,48.2278668 C85.7825959,47.6503711 85.2946205,47.3283062 84.545635,47.2616721 C84.2505801,47.1728266 84.0009182,47.1284038 83.7966495,47.1284038 C83.5923807,47.1284038 83.263281,47.1506152 82.8093504,47.1950379 C81.810703,47.3949403 81.0617175,47.8280621 80.5623938,48.4944032 C80.1311598,49.0274762 79.972284,49.5438906 80.0857667,50.0436465 C80.1992494,50.5434024 80.6021128,50.9709713 81.294357,51.3263532 Z M75.2684281,73.9986118 C75.6429208,74.0097175 75.9890429,73.954189 76.3067943,73.8320265 C76.6245458,73.7098639 76.8515111,73.5266201 76.9876903,73.282295 C77.1238694,73.0379699 77.4416209,72.9047017 77.9409445,72.8824903 C78.1452133,72.8602789 78.3608304,72.8269619 78.5877957,72.7825391 C79.3821742,72.6270595 79.9495875,71.549808 80.2900355,69.5507844 C80.4262147,68.3069476 80.9482349,66.1746558 81.8560961,63.1539091 C82.1965441,61.9767064 82.5540144,60.8272679 82.9285072,59.7055935 C83.3029999,58.5839192 83.6150772,57.6343831 83.8647391,56.856985 C83.9555252,56.0573756 83.5356394,55.4798799 82.6050816,55.124498 C81.6972204,54.7913274 80.7212696,54.7580103 79.6772291,55.0245468 C78.5650991,55.2910832 77.8615067,55.7908391 77.5664518,56.5238144 C76.9082524,57.5011148 76.2273565,58.911537 75.523764,60.7550809 C74.0484895,64.4865915 73.12928,67.5628666 72.7661356,69.9839062 C72.3802945,71.2499544 72.5051254,72.2605719 73.1406283,73.0157586 C73.4129867,73.3267178 73.7420864,73.56549 74.1279274,73.7320753 C74.5137684,73.8986606 74.8939353,73.9875061 75.2684281,73.9986118 Z M88.8713267,72.715905 C89.9380637,73.4488803 91.3792933,73.2378723 93.1950158,72.0828809 C93.9666978,71.6164421 94.6759644,71.0556049 95.3228156,70.4003694 C95.9696667,69.7451339 96.4746645,69.1509797 96.837809,68.6179068 C97.9045459,67.018688 99.107462,65.0974042 100.446557,62.8540556 C101.263632,61.4991619 102.160145,60.0221056 103.136096,58.4228868 C103.317668,58.2007731 103.499241,57.956448 103.680813,57.6899115 C104.316316,56.6681883 104.078002,55.7686278 102.965872,54.9912297 C103.147445,54.5470023 103.181489,54.1916203 103.068007,53.9250838 C102.841041,53.3920109 102.296325,53.1254744 101.433856,53.1254744 C99.9812785,53.1254744 98.891845,53.5141734 98.165556,54.2915715 C96.9853364,55.2688719 95.9072512,56.8014566 94.9313004,58.8893256 C94.5227628,59.7777805 94.142596,60.6773411 93.7907997,61.5880074 C93.4390035,62.4986736 93.0588366,63.3649172 92.6502991,64.186738 C92.4687268,62.8540556 92.3325476,61.5158204 92.2417615,60.1720324 C92.1509754,58.8282443 92.048841,57.4900091 91.9353584,56.1573268 C91.8899653,56.0462699 91.8559205,55.9574244 91.833224,55.8907903 C91.6289552,55.2688719 91.2204176,54.8468558 90.6076113,54.6247421 C90.2444668,54.5136852 89.8586258,54.413734 89.4500882,54.3248885 L89.4500882,54.3248885 L89.0415507,54.3248885 C88.0202068,54.3915227 87.3166144,54.7802217 86.9307733,55.4909856 C86.7718976,55.8019448 86.6697632,56.1406682 86.6243702,56.5071559 C86.5789771,56.8736435 86.533584,57.2345783 86.488191,57.5899603 C86.4427979,57.9453423 86.3860566,58.3229356 86.317967,58.7227403 C86.2498774,59.122545 86.1931361,59.5667725 86.147743,60.0554227 C86.10235,60.5440729 86.0002156,61.2770482 85.8413399,62.2543485 C85.1377474,66.6299889 85.0242648,69.4286219 85.5008919,70.6502474 C85.8186433,71.2277431 86.2839222,71.6941819 86.8967285,72.0495638 C87.5095349,72.4049458 88.1677343,72.6270595 88.8713267,72.715905 Z M106.712802,72.43271 C107.688753,72.5104498 108.664704,72.4660271 109.640655,72.2994418 C110.616606,72.1328565 111.371265,71.9218485 111.904634,71.6664177 C112.438002,71.4109869 112.795473,71.2110845 112.977045,71.0667106 C113.158617,70.9223367 113.340189,70.6835644 113.521762,70.3503938 C113.362886,70.9945237 113.748727,71.4720682 114.679285,71.7830274 C115.564449,72.0717752 116.449614,72.0828809 117.334779,71.8163444 C118.356123,71.5275966 118.844098,70.9945237 118.798705,70.2171256 C118.844098,69.4841503 119.127805,67.2074846 119.649825,63.3871285 C119.922183,61.4991619 120.035666,60.0221056 119.990273,58.9559597 C119.854094,58.1785617 119.661173,57.601066 119.411511,57.2234727 C119.02567,56.6681883 118.537695,56.5016031 117.947585,56.7237168 C117.947585,56.7015054 117.924889,56.6903997 117.879496,56.6903997 L117.879496,56.6903997 L117.743316,56.6570827 C117.743316,56.079587 117.334779,55.6242538 116.517704,55.2910832 C116.199952,55.157815 115.865178,55.0578638 115.513382,54.9912297 C115.161586,54.9245956 114.832486,54.8579615 114.526083,54.7913274 C114.21968,54.7246932 113.86221,54.7135876 113.453672,54.7580103 C112.250756,54.8912785 111.002447,55.3021889 109.708745,55.9907415 C107.983808,56.9236191 106.440444,58.1008219 105.078652,59.5223497 C103.898433,60.7661866 103.081358,62.1988201 102.627427,63.8202503 C101.969228,66.2857127 101.901138,68.3180533 102.423158,69.9172721 C102.695517,70.7390929 103.234559,71.3443528 104.040286,71.7330518 C104.846013,72.1217508 105.736852,72.3549702 106.712802,72.43271 Z M110.52582,67.4184927 C110.049192,68.0181997 109.288859,68.184785 108.244818,67.9182486 C107.041902,67.4740211 106.973813,66.663306 108.04055,65.4861033 C109.0165,64.4199574 110.423685,63.5203968 112.262104,62.7874215 C112.080532,63.3427058 111.938679,63.8535674 111.836544,64.3200062 C111.73441,64.786445 111.603905,65.175144 111.445029,65.4861033 C111.513119,65.3972578 111.581208,65.2973066 111.649298,65.1862497 C111.422333,65.6082658 111.229412,66.0191762 111.070536,66.4189809 C110.911661,66.8187856 110.730088,67.1519562 110.52582,67.4184927 Z" id="Oliva-Copy" fill="#7C7644" fill-rule="nonzero"></path>
        </g>
    </g>
</svg>