<?xml version="1.0" encoding="UTF-8"?>
<svg width="1440px" height="1813px" viewBox="0 0 1440 1813" version="1.1" xmlns="http://www.w3.org/2000/svg" xmlns:xlink="http://www.w3.org/1999/xlink">
    <!-- Generator: Sketch 63.1 (92452) - https://sketch.com -->
    <title>Group 18</title>
    <desc>Created with Sketch.</desc>
    <defs>
        <rect id="path-1" x="0" y="0" width="1440" height="1814"></rect>
    </defs>
    <g id="Page-1" stroke="none" stroke-width="1" fill="none" fill-rule="evenodd">
        <g id="Desktop-HD-Copy-3">
            <g id="Group-18">
                <mask id="mask-2" fill="white">
                    <use xlink:href="#path-1"></use>
                </mask>
                <g id="Rectangle"></g>
                <g id="Group-2" mask="url(#mask-2)">
                    <g transform="translate(989.000000, 566.000000) rotate(7.000000) translate(-989.000000, -566.000000) translate(-117.000000, -772.000000)">
                        <path d="M483.348855,711.414188 C512.816372,849.704158 587.248953,1495.20179 544.780578,1759.66409 C503.938338,2014.20083 441.619632,2670.99534 440.987247,2675.3999 L382.479279,2671.52042 C383.095239,2667.12096 445.455008,2010.07665 486.338313,1755.29521 C528.330346,1493.66223 472.655793,857.274497 443.43466,720.233506 C411.454028,570.203138 577.976705,308.748584 583.479279,298.399905 L581.097568,308.152133 C579.799946,310.609308 453.487124,571.39604 483.348855,711.414188 Z" id="Fill-193" fill="#797E4B"></path>
                        <path d="M1109.57111,857.923764 C1036.26701,931.350189 770.434799,1161.04519 510.328602,1366.48479 L510.328602,1419.40382 C782.286122,1201.57751 1070.38348,944.955763 1148.19173,867.044933 C1266.8008,748.256437 1623.29882,599.265496 1626.7488,597.904431 L1638.3286,591.403821 C1623.8259,597.117248 1236.66138,730.654003 1109.57111,857.923764" id="Fill-194" fill="#797E4B"></path>
                        <path d="M330.056882,2247.20358 C313.6897,2264.63384 -78.1688572,2070.94962 104.883889,1794.29209 C104.883889,1794.29209 219.502257,1821.9074 324.566422,2007.26626 C369.796593,2087.05006 399.485155,2173.42179 330.056882,2247.20358" id="Fill-195" fill="#8B925B"></path>
                        <path d="M419.033414,2315.93841 C419.033414,2315.93841 327.706713,2264.05656 301.052762,2224.78028 C274.406969,2185.49896 166.697919,1970.64861 140.990358,1866.22332 C140.990358,1866.22332 297.87909,2174.54989 327.315103,2216.0483 C356.759275,2257.54165 445.295755,2307.19632 454.196723,2311.97896 C463.105849,2316.76161 436.843507,2325.49359 419.033414,2315.93841" id="Fill-196" fill="#797E4B"></path>
                        <path d="M641.725283,2167.44834 C591.179681,2202.92674 461.120539,2300.10472 474.179683,2328.59616 C474.179683,2328.59616 619.356691,2331.41731 695.239541,2280.89803 C771.100019,2230.38223 854.062945,2167.55504 820.656442,2094.62463 C820.656442,2094.62463 739.110976,2099.08101 641.725283,2167.44834" id="Fill-199" fill="#8B925B" transform="translate(650.763620, 2211.624631) rotate(-7.000000) translate(-650.763620, -2211.624631) "></path>
                        <path d="M423.997702,2392.7469 C423.997702,2392.7469 569.434213,2296.48046 616.43915,2270.2565 C663.436428,2244.01132 749.734019,2173.14305 776.815499,2144.7469 C776.815499,2144.7469 653.425352,2237.43676 625.182396,2252.18854 C596.932481,2266.95126 437.931983,2371.91398 430.139171,2370.59057 C422.335779,2369.26606 403.658158,2391.73994 423.997702,2392.7469" id="Fill-200" fill="#797E4B" transform="translate(595.815499, 2268.746903) rotate(-7.000000) translate(-595.815499, -2268.746903) "></path>
                        <path d="M403.826684,1316.68164 C436.852545,1397.25589 516.336251,1614.37392 472.660689,1656.11364 C472.660689,1656.11364 280.077951,1598.64813 227.937646,1482.24664 C175.820921,1365.85027 125.897011,1225.96221 237.675638,1119.11364 C237.675638,1119.11364 340.203566,1161.4201 403.826684,1316.68164" id="Fill-201" fill="#8B925B"></path>
                        <path d="M487.711666,1775.32105 C487.711666,1775.32105 379.745749,1552.61156 340.148494,1488.74468 C300.57562,1424.84697 249.738011,1269.9193 239.708656,1211.08737 C239.708656,1211.08737 320.715604,1418.29125 345.480144,1455.00533 C370.236556,1491.73483 488.5488,1734.73313 500.561268,1735.93022 C512.598119,1737.11703 516.726897,1782.48301 487.711666,1775.32105" id="Fill-202" fill="#797E4B"></path>
                        <path d="M900.641005,872.154692 C862.173763,951.9603 750.239802,1163.73264 677.513301,1184.17085 C677.513301,1184.17085 558.104739,1069.11585 609.831553,952.302725 C661.566413,835.49471 734.791757,699.490417 920.972886,647.170853 C920.972886,647.170853 974.783577,718.374934 900.641005,872.154692" id="Fill-203" fill="#8B925B"></path>
                        <path d="M610.757146,1289.23818 C610.757146,1289.23818 703.435285,1064.31106 722.84561,996.919681 C742.303645,929.512905 826.93457,781.151258 866.757146,727.908632 C866.757146,727.908632 764.385772,930.683411 754.891332,970.095583 C745.380989,1009.50776 644.679492,1255.10355 653.672969,1260.12954 C662.698253,1265.16066 628.998557,1305.00921 610.757146,1289.23818" id="Fill-204" fill="#797E4B"></path>
                        <path d="M454.490252,1885.79343 C454.490252,1885.79343 424.368424,1790.4387 332.446593,1727.16355 C240.532868,1663.8884 124.771344,1544.78824 11.4902517,1569.37679 C11.4902517,1569.37679 104.968431,1742.52373 230.319331,1803.3666 C419.95877,1895.44592 454.490252,1885.79343 454.490252,1885.79343" id="Fill-205" fill="#8B925B"></path>
                        <path d="M468.354681,1939.60824 C468.354681,1939.60824 448.947635,1868.27407 410.367268,1836.91343 C371.778841,1805.56295 175.008488,1663.39708 112.354681,1629.64088 C112.354681,1629.64088 298.526916,1767.62464 344.812074,1809.17153 C391.137529,1850.72348 415.283504,1885.87542 423.004413,1889.5246 C430.693085,1893.16363 444.321537,1956.87968 452.977337,1958.51902 C461.657316,1960.17359 459.682762,1944.51611 468.354681,1939.60824" id="Fill-206" fill="#797E4B"></path>
                        <path d="M1268.29378,793.882837 C1268.29378,793.882837 1399.39211,746.999279 1532.7383,749.015297 C1666.05271,751.036268 1880.14688,728.468757 1924.29378,796.300077 C1924.29378,796.300077 1661.24723,863.576621 1509.24306,844.60525 C1279.23122,815.930246 1268.29378,793.882837 1268.29378,793.882837" id="Fill-207" fill="#8B925B"></path>
                        <path d="M1184.07633,816.076981 C1184.07633,816.076981 1281.06108,777.317817 1343.21384,774.952479 C1405.35067,772.597584 1701.33099,772.545369 1781.96311,780.309734 C1781.96311,780.309734 1497.81117,782.711622 1418.59686,788.199414 C1339.38256,793.681985 1282.11249,805.665318 1272.77723,804.354722 C1263.48179,803.065013 1179.26532,839.484947 1171.69834,836.372935 C1164.09951,833.250481 1183.90906,823.632485 1184.07633,816.076981" id="Fill-208" fill="#797E4B"></path>
                        <path d="M709.081359,1272.67053 C690.613338,1275.91117 673.848328,1278.37215 659.806527,1280.22319 C657.725962,1283.79797 653.982553,1286.95905 648.632531,1288.94268 C646.222611,1289.84964 643.804657,1290.75659 641.386704,1291.65294 C703.707237,1308.81082 706.446513,1300.23453 726.521147,1296.49533 C748.853073,1292.33713 784.760883,1288.60854 794.312199,1290.3482 C803.871549,1292.10376 788.086572,1247.9706 788.086572,1247.9706 C788.086572,1247.9706 760.934806,1263.60629 709.081359,1272.67053 Z" id="Fill-209" fill="#797E4B"></path>
                        <path d="M565.093425,791.365673 C565.093425,791.365673 559.846497,813.908316 529.822411,841.77155 C519.12372,851.701289 508.96863,860.365673 500.263142,867.475041 C502.153927,870.935713 502.382397,874.772434 500.294655,878.416049 C499.365019,880.062536 498.427505,881.714104 497.489991,883.365673 C560.571298,870.356393 554.363221,862.982774 565.770956,852.02144 C578.45497,839.835403 601.703744,822.405001 610.519528,819.762491 C619.343191,817.135227 565.093425,791.365673 565.093425,791.365673" id="Fill-213" fill="#797E4B"></path>
                        <path d="M785.691025,761.296291 C850.700544,699.291237 876.550724,638.019081 834.569656,612.693992 C792.353443,587.273527 695.003765,608.231355 605.539255,658.078358 C513.895743,709.165261 454.192643,780.482116 541.846544,824.556304 C617.257272,862.451069 724.780853,819.37081 785.691025,761.296291" id="Fill-214" fill="#2C2B2B"></path>
                        <path d="M598.517564,817.150184 C598.517564,817.150184 663.216799,796.410273 696.679703,769.794475 C735.367418,739.071114 830.539358,651.089431 818.056079,627.434313 C818.056079,627.434313 839.397422,643.339121 814.294215,679.48871 C789.191008,715.648403 705.039401,831.887898 598.517564,817.150184" id="Fill-215" fill="#1A1A19"></path>
                        <path d="M984.04802,1106.7855 C976.970099,1126.45731 1472.0229,1157.75704 1639.9729,878.965147 C1639.9729,878.965147 1526.73419,848.915781 1248.92778,936.532765 C1129.34224,974.241276 1013.88616,1023.45622 984.04802,1106.7855" id="Fill-217" fill="#8B925B"></path>
                        <path d="M865.384864,1119.89342 C865.384864,1119.89342 986.678135,1121.32099 1048.39477,1104.09325 C1110.11939,1086.85021 1420.70683,976.187836 1552.77995,910.922273 C1552.77995,910.922273 1105.41618,1068.73533 1039.30776,1086.39135 C973.191346,1104.04226 856.289864,1102.19152 844.767403,1101.84992 C833.244941,1101.50322 842.331955,1119.21532 865.384864,1119.89342" id="Fill-218" fill="#797E4B"></path>
                        <path d="M440.074516,1144.85546 C461.058314,1158.37709 479.078799,1171.01102 493.75606,1181.74272 C502.797962,1180.91842 512.270431,1181.84576 520.527182,1185.00028 C524.275646,1186.41902 528.024109,1187.84568 531.759909,1189.26442 C519.488756,1123.08294 499.518057,1126.99042 476.242124,1112.43049 C450.408118,1096.24575 414.98767,1068.06908 411.239206,1058.56589 C407.541398,1049.04686 327.759909,1094.86664 327.759909,1094.86664 C327.759909,1094.86664 381.251498,1106.81101 440.074516,1144.85546 Z" id="Fill-219" fill="#797E4B"></path>
                        <g id="Group-7" stroke-width="1" fill="none" transform="translate(468.698302, 1921.055716)">
                            <path d="M64.1174849,130.217396 C64.1174849,130.217396 57.5937631,147.85271 30.6501587,168.646709 C21.0672547,176.062751 12.0290498,182.497257 4.32092413,187.748267 C5.47365944,190.571695 5.27731441,193.625359 3.22519221,196.420512 C2.30047048,197.688833 1.38208246,198.957153 0.457360726,200.217396 C52.3431171,192.595353 48.1375334,186.483986 58.3918107,178.288371 C69.8241581,169.175849 90.2313733,156.351268 97.5721438,154.634591 C104.919248,152.925994 64.1174849,130.217396 64.1174849,130.217396" id="Fill-223" fill="#797E4B"></path>
                            <g id="Group-6" transform="translate(12.831649, 0.188263)">
                                <path d="M227.480073,122.596226 C285.111635,77.6536453 311.746612,31.6710135 281.227755,10.5220186 C250.516566,-10.7159026 171.585709,1.40513928 95.9120983,36.0129369 C18.3958165,71.4829331 -35.9847029,123.798664 28.6639009,161.194108 C84.2666636,193.369965 173.490423,164.677699 227.480073,122.596226" id="Fill-224" fill="#2C2B2B"></path>
                                <path d="M76.03732,158.540357 C76.03732,158.540357 125.875741,145.183855 153.209373,126.036802 C184.799539,103.94375 263.718321,40.0487056 256.814865,21.338676 C256.814865,21.338676 271.027161,34.4415497 248.957564,61.2560072 C226.86412,88.0782687 153.328603,174.167817 76.03732,158.540357" id="Fill-225" fill="#1A1A19"></path>
                                <path d="M129.442923,47.586769 C129.442923,47.586769 182.026966,11.010481 194.409697,22.7658371 C206.804172,34.5008482 145.507008,55.9567127 129.442923,47.586769" id="Fill-226" fill="#C4BEBD"></path>
                            </g>
                        </g>
                        <g id="Group-7-Copy" stroke-width="1" fill="none" transform="translate(442.616174, 2364.605139)">
                            <path d="M63.6969917,131.652344 C63.6969917,131.652344 57.1732699,149.287659 30.2296654,170.081658 C20.6467614,177.497699 11.6085565,183.932206 3.90043087,189.183216 C5.05316618,192.006643 4.85682116,195.060307 2.80469896,197.85546 C1.87997722,199.123781 0.961589203,200.392102 0.03686747,201.652344 C51.9226239,194.030302 47.7170401,187.918934 57.9713174,179.723319 C69.4036648,170.610798 89.8108801,157.786216 97.1516505,156.06954 C104.498755,154.360942 63.6969917,131.652344 63.6969917,131.652344" id="Fill-223" fill="#797E4B"></path>
                            <g id="Group-6" transform="translate(11.296741, 0.752535)">
                                <path d="M227.480073,122.596226 C285.111635,77.6536453 311.746612,31.6710135 281.227755,10.5220186 C250.516566,-10.7159026 171.585709,1.40513928 95.9120983,36.0129369 C18.3958165,71.4829331 -35.9847029,123.798664 28.6639009,161.194108 C84.2666636,193.369965 173.490423,164.677699 227.480073,122.596226" id="Fill-224" fill="#2C2B2B"></path>
                                <path d="M76.03732,158.540357 C76.03732,158.540357 125.875741,145.183855 153.209373,126.036802 C184.799539,103.94375 263.718321,40.0487056 256.814865,21.338676 C256.814865,21.338676 271.027161,34.4415497 248.957564,61.2560072 C226.86412,88.0782687 153.328603,174.167817 76.03732,158.540357" id="Fill-225" fill="#1A1A19"></path>
                                <path d="M129.442923,47.586769 C129.442923,47.586769 182.026966,11.010481 194.409697,22.7658371 C206.804172,34.5008482 145.507008,55.9567127 129.442923,47.586769" id="Fill-226" fill="#C4BEBD"></path>
                            </g>
                        </g>
                        <path d="M461.621804,916.93071 C461.621804,916.93071 356.773321,875.794436 318.88185,839.60956 C280.998491,803.398922 110.888419,600.922307 54.2499576,499.349097 C54.2499576,499.349097 300.597248,789.647329 341.895788,827.733418 C383.178104,865.819508 484.635742,905.064873 494.775827,908.790014 C504.915913,912.520308 481.910087,924.401601 461.621804,916.93071" id="Fill-228" fill="#797E4B"></path>
                        <path d="M1026.23357,837.171174 C1026.23357,837.171174 1046.99806,857.075379 1051.87375,891.509447 C1053.6582,903.763361 1054.43327,914.806884 1054.75771,924.024476 C1060.31834,925.95386 1064.86959,928.876385 1067.13169,932.61101 C1068.16812,934.302453 1069.18651,935.988724 1070.22294,937.674995 C1111.25625,901.130502 1097.45831,897.913139 1095.17819,884.54194 C1092.65472,869.675858 1093.53793,846.285313 1098.33251,840.528198 C1103.17216,834.771082 1026.23357,837.171174 1026.23357,837.171174" id="Fill-229" fill="#797E4B"></path>
                        <path d="M1165.05894,729.343658 C1153.40598,652.598492 1111.45853,592.904351 1052.41364,590.364837 C993.103359,587.846053 937.339633,645.472303 917.242496,722.803113 C896.68696,802.035967 922.027528,883.979365 1036.34558,882.258714 C1134.67599,880.771284 1175.9479,801.237834 1165.05894,729.343658" id="Fill-230" fill="#2C2B2B"></path>
                        <path d="M1093.12598,848.148241 C1093.12598,848.148241 1124.83526,805.787182 1123.65562,771.459588 C1122.30873,731.808737 1105.33608,624.591894 1068.58254,611.148241 C1068.58254,611.148241 1104.23567,614.947645 1123.06581,653.340551 C1141.87833,691.753911 1199.49555,816.597331 1093.12598,848.148241" id="Fill-231" fill="#1A1A19"></path>
                        <path d="M1182.91489,772.630557 C1182.91489,772.630557 1203.58269,696.517981 1242.1826,661.111937 C1280.81498,625.700812 1512.57679,451.94846 1639.62772,381.441291 C1639.62772,381.441291 1308.27733,631.992283 1268.16752,670.07144 C1228.07395,708.150597 1208.8917,781.600224 1207.25191,788.867432 C1205.62025,796.129559 1179.6272,787.175138 1182.91489,772.630557" id="Fill-234" fill="#797E4B"></path>
                    </g>
                </g>
            </g>
        </g>
    </g>
</svg>