<?xml version="1.0" encoding="UTF-8"?>
<svg width="1440px" height="1813px" viewBox="0 0 1440 1813" version="1.1" xmlns="http://www.w3.org/2000/svg" xmlns:xlink="http://www.w3.org/1999/xlink">
    <!-- Generator: Sketch 63.1 (92452) - https://sketch.com -->
    <title>Group 18</title>
    <desc>Created with Sketch.</desc>
    <defs>
        <rect id="path-1" x="0" y="0" width="1440" height="1814"></rect>
    </defs>
    <g id="Page-1" stroke="none" stroke-width="1" fill="none" fill-rule="evenodd">
        <g id="Desktop-HD-Copy-3">
            <g id="Group-18">
                <mask id="mask-2" fill="white">
                    <use xlink:href="#path-1"></use>
                </mask>
                <g id="Rectangle"></g>
                <g id="Group-2" mask="url(#mask-2)">
                    <g transform="translate(989.000000, 566.000000) rotate(7.000000) translate(-989.000000, -566.000000) translate(-117.000000, -772.000000)">
                        <path d="M483.348855,711.414188 C512.816372,849.704158 587.248953,1495.20179 544.780578,1759.66409 C503.938338,2014.20083 441.619632,2670.99534 440.987247,2675.3999 L382.479279,2671.52042 C383.095239,2667.12096 445.455008,2010.07665 486.338313,1755.29521 C528.330346,1493.66223 472.655793,857.274497 443.43466,720.233506 C411.454028,570.203138 577.976705,308.748584 583.479279,298.399905 L581.097568,308.152133 C579.799946,310.609308 453.487124,571.39604 483.348855,711.414188 Z" id="Fill-193" fill="#797E4B"></path>
                        <path d="M1109.57111,857.923764 C1036.26701,931.350189 770.434799,1161.04519 510.328602,1366.48479 L510.328602,1419.40382 C782.286122,1201.57751 1070.38348,944.955763 1148.19173,867.044933 C1266.8008,748.256437 1623.29882,599.265496 1626.7488,597.904431 L1638.3286,591.403821 C1623.8259,597.117248 1236.66138,730.654003 1109.57111,857.923764" id="Fill-194" fill="#797E4B"></path>
                        <path d="M330.056882,2247.20358 C313.6897,2264.63384 -78.1688572,2070.94962 104.883889,1794.29209 C104.883889,1794.29209 219.502257,1821.9074 324.566422,2007.26626 C369.796593,2087.05006 399.485155,2173.42179 330.056882,2247.20358" id="Fill-195" fill="#8B925B"></path>
                        <path d="M419.033414,2315.93841 C419.033414,2315.93841 327.706713,2264.05656 301.052762,2224.78028 C274.406969,2185.49896 166.697919,1970.64861 140.990358,1866.22332 C140.990358,1866.22332 297.87909,2174.54989 327.315103,2216.0483 C356.759275,2257.54165 445.295755,2307.19632 454.196723,2311.97896 C463.105849,2316.76161 436.843507,2325.49359 419.033414,2315.93841" id="Fill-196" fill="#797E4B"></path>
                        <path d="M727.774618,1963.76577 C660.411901,2035.27792 488.350177,2229.62641 513.873856,2277.27914 C513.873856,2277.27914 729.932691,2255.77922 831.654207,2153.23763 C933.34327,2050.7062 1042.91823,1925.26118 977.616225,1803.27914 C977.616225,1803.27914 857.5592,1825.9639 727.774618,1963.76577" id="Fill-199" fill="#8B925B"></path>
                        <path d="M442.10836,2386.9132 C442.10836,2386.9132 637.48821,2191.30461 701.68912,2136.67098 C765.87407,2082.00147 878.842136,1941.79036 912.965579,1886.9773 C912.965579,1886.9773 749.578451,2072.28153 710.786577,2103.34329 C671.986723,2134.42555 458.324177,2347.78226 446.457583,2346.87998 C434.575028,2345.97771 411.663801,2388.85616 442.10836,2386.9132" id="Fill-200" fill="#797E4B"></path>
                        <path d="M403.826684,1316.68164 C436.852545,1397.25589 516.336251,1614.37392 472.660689,1656.11364 C472.660689,1656.11364 280.077951,1598.64813 227.937646,1482.24664 C175.820921,1365.85027 125.897011,1225.96221 237.675638,1119.11364 C237.675638,1119.11364 340.203566,1161.4201 403.826684,1316.68164" id="Fill-201" fill="#8B925B"></path>
                        <path d="M487.711666,1775.32105 C487.711666,1775.32105 379.745749,1552.61156 340.148494,1488.74468 C300.57562,1424.84697 249.738011,1269.9193 239.708656,1211.08737 C239.708656,1211.08737 320.715604,1418.29125 345.480144,1455.00533 C370.236556,1491.73483 488.5488,1734.73313 500.561268,1735.93022 C512.598119,1737.11703 516.726897,1782.48301 487.711666,1775.32105" id="Fill-202" fill="#797E4B"></path>
                        <path d="M900.641005,872.154692 C862.173763,951.9603 750.239802,1163.73264 677.513301,1184.17085 C677.513301,1184.17085 558.104739,1069.11585 609.831553,952.302725 C661.566413,835.49471 734.791757,699.490417 920.972886,647.170853 C920.972886,647.170853 974.783577,718.374934 900.641005,872.154692" id="Fill-203" fill="#8B925B"></path>
                        <path d="M610.757146,1289.23818 C610.757146,1289.23818 703.435285,1064.31106 722.84561,996.919681 C742.303645,929.512905 826.93457,781.151258 866.757146,727.908632 C866.757146,727.908632 764.385772,930.683411 754.891332,970.095583 C745.380989,1009.50776 644.679492,1255.10355 653.672969,1260.12954 C662.698253,1265.16066 628.998557,1305.00921 610.757146,1289.23818" id="Fill-204" fill="#797E4B"></path>
                        <path d="M454.490252,1885.79343 C454.490252,1885.79343 424.368424,1790.4387 332.446593,1727.16355 C240.532868,1663.8884 124.771344,1544.78824 11.4902517,1569.37679 C11.4902517,1569.37679 104.968431,1742.52373 230.319331,1803.3666 C419.95877,1895.44592 454.490252,1885.79343 454.490252,1885.79343" id="Fill-205" fill="#8B925B"></path>
                        <path d="M468.354681,1939.60824 C468.354681,1939.60824 448.947635,1868.27407 410.367268,1836.91343 C371.778841,1805.56295 175.008488,1663.39708 112.354681,1629.64088 C112.354681,1629.64088 298.526916,1767.62464 344.812074,1809.17153 C391.137529,1850.72348 415.283504,1885.87542 423.004413,1889.5246 C430.693085,1893.16363 444.321537,1956.87968 452.977337,1958.51902 C461.657316,1960.17359 459.682762,1944.51611 468.354681,1939.60824" id="Fill-206" fill="#797E4B"></path>
                        <path d="M1268.29378,793.882837 C1268.29378,793.882837 1399.39211,746.999279 1532.7383,749.015297 C1666.05271,751.036268 1880.14688,728.468757 1924.29378,796.300077 C1924.29378,796.300077 1661.24723,863.576621 1509.24306,844.60525 C1279.23122,815.930246 1268.29378,793.882837 1268.29378,793.882837" id="Fill-207" fill="#8B925B"></path>
                        <path d="M1184.07633,816.076981 C1184.07633,816.076981 1281.06108,777.317817 1343.21384,774.952479 C1405.35067,772.597584 1701.33099,772.545369 1781.96311,780.309734 C1781.96311,780.309734 1497.81117,782.711622 1418.59686,788.199414 C1339.38256,793.681985 1282.11249,805.665318 1272.77723,804.354722 C1263.48179,803.065013 1179.26532,839.484947 1171.69834,836.372935 C1164.09951,833.250481 1183.90906,823.632485 1184.07633,816.076981" id="Fill-208" fill="#797E4B"></path>
                        <path d="M709.081359,1272.67053 C690.613338,1275.91117 673.848328,1278.37215 659.806527,1280.22319 C657.725962,1283.79797 653.982553,1286.95905 648.632531,1288.94268 C646.222611,1289.84964 643.804657,1290.75659 641.386704,1291.65294 C703.707237,1308.81082 706.446513,1300.23453 726.521147,1296.49533 C748.853073,1292.33713 784.760883,1288.60854 794.312199,1290.3482 C803.871549,1292.10376 788.086572,1247.9706 788.086572,1247.9706 C788.086572,1247.9706 760.934806,1263.60629 709.081359,1272.67053 Z" id="Fill-209" fill="#797E4B"></path>
                        <path d="M565.093425,791.365673 C565.093425,791.365673 559.846497,813.908316 529.822411,841.77155 C519.12372,851.701289 508.96863,860.365673 500.263142,867.475041 C502.153927,870.935713 502.382397,874.772434 500.294655,878.416049 C499.365019,880.062536 498.427505,881.714104 497.489991,883.365673 C560.571298,870.356393 554.363221,862.982774 565.770956,852.02144 C578.45497,839.835403 601.703744,822.405001 610.519528,819.762491 C619.343191,817.135227 565.093425,791.365673 565.093425,791.365673" id="Fill-213" fill="#797E4B"></path>
                        <path d="M785.691025,761.296291 C850.700544,699.291237 876.550724,638.019081 834.569656,612.693992 C792.353443,587.273527 695.003765,608.231355 605.539255,658.078358 C513.895743,709.165261 454.192643,780.482116 541.846544,824.556304 C617.257272,862.451069 724.780853,819.37081 785.691025,761.296291" id="Fill-214" fill="#2C2B2B"></path>
                        <path d="M598.517564,817.150184 C598.517564,817.150184 663.216799,796.410273 696.679703,769.794475 C735.367418,739.071114 830.539358,651.089431 818.056079,627.434313 C818.056079,627.434313 839.397422,643.339121 814.294215,679.48871 C789.191008,715.648403 705.039401,831.887898 598.517564,817.150184" id="Fill-215" fill="#1A1A19"></path>
                        <path d="M984.04802,1106.7855 C976.970099,1126.45731 1472.0229,1157.75704 1639.9729,878.965147 C1639.9729,878.965147 1526.73419,848.915781 1248.92778,936.532765 C1129.34224,974.241276 1013.88616,1023.45622 984.04802,1106.7855" id="Fill-217" fill="#8B925B"></path>
                        <path d="M865.384864,1119.89342 C865.384864,1119.89342 986.678135,1121.32099 1048.39477,1104.09325 C1110.11939,1086.85021 1420.70683,976.187836 1552.77995,910.922273 C1552.77995,910.922273 1105.41618,1068.73533 1039.30776,1086.39135 C973.191346,1104.04226 856.289864,1102.19152 844.767403,1101.84992 C833.244941,1101.50322 842.331955,1119.21532 865.384864,1119.89342" id="Fill-218" fill="#797E4B"></path>
                        <path d="M382.158983,1097.03362 C382.158983,1097.03362 415.722333,1104.54409 452.630893,1128.46598 C465.797198,1136.96822 477.104169,1144.91228 486.313431,1151.66025 C491.986781,1151.14194 497.930291,1151.72503 503.110997,1153.70856 C505.462975,1154.60065 507.814952,1155.49772 510.158983,1156.3898 C502.459436,1114.77569 489.928801,1117.23266 475.324294,1108.07756 C459.114722,1097.90079 436.890127,1080.18364 434.53815,1074.20815 C432.217956,1068.2227 382.158983,1097.03362 382.158983,1097.03362" id="Fill-219" fill="#797E4B"></path>
                        <path d="M380.064529,952.512369 C295.193002,898.86437 203.681812,870.364986 155.413148,892.218933 C106.942794,914.185084 120.698113,980.445641 181.560355,1047.32841 C243.939314,1115.84322 344.575,1167.93058 431.463435,1120.58631 C506.202011,1079.86198 459.571077,1002.779 380.064529,952.512369" id="Fill-220" fill="#2C2B2B"></path>
                        <path d="M434.641099,1074.8006 C434.641099,1074.8006 415.134655,1031.21903 380.708736,1005.62796 C340.978641,976.05349 224.3104,900.930835 185.730988,904.046313 C185.730988,904.046313 214.103998,894.027618 264.710414,916.312567 C315.301067,938.617585 477.342479,1012.3907 434.641099,1074.8006" id="Fill-221" fill="#1A1A19"></path>
                        <path d="M219.778547,1010.99645 C219.778547,1010.99645 148.653742,958.454971 176.485577,949.026491 C204.263665,939.587394 240.811424,997.782775 219.778547,1010.99645" id="Fill-222" fill="#C4BEBD"></path>
                        <g id="Group-7" stroke-width="1" fill="none" transform="translate(469.298083, 1830.373162)">
                            <path d="M83.1479173,170.64862 C83.1479173,170.64862 74.6271378,193.826462 39.4354912,221.155718 C26.9190452,230.902515 15.1140429,239.359295 5.04628689,246.260622 C6.55190036,249.971413 6.29544972,253.9848 3.61512684,257.65843 C2.40732703,259.325366 1.20779981,260.992302 2.27373675e-13,262.64862 C67.7691512,252.631078 62.2761438,244.598995 75.6694856,233.827616 C90.6015313,221.851159 117.255853,204.995995 126.843798,202.739791 C136.440016,200.494206 83.1479173,170.64862 83.1479173,170.64862" id="Fill-223" fill="#797E4B"></path>
                            <g id="Group-6" transform="translate(15.394245, 0.000000)">
                                <path d="M297.11683,160.425919 C372.390707,101.615342 407.179248,41.4437833 367.317885,13.7688129 C327.205311,-14.0225239 224.111946,1.83872511 125.272945,47.1255003 C24.0271889,93.5405238 -47.0004283,161.999395 37.4385644,210.934004 C110.062581,253.038411 226.599736,215.492532 297.11683,160.425919" id="Fill-224" fill="#2C2B2B"></path>
                                <path d="M99.3140506,207.461382 C99.3140506,207.461382 164.409131,189.983444 200.110201,164.928158 C241.370827,136.017821 344.448419,52.4065919 335.431661,27.9231817 C335.431661,27.9231817 353.99466,45.0692279 325.169063,80.1578609 C296.31232,115.256706 200.265931,227.911029 99.3140506,207.461382" id="Fill-225" fill="#1A1A19"></path>
                                <path d="M169.068308,62.2706863 C169.068308,62.2706863 237.749506,14.4080008 253.92287,29.7907239 C270.111571,45.1468242 190.049969,73.2233555 169.068308,62.2706863" id="Fill-226" fill="#C4BEBD"></path>
                            </g>
                        </g>
                        <g id="Group-7-Copy" stroke-width="1" fill="none" transform="translate(413.211244, 2370.733865)">
                            <path d="M83.1479173,170.64862 C83.1479173,170.64862 74.6271378,193.826462 39.4354912,221.155718 C26.9190452,230.902515 15.1140429,239.359295 5.04628689,246.260622 C6.55190036,249.971413 6.29544972,253.9848 3.61512684,257.65843 C2.40732703,259.325366 1.20779981,260.992302 2.27373675e-13,262.64862 C67.7691512,252.631078 62.2761438,244.598995 75.6694856,233.827616 C90.6015313,221.851159 117.255853,204.995995 126.843798,202.739791 C136.440016,200.494206 83.1479173,170.64862 83.1479173,170.64862" id="Fill-223" fill="#797E4B"></path>
                            <g id="Group-6" transform="translate(15.394245, 0.000000)">
                                <path d="M297.11683,160.425919 C372.390707,101.615342 407.179248,41.4437833 367.317885,13.7688129 C327.205311,-14.0225239 224.111946,1.83872511 125.272945,47.1255003 C24.0271889,93.5405238 -47.0004283,161.999395 37.4385644,210.934004 C110.062581,253.038411 226.599736,215.492532 297.11683,160.425919" id="Fill-224" fill="#2C2B2B"></path>
                                <path d="M99.3140506,207.461382 C99.3140506,207.461382 164.409131,189.983444 200.110201,164.928158 C241.370827,136.017821 344.448419,52.4065919 335.431661,27.9231817 C335.431661,27.9231817 353.99466,45.0692279 325.169063,80.1578609 C296.31232,115.256706 200.265931,227.911029 99.3140506,207.461382" id="Fill-225" fill="#1A1A19"></path>
                                <path d="M169.068308,62.2706863 C169.068308,62.2706863 237.749506,14.4080008 253.92287,29.7907239 C270.111571,45.1468242 190.049969,73.2233555 169.068308,62.2706863" id="Fill-226" fill="#C4BEBD"></path>
                            </g>
                        </g>
                        <path d="M461.621804,916.93071 C461.621804,916.93071 356.773321,875.794436 318.88185,839.60956 C280.998491,803.398922 110.888419,600.922307 54.2499576,499.349097 C54.2499576,499.349097 300.597248,789.647329 341.895788,827.733418 C383.178104,865.819508 484.635742,905.064873 494.775827,908.790014 C504.915913,912.520308 481.910087,924.401601 461.621804,916.93071" id="Fill-228" fill="#797E4B"></path>
                        <path d="M1026.23357,837.171174 C1026.23357,837.171174 1046.99806,857.075379 1051.87375,891.509447 C1053.6582,903.763361 1054.43327,914.806884 1054.75771,924.024476 C1060.31834,925.95386 1064.86959,928.876385 1067.13169,932.61101 C1068.16812,934.302453 1069.18651,935.988724 1070.22294,937.674995 C1111.25625,901.130502 1097.45831,897.913139 1095.17819,884.54194 C1092.65472,869.675858 1093.53793,846.285313 1098.33251,840.528198 C1103.17216,834.771082 1026.23357,837.171174 1026.23357,837.171174" id="Fill-229" fill="#797E4B"></path>
                        <path d="M1165.05894,729.343658 C1153.40598,652.598492 1111.45853,592.904351 1052.41364,590.364837 C993.103359,587.846053 937.339633,645.472303 917.242496,722.803113 C896.68696,802.035967 922.027528,883.979365 1036.34558,882.258714 C1134.67599,880.771284 1175.9479,801.237834 1165.05894,729.343658" id="Fill-230" fill="#2C2B2B"></path>
                        <path d="M1093.12598,848.148241 C1093.12598,848.148241 1124.83526,805.787182 1123.65562,771.459588 C1122.30873,731.808737 1105.33608,624.591894 1068.58254,611.148241 C1068.58254,611.148241 1104.23567,614.947645 1123.06581,653.340551 C1141.87833,691.753911 1199.49555,816.597331 1093.12598,848.148241" id="Fill-231" fill="#1A1A19"></path>
                        <path d="M1182.91489,772.630557 C1182.91489,772.630557 1203.58269,696.517981 1242.1826,661.111937 C1280.81498,625.700812 1512.57679,451.94846 1639.62772,381.441291 C1639.62772,381.441291 1308.27733,631.992283 1268.16752,670.07144 C1228.07395,708.150597 1208.8917,781.600224 1207.25191,788.867432 C1205.62025,796.129559 1179.6272,787.175138 1182.91489,772.630557" id="Fill-234" fill="#797E4B"></path>
                    </g>
                </g>
            </g>
        </g>
    </g>
</svg>