<?xml version="1.0" encoding="UTF-8"?>
<svg width="330px" height="481px" viewBox="0 0 330 481" version="1.1" xmlns="http://www.w3.org/2000/svg" xmlns:xlink="http://www.w3.org/1999/xlink">
    <!-- Generator: Sketch 63.1 (92452) - https://sketch.com -->
    <title>Group 20</title>
    <desc>Created with Sketch.</desc>
    <defs>
        <ellipse id="path-1" cx="215" cy="277.5" rx="157" ry="244.5"></ellipse>
    </defs>
    <g id="Page-1" stroke="none" stroke-width="1" fill="none" fill-rule="evenodd">
        <g id="Desktop-HD-Copy-3" transform="translate(-207.000000, -3332.000000)">
            <g id="Group-20" transform="translate(157.000000, 3295.000000)">
                <mask id="mask-2" fill="white">
                    <use xlink:href="#path-1"></use>
                </mask>
                <use id="Mask" fill="#FFF9E8" transform="translate(215.000000, 277.500000) scale(-1, 1) rotate(15.000000) translate(-215.000000, -277.500000) " xlink:href="#path-1"></use>
                <g id="Group-19" mask="url(#mask-2)" fill="#7C7644" fill-rule="nonzero">
                    <g transform="translate(125.000000, 217.000000)">
                        <path d="M18.816,112.696 C19.296,112.696 19.536,112.456 19.536,111.976 L19.536,111.976 L19.464,106.792 C19.464,106.6 19.56,106.504 19.752,106.504 C24.024,106.072 27.348,104.68 29.724,102.328 C32.1,99.976 33.288,96.976 33.288,93.328 C33.288,90.736 32.676,88.54 31.452,86.74 C30.228,84.94 28.596,83.416 26.556,82.168 C24.516,80.92 21.84,79.576 18.528,78.136 C15.264,76.792 12.852,75.7 11.292,74.86 C9.732,74.02 8.532,73.036 7.692,71.908 C6.852,70.78 6.432,69.352 6.432,67.624 C6.432,64.984 7.296,62.968 9.024,61.576 C10.752,60.184 13.224,59.488 16.44,59.488 C20.088,59.488 22.944,60.376 25.008,62.152 C27.072,63.928 28.104,66.208 28.104,68.992 L28.104,68.992 L28.104,70.288 C28.104,70.768 28.344,71.008 28.824,71.008 L28.824,71.008 L32.208,71.008 C32.688,71.008 32.928,70.768 32.928,70.288 L32.928,70.288 L32.928,68.704 C32.928,64.96 31.728,61.888 29.328,59.488 C26.928,57.088 23.616,55.648 19.392,55.168 C19.2,55.168 19.104,55.072 19.104,54.88 L19.104,54.88 L19.176,49.192 C19.176,48.712 18.936,48.472 18.456,48.472 L18.456,48.472 L15.36,48.472 C14.88,48.472 14.64,48.712 14.64,49.192 L14.64,49.192 L14.712,54.808 C14.712,55 14.616,55.096 14.424,55.096 C10.44,55.48 7.32,56.764 5.064,58.948 C2.808,61.132 1.68,64.072 1.68,67.768 C1.68,70.36 2.268,72.508 3.444,74.212 C4.62,75.916 6.132,77.308 7.98,78.388 C9.828,79.468 12.48,80.728 15.936,82.168 C19.152,83.56 21.624,84.784 23.352,85.84 C25.08,86.896 26.364,88.024 27.204,89.224 C28.044,90.424 28.464,91.864 28.464,93.544 C28.464,96.136 27.552,98.212 25.728,99.772 C23.904,101.332 21.264,102.112 17.808,102.112 C13.968,102.112 10.956,101.26 8.772,99.556 C6.588,97.852 5.496,95.608 5.496,92.824 L5.496,92.824 L5.496,90.88 C5.496,90.4 5.256,90.16 4.776,90.16 L4.776,90.16 L1.536,90.16 C1.056,90.16 0.816,90.4 0.816,90.88 L0.816,90.88 L0.816,93.112 C0.816,96.808 2.04,99.844 4.488,102.22 C6.936,104.596 10.344,106.024 14.712,106.504 C14.904,106.504 15,106.6 15,106.792 L15,106.792 L14.928,111.976 C14.928,112.456 15.168,112.696 15.648,112.696 L15.648,112.696 L18.816,112.696 Z M55.9002353,106 C56.3802353,106 56.6202353,105.76 56.6202353,105.28 L56.6202353,105.28 L56.6202353,56.32 C56.6202353,55.84 56.3802353,55.6 55.9002353,55.6 L55.9002353,55.6 L52.0122353,55.6 C51.6762353,55.6 51.3642353,55.672 51.0762353,55.816 L51.0762353,55.816 L42.7962353,60.208 C42.4602353,60.448 42.2922353,60.688 42.2922353,60.928 L42.2922353,60.928 L42.2922353,61.072 L42.6522353,63.808 C42.7482353,64.192 42.9402353,64.384 43.2282353,64.384 L43.2282353,64.384 L43.5162353,64.312 L51.1482353,61.216 C51.2442353,61.168 51.3282353,61.168 51.4002353,61.216 C51.4722353,61.264 51.5082353,61.336 51.5082353,61.432 L51.5082353,61.432 L51.5082353,105.28 C51.5082353,105.76 51.7482353,106 52.2282353,106 L52.2282353,106 L55.9002353,106 Z M67.4604706,106 C67.6764706,106 67.8204706,105.904 67.8924706,105.712 L67.8924706,105.712 L75.8484706,81.196 C75.9204706,80.932 75.8244706,80.8 75.5604706,80.8 L75.5604706,80.8 L73.7604706,80.8 C73.5444706,80.8 73.4004706,80.896 73.3284706,81.088 L73.3284706,81.088 L65.3724706,105.604 C65.3004706,105.868 65.3964706,106 65.6604706,106 L65.6604706,106 L67.4604706,106 Z M83.6625882,106 C83.9025882,106 84.0225882,105.88 84.0225882,105.64 L84.0225882,105.64 L84.0225882,94.012 C84.0225882,92.716 84.4005882,91.684 85.1565882,90.916 C85.9125882,90.148 86.9265882,89.764 88.1985882,89.764 C89.4465882,89.764 90.4425882,90.154 91.1865882,90.934 C91.9305882,91.714 92.3025882,92.764 92.3025882,94.084 L92.3025882,94.084 L92.3025882,105.64 C92.3025882,105.88 92.4225882,106 92.6625882,106 L92.6625882,106 L94.4985882,106 C94.7385882,106 94.8585882,105.88 94.8585882,105.64 L94.8585882,105.64 L94.8585882,94.012 C94.8585882,92.716 95.2485882,91.684 96.0285882,90.916 C96.8085882,90.148 97.8345882,89.764 99.1065882,89.764 C100.330588,89.764 101.320588,90.154 102.076588,90.934 C102.832588,91.714 103.210588,92.764 103.210588,94.084 L103.210588,94.084 L103.210588,105.64 C103.210588,105.88 103.330588,106 103.570588,106 L103.570588,106 L105.370588,106 C105.610588,106 105.730588,105.88 105.730588,105.64 L105.730588,105.64 L105.730588,93.58 C105.730588,91.708 105.208588,90.232 104.164588,89.152 C103.120588,88.072 101.698588,87.532 99.8985882,87.532 C98.6745882,87.532 97.5825882,87.778 96.6225882,88.27 C95.6625882,88.762 94.9185882,89.5 94.3905882,90.484 C94.3185882,90.604 94.2585882,90.604 94.2105882,90.484 C93.7545882,89.524 93.0825882,88.792 92.1945882,88.288 C91.3065882,87.784 90.2385882,87.532 88.9905882,87.532 C87.9825882,87.532 87.0645882,87.706 86.2365882,88.054 C85.4085882,88.402 84.7305882,88.924 84.2025882,89.62 C84.1545882,89.668 84.1125882,89.686 84.0765882,89.674 C84.0405882,89.662 84.0225882,89.632 84.0225882,89.584 L84.0225882,89.584 L84.0225882,88.144 C84.0225882,87.904 83.9025882,87.784 83.6625882,87.784 L83.6625882,87.784 L81.8265882,87.784 C81.5865882,87.784 81.4665882,87.904 81.4665882,88.144 L81.4665882,88.144 L81.4665882,105.64 C81.4665882,105.88 81.5865882,106 81.8265882,106 L81.8265882,106 L83.6625882,106 Z M118.368706,106.288 C120.096706,106.288 121.578706,105.844 122.814706,104.956 C124.050706,104.068 124.896706,102.844 125.352706,101.284 C125.688706,100.276 125.856706,98.8 125.856706,96.856 C125.856706,94.936 125.688706,93.46 125.352706,92.428 C124.896706,90.916 124.050706,89.716 122.814706,88.828 C121.578706,87.94 120.108706,87.496 118.404706,87.496 C116.628706,87.496 115.116706,87.94 113.868706,88.828 C112.620706,89.716 111.768706,90.928 111.312706,92.464 C110.976706,93.544 110.808706,95.008 110.808706,96.856 C110.808706,98.704 110.976706,100.18 111.312706,101.284 C111.792706,102.844 112.656706,104.068 113.904706,104.956 C115.152706,105.844 116.640706,106.288 118.368706,106.288 Z M118.368706,104.056 C117.168706,104.056 116.154706,103.738 115.326706,103.102 C114.498706,102.466 113.952706,101.608 113.688706,100.528 C113.496706,99.688 113.400706,98.476 113.400706,96.892 C113.400706,95.308 113.496706,94.096 113.688706,93.256 C113.976706,92.176 114.528706,91.318 115.344706,90.682 C116.160706,90.046 117.156706,89.728 118.332706,89.728 C119.508706,89.728 120.510706,90.046 121.338706,90.682 C122.166706,91.318 122.724706,92.176 123.012706,93.256 C123.204706,94.096 123.300706,95.308 123.300706,96.892 C123.300706,98.452 123.192706,99.664 122.976706,100.528 C122.688706,101.608 122.136706,102.466 121.320706,103.102 C120.504706,103.738 119.520706,104.056 118.368706,104.056 Z M133.670824,106 C133.910824,106 134.030824,105.88 134.030824,105.64 L134.030824,105.64 L134.030824,94.192 C134.030824,92.872 134.438824,91.804 135.254824,90.988 C136.070824,90.172 137.138824,89.764 138.458824,89.764 C139.730824,89.764 140.768824,90.184 141.572824,91.024 C142.376824,91.864 142.778824,92.944 142.778824,94.264 L142.778824,94.264 L142.778824,105.64 C142.778824,105.88 142.898824,106 143.138824,106 L143.138824,106 L144.974824,106 C145.214824,106 145.334824,105.88 145.334824,105.64 L145.334824,105.64 L145.334824,93.76 C145.334824,91.864 144.764824,90.352 143.624824,89.224 C142.484824,88.096 140.954824,87.532 139.034824,87.532 C136.850824,87.532 135.230824,88.276 134.174824,89.764 C134.150824,89.812 134.120824,89.824 134.084824,89.8 C134.048824,89.776 134.030824,89.74 134.030824,89.692 L134.030824,89.692 L134.030824,88.144 C134.030824,87.904 133.910824,87.784 133.670824,87.784 L133.670824,87.784 L131.834824,87.784 C131.594824,87.784 131.474824,87.904 131.474824,88.144 L131.474824,88.144 L131.474824,105.64 C131.474824,105.88 131.594824,106 131.834824,106 L131.834824,106 L133.670824,106 Z M157.684941,106.036 C158.284941,106.036 158.728941,106.024 159.016941,106 C159.256941,106 159.376941,105.88 159.376941,105.64 L159.376941,105.64 L159.376941,104.164 C159.376941,103.924 159.256941,103.804 159.016941,103.804 L159.016941,103.804 L158.116941,103.804 C157.012941,103.804 156.202941,103.57 155.686941,103.102 C155.170941,102.634 154.912941,101.824 154.912941,100.672 L154.912941,100.672 L154.912941,90.052 C154.912941,89.956 154.960941,89.908 155.056941,89.908 L155.056941,89.908 L159.124941,89.908 C159.364941,89.908 159.484941,89.788 159.484941,89.548 L159.484941,89.548 L159.484941,88.144 C159.484941,87.904 159.364941,87.784 159.124941,87.784 L159.124941,87.784 L155.056941,87.784 C154.960941,87.784 154.912941,87.736 154.912941,87.64 L154.912941,87.64 L154.912941,83.464 C154.912941,83.224 154.792941,83.104 154.552941,83.104 L154.552941,83.104 L152.788941,83.104 C152.548941,83.104 152.428941,83.224 152.428941,83.464 L152.428941,83.464 L152.428941,87.64 C152.428941,87.736 152.380941,87.784 152.284941,87.784 L152.284941,87.784 L150.088941,87.784 C149.848941,87.784 149.728941,87.904 149.728941,88.144 L149.728941,88.144 L149.728941,89.548 C149.728941,89.788 149.848941,89.908 150.088941,89.908 L150.088941,89.908 L152.284941,89.908 C152.380941,89.908 152.428941,89.956 152.428941,90.052 L152.428941,90.052 L152.428941,101.464 C152.428941,103.216 152.872941,104.416 153.760941,105.064 C154.648941,105.712 155.956941,106.036 157.684941,106.036 Z M167.047059,106 C167.287059,106 167.407059,105.88 167.407059,105.64 L167.407059,105.64 L167.407059,94.192 C167.407059,92.872 167.815059,91.804 168.631059,90.988 C169.447059,90.172 170.515059,89.764 171.835059,89.764 C173.107059,89.764 174.145059,90.184 174.949059,91.024 C175.753059,91.864 176.155059,92.944 176.155059,94.264 L176.155059,94.264 L176.155059,105.64 C176.155059,105.88 176.275059,106 176.515059,106 L176.515059,106 L178.351059,106 C178.591059,106 178.711059,105.88 178.711059,105.64 L178.711059,105.64 L178.711059,93.76 C178.711059,91.864 178.141059,90.352 177.001059,89.224 C175.861059,88.096 174.331059,87.532 172.411059,87.532 C170.227059,87.532 168.607059,88.276 167.551059,89.764 C167.527059,89.812 167.497059,89.824 167.461059,89.8 C167.425059,89.776 167.407059,89.74 167.407059,89.692 L167.407059,89.692 L167.407059,81.16 C167.407059,80.92 167.287059,80.8 167.047059,80.8 L167.047059,80.8 L165.211059,80.8 C164.971059,80.8 164.851059,80.92 164.851059,81.16 L164.851059,81.16 L164.851059,105.64 C164.851059,105.88 164.971059,106 165.211059,106 L165.211059,106 L167.047059,106 Z" id="$1/month"></path>
                        <path d="M62.2988281,32.4042969 C64.4199219,32.4042969 66.2304688,31.6572266 67.7304688,30.1630859 C69.2304688,28.6689453 69.9804688,26.8554688 69.9804688,24.7226562 L69.9804688,24.7226562 L69.9804688,7.23242188 C69.9804688,5.11132812 69.2333984,3.30078125 67.7392578,1.80078125 C66.2451172,0.30078125 64.4316406,-0.44921875 62.2988281,-0.44921875 C60.2128906,-0.44921875 58.4199219,0.297851562 56.9199219,1.79199219 C55.4199219,3.28613281 54.6699219,5.09960938 54.6699219,7.23242188 L54.6699219,7.23242188 L54.6699219,24.7226562 C54.6699219,26.84375 55.4111328,28.6542969 56.8935547,30.1542969 C58.3759766,31.6542969 60.1777344,32.4042969 62.2988281,32.4042969 Z M62.1757812,27.4472656 C61.4140625,27.4472656 60.7607422,27.1777344 60.2158203,26.6386719 C59.6708984,26.0996094 59.3984375,25.4492188 59.3984375,24.6875 L59.3984375,24.6875 L59.3984375,7.12695312 C59.3984375,6.35351562 59.6708984,5.70019531 60.2158203,5.16699219 C60.7607422,4.63378906 61.4140625,4.3671875 62.1757812,4.3671875 C62.9492188,4.3671875 63.6025391,4.63378906 64.1357422,5.16699219 C64.6689453,5.70019531 64.9355469,6.35351562 64.9355469,7.12695312 L64.9355469,7.12695312 L64.9355469,24.6875 C64.9355469,25.4492188 64.6689453,26.0996094 64.1357422,26.6386719 C63.6025391,27.1777344 62.9492188,27.4472656 62.1757812,27.4472656 Z M79.4673208,32 L79.4673208,11.46875 L86.1294301,32 L91.314977,32 L91.314977,-0.0625 L86.4809926,-0.0625 L86.4809926,21.4707031 L80.0825551,-0.0625 L74.6509145,-0.0625 L74.6509145,32 L79.4673208,32 Z M109.239329,32 L109.239329,27.2011719 L100.88972,27.2011719 L100.88972,-0.0625 L96.0733134,-0.0625 L96.0733134,32 L109.239329,32 Z M118.304306,32 L118.304306,18.5703125 L124.808212,-0.0625 L119.464462,-0.0625 L115.913681,11.4511719 L112.327744,-0.0625 L107.01915,-0.0625 L113.4879,18.5703125 L113.4879,32 L118.304306,32 Z" id="Only"></path>
                    </g>
                </g>
            </g>
        </g>
    </g>
</svg>