<?xml version="1.0" encoding="UTF-8"?>
<svg width="251px" height="190px" viewBox="0 0 251 190" version="1.1" xmlns="http://www.w3.org/2000/svg" xmlns:xlink="http://www.w3.org/1999/xlink">
    <!-- Generator: Sketch 63.1 (92452) - https://sketch.com -->
    <title>Grocery Shopping Illustration</title>
    <desc>Created with Sketch.</desc>
    <defs>
        <filter x="-4.4%" y="-5.1%" width="108.8%" height="110.2%" filterUnits="objectBoundingBox" id="filter-1">
            <feOffset dx="-7" dy="7" in="SourceAlpha" result="shadowOffsetOuter1"></feOffset>
            <feColorMatrix values="0 0 0 0 1   0 0 0 0 0.976470588   0 0 0 0 0.909803922  0 0 0 1 0" type="matrix" in="shadowOffsetOuter1" result="shadowMatrixOuter1"></feColorMatrix>
            <feMerge>
                <feMergeNode in="shadowMatrixOuter1"></feMergeNode>
                <feMergeNode in="SourceGraphic"></feMergeNode>
            </feMerge>
        </filter>
        <ellipse id="path-2" cx="154.196662" cy="132.248578" rx="135.099162" ry="72.7487189"></ellipse>
        <path d="M254.289458,195.783083 L36.6673309,195.783083 C18.2557507,192.530028 3.13469204,174.257986 0.429790782,154.811781 C-2.2752971,135.365762 8.05834389,114.68093 24.8110399,106.007923 C36.5223255,99.9448337 51.469639,98.7276941 59.2680183,87.7112171 C67.5452699,76.018157 64.144828,57.6375559 74.043826,47.4361177 C80.9863561,40.2814523 91.9834388,39.9804373 101.554728,41.7368253 C111.125831,43.4934002 120.720449,46.8581913 130.338394,45.4114134 C152.943933,42.0111208 164.927874,14.7871058 185.522933,4.40404964 C197.746683,-1.75863026 212.805223,-1.25133307 224.629602,5.72171439 C236.453981,12.6949487 244.728806,25.9470835 246.122873,40.1398201 C247.223944,51.3623925 244.665355,64.1431052 251.467731,72.8609561 C259.098711,82.6389926 275.831252,83.0642628 279.724189,95.0372239 C282.51419,103.619048 276.546014,113.088035 278.516744,121.918183 C280.164618,129.298002 286.752379,134.03726 291.309692,139.908081 C300.209701,151.377855 301.053233,169.011244 293.293485,181.363884 C285.533736,193.718392 268.357035,195.783083 254.289458,195.783083" id="path-4"></path>
    </defs>
    <g id="Page-1" stroke="none" stroke-width="1" fill="none" fill-rule="evenodd">
        <g id="Desktop-HD-Copy-3" transform="translate(-188.000000, -4000.000000)">
            <g id="Group-17" transform="translate(163.000000, 3961.000000)">
                <g id="Group-14">
                    <g id="Grocery-Shopping-Illustration" filter="url(#filter-1)">
                        <mask id="mask-3" fill="white">
                            <use xlink:href="#path-2"></use>
                        </mask>
                        <g id="Mask" transform="translate(154.196662, 132.248578) rotate(-31.000000) translate(-154.196662, -132.248578) "></g>
                        <g mask="url(#mask-3)">
                            <g transform="translate(17.633588, 17.588496)">
                                <path d="M266.674025,195.818584 L31.9213949,195.818584 C31.172236,195.818584 30.5648855,196.430276 30.5648855,197.186892 C30.5648855,197.941626 31.172236,198.5552 31.9213949,198.5552 L55.5382797,198.5552 C56.2874386,198.5552 56.8947891,199.166892 56.8947891,199.923507 C56.8947891,200.678241 56.2874386,201.291815 55.5382797,201.291815 L47.2120735,201.291815 C46.4629146,201.291815 45.8557507,201.903507 45.8557507,202.658241 C45.8557507,203.414857 46.4629146,204.026549 47.2120735,204.026549 L234.619726,204.026549 C235.369818,204.026549 235.976236,203.414857 235.976236,202.658241 C235.976236,201.903507 235.369818,201.291815 234.619726,201.291815 L203.414412,201.291815 C202.66432,201.291815 202.057903,200.678241 202.057903,199.923507 C202.057903,199.166892 202.66432,198.5552 203.414412,198.5552 L266.674025,198.5552 C267.424117,198.5552 268.030534,197.941626 268.030534,197.186892 C268.030534,196.430276 267.424117,195.818584 266.674025,195.818584" id="Fill-3" fill="#7E9DA5"></path>
                                <path d="M244.355093,201.681416 L239.980784,201.681416 C239.241906,201.681416 238.641221,202.207216 238.641221,202.853982 C238.641221,203.502362 239.241906,204.026549 239.980784,204.026549 L244.355093,204.026549 C245.095815,204.026549 245.694656,203.502362 245.694656,202.853982 C245.694656,202.207216 245.095815,201.681416 244.355093,201.681416" id="Fill-4" fill="#7A9BA3"></path>
                                <path d="M42.0201699,201.681416 L39.0941309,201.681416 C38.2791766,201.681416 37.6183206,202.207216 37.6183206,202.853982 C37.6183206,203.502362 38.2791766,204.026549 39.0941309,204.026549 L42.0201699,204.026549 C42.8353272,204.026549 43.4961832,203.502362 43.4961832,202.853982 C43.4961832,202.207216 42.8353272,201.681416 42.0201699,201.681416" id="Fill-5" fill="#7A9BA3"></path>
                                <g id="Group-93" stroke-width="1" fill="none">
                                    <mask id="mask-5" fill="white">
                                        <use xlink:href="#path-4"></use>
                                    </mask>
                                    <g id="Clip-7"></g>
                                    <path d="M254.289458,195.783083 L36.6673309,195.783083 C18.2557507,192.530028 3.13469204,174.257986 0.429790782,154.811781 C-2.2752971,135.365762 8.05834389,114.68093 24.8110399,106.007923 C36.5223255,99.9448337 51.469639,98.7276941 59.2680183,87.7112171 C67.5452699,76.018157 64.144828,57.6375559 74.043826,47.4361177 C80.9863561,40.2814523 91.9834388,39.9804373 101.554728,41.7368253 C111.125831,43.4934002 120.720449,46.8581913 130.338394,45.4114134 C152.943933,42.0111208 164.927874,14.7871058 185.522933,4.40404964 C197.746683,-1.75863026 212.805223,-1.25133307 224.629602,5.72171439 C236.453981,12.6949487 244.728806,25.9470835 246.122873,40.1398201 C247.223944,51.3623925 244.665355,64.1431052 251.467731,72.8609561 C259.098711,82.6389926 275.831252,83.0642628 279.724189,95.0372239 C282.51419,103.619048 276.546014,113.088035 278.516744,121.918183 C280.164618,129.298002 286.752379,134.03726 291.309692,139.908081 C300.209701,151.377855 301.053233,169.011244 293.293485,181.363884 C285.533736,193.718392 268.357035,195.783083 254.289458,195.783083" id="Fill-6" fill="#C6DDE6" mask="url(#mask-5)"></path>
                                    <polyline id="Fill-8" fill="#7E9DA5" mask="url(#mask-5)" points="303.242311 153.180956 292.604849 24.510956 140.458726 24.510956 140.458726 187.845703 295.512422 187.845703 303.242311 153.180956"></polyline>
                                    <polygon id="Fill-9" fill="#92B2BB" mask="url(#mask-5)" points="95.5663972 187.845703 140.458726 187.845703 140.458726 24.510956 95.5663972 24.510956"></polygon>
                                    <polygon id="Fill-10" fill="#ADCBD6" mask="url(#mask-5)" points="87.7504755 195.783083 95.5663972 195.783083 95.5663972 16.6854998 87.7504755 16.6854998"></polygon>
                                    <polygon id="Fill-11" fill="#ADCBD6" mask="url(#mask-5)" points="87.7504755 24.510956 282.075628 24.510956 282.075628 16.6854998 87.7504755 16.6854998"></polygon>
                                    <polygon id="Fill-12" fill="#ADCBD6" mask="url(#mask-5)" points="87.7504755 81.5646063 282.075628 81.5646063 282.075628 73.7391501 87.7504755 73.7391501"></polygon>
                                    <polygon id="Fill-13" fill="#ADCBD6" mask="url(#mask-5)" points="87.7504755 138.618443 295.512422 138.618443 295.512422 130.7928 87.7504755 130.7928"></polygon>
                                    <polygon id="Fill-14" fill="#ADCBD6" mask="url(#mask-5)" points="87.7504755 195.672841 295.512422 195.672841 295.512422 187.845703 87.7504755 187.845703"></polygon>
                                    <polygon id="Fill-15" fill="#92B2BB" mask="url(#mask-5)" points="129.732805 73.7391501 147.334445 73.7391501 147.334445 48.5960813 129.732805 48.5960813"></polygon>
                                    <polygon id="Fill-16" fill="#92B2BB" mask="url(#mask-5)" points="154.122265 73.7391501 171.723906 73.7391501 171.723906 48.5960813 154.122265 48.5960813"></polygon>
                                    <polygon id="Fill-17" fill="#92B2BB" mask="url(#mask-5)" points="178.511539 73.7391501 196.113739 73.7391501 196.113739 48.5960813 178.511539 48.5960813"></polygon>
                                    <polygon id="Fill-18" fill="#92B2BB" mask="url(#mask-5)" points="202.901186 73.7391501 220.503386 73.7391501 220.503386 48.5960813 202.901186 48.5960813"></polygon>
                                    <polygon id="Fill-19" fill="#92B2BB" mask="url(#mask-5)" points="227.290834 73.7391501 244.893034 73.7391501 244.893034 48.5960813 227.290834 48.5960813"></polygon>
                                    <polygon id="Fill-20" fill="#92B2BB" mask="url(#mask-5)" points="251.680481 73.7391501 269.280815 73.7391501 269.280815 48.5960813 251.680481 48.5960813"></polygon>
                                    <polygon id="Fill-22" fill="#C6DDE6" mask="url(#mask-5)" points="117.096433 73.7391501 134.697887 73.7391501 134.697887 44.371968 117.096433 44.371968"></polygon>
                                    <polygon id="Fill-23" fill="#C6DDE6" mask="url(#mask-5)" points="141.485894 73.7391501 159.087347 73.7391501 159.087347 44.371968 141.485894 44.371968"></polygon>
                                    <polygon id="Fill-24" fill="#C6DDE6" mask="url(#mask-5)" points="165.875354 73.7391501 183.477554 73.7391501 183.477554 44.371968 165.875354 44.371968"></polygon>
                                    <polygon id="Fill-25" fill="#C6DDE6" mask="url(#mask-5)" points="190.265002 73.7391501 207.865335 73.7391501 207.865335 44.371968 190.265002 44.371968"></polygon>
                                    <polygon id="Fill-26" fill="#C6DDE6" mask="url(#mask-5)" points="214.654649 73.7391501 232.254982 73.7391501 232.254982 44.371968 214.654649 44.371968"></polygon>
                                    <polygon id="Fill-27" fill="#C6DDE6" mask="url(#mask-5)" points="239.044296 73.7391501 256.64463 73.7391501 256.64463 44.371968 239.044296 44.371968"></polygon>
                                    <polygon id="Fill-29" fill="#C6DDE6" mask="url(#mask-5)" points="117.801305 130.639584 135.343786 130.639584 135.343786 103.733213 117.801305 103.733213"></polygon>
                                    <polyline id="Fill-30" fill="#92B2BB" mask="url(#mask-5)" points="145.573665 130.639584 135.343786 130.639584 135.343786 103.733213 140.458726 95.6052472 145.573665 103.733213 145.573665 130.639584"></polyline>
                                    <polyline id="Fill-31" fill="#C6DDE6" mask="url(#mask-5)" points="117.801305 103.733213 122.916245 95.6052472 140.458726 95.6052472 135.343786 103.733213 117.801305 103.733213"></polyline>
                                    <polygon id="Fill-32" fill="#C6DDE6" mask="url(#mask-5)" points="122.916245 95.6052472 140.458726 95.6052472 140.458726 90.7471526 122.916245 90.7471526"></polygon>
                                    <polygon id="Fill-33" fill="#C6DDE6" mask="url(#mask-5)" points="141.485894 130.639584 159.028375 130.639584 159.028375 103.733213 141.485894 103.733213"></polygon>
                                    <polyline id="Fill-34" fill="#92B2BB" mask="url(#mask-5)" points="169.258254 130.639584 159.028375 130.639584 159.028375 103.733213 164.143314 95.6052472 169.258254 103.733213 169.258254 130.639584"></polyline>
                                    <polyline id="Fill-35" fill="#C6DDE6" mask="url(#mask-5)" points="141.485894 103.733213 146.600833 95.6052472 164.143314 95.6052472 159.028375 103.733213 141.485894 103.733213"></polyline>
                                    <polygon id="Fill-36" fill="#C6DDE6" mask="url(#mask-5)" points="146.600833 95.6052472 164.143314 95.6052472 164.143314 90.7471526 146.600833 90.7471526"></polygon>
                                    <polygon id="Fill-37" fill="#C6DDE6" mask="url(#mask-5)" points="165.170483 130.639584 182.712404 130.639584 182.712404 103.733213 165.170483 103.733213"></polygon>
                                    <polyline id="Fill-38" fill="#92B2BB" mask="url(#mask-5)" points="192.943029 130.639584 182.712404 130.639584 182.712404 103.733213 187.827716 95.6052472 192.943029 103.733213 192.943029 130.639584"></polyline>
                                    <polyline id="Fill-39" fill="#C6DDE6" mask="url(#mask-5)" points="165.170483 103.733213 170.285422 95.6052472 187.827716 95.6052472 182.712404 103.733213 165.170483 103.733213"></polyline>
                                    <polygon id="Fill-40" fill="#C6DDE6" mask="url(#mask-5)" points="170.285422 95.6052472 187.827716 95.6052472 187.827716 90.7471526 170.285422 90.7471526"></polygon>
                                    <polygon id="Fill-41" fill="#C6DDE6" mask="url(#mask-5)" points="188.854138 130.639584 206.396619 130.639584 206.396619 103.733213 188.854138 103.733213"></polygon>
                                    <polyline id="Fill-42" fill="#92B2BB" mask="url(#mask-5)" points="216.627245 130.639584 206.396619 130.639584 206.396619 103.733213 211.511932 95.6052472 216.627245 103.733213 216.627245 130.639584"></polyline>
                                    <polyline id="Fill-43" fill="#C6DDE6" mask="url(#mask-5)" points="188.854138 103.733213 193.969451 95.6052472 211.511932 95.6052472 206.396619 103.733213 188.854138 103.733213"></polyline>
                                    <polygon id="Fill-44" fill="#C6DDE6" mask="url(#mask-5)" points="193.969451 95.6052472 211.511932 95.6052472 211.511932 90.7471526 193.969451 90.7471526"></polygon>
                                    <polygon id="Fill-45" fill="#C6DDE6" mask="url(#mask-5)" points="212.54022 130.639584 230.082701 130.639584 230.082701 103.733213 212.54022 103.733213"></polygon>
                                    <polyline id="Fill-46" fill="#92B2BB" mask="url(#mask-5)" points="240.31146 130.639584 230.082701 130.639584 230.082701 103.733213 235.196147 95.6052472 240.31146 103.733213 240.31146 130.639584"></polyline>
                                    <polyline id="Fill-47" fill="#C6DDE6" mask="url(#mask-5)" points="212.54022 103.733213 217.653666 95.6052472 235.196147 95.6052472 230.082701 103.733213 212.54022 103.733213"></polyline>
                                    <polygon id="Fill-48" fill="#C6DDE6" mask="url(#mask-5)" points="217.653666 95.6052472 235.196147 95.6052472 235.196147 90.7471526 217.653666 90.7471526"></polygon>
                                    <polygon id="Fill-49" fill="#C6DDE6" mask="url(#mask-5)" points="236.224435 130.639584 253.766916 130.639584 253.766916 103.733213 236.224435 103.733213"></polygon>
                                    <polyline id="Fill-50" fill="#92B2BB" mask="url(#mask-5)" points="263.995676 130.639584 253.766916 130.639584 253.766916 103.733213 258.882229 95.6052472 263.995676 103.733213 263.995676 130.639584"></polyline>
                                    <polyline id="Fill-51" fill="#C6DDE6" mask="url(#mask-5)" points="236.224435 103.733213 241.339748 95.6052472 258.882229 95.6052472 253.766916 103.733213 236.224435 103.733213"></polyline>
                                    <polygon id="Fill-52" fill="#C6DDE6" mask="url(#mask-5)" points="241.339748 95.6052472 258.882229 95.6052472 258.882229 90.7471526 241.339748 90.7471526"></polygon>
                                    <polygon id="Fill-57" fill="#92B2BB" mask="url(#mask-5)" points="124.129662 148.873134 128.319702 148.873134 128.319702 145.245445 124.129662 145.245445"></polygon>
                                    <polygon id="Fill-58" fill="#C6DDE6" mask="url(#mask-5)" points="118.609192 187.845703 133.840172 187.845703 133.840172 175.166076 118.609192 175.166076"></polygon>
                                    <path d="M133.840172,162.523819 C133.840172,159.040939 131.506462,156.104968 128.319702,155.193515 L128.319702,148.873134 L124.129662,148.873134 L124.129662,155.193515 C120.942902,156.104968 118.609192,159.040939 118.609192,162.523819 L118.609192,163.549625 L133.840172,163.549625 L133.840172,162.523819" id="Fill-59" fill="#C6DDE6" mask="url(#mask-5)"></path>
                                    <polygon id="Fill-60" fill="#92B2BB" mask="url(#mask-5)" points="118.609192 175.166076 133.840172 175.166076 133.840172 163.549625 118.609192 163.549625"></polygon>
                                    <polygon id="Fill-61" fill="#92B2BB" mask="url(#mask-5)" points="143.454198 148.873134 147.644424 148.873134 147.644424 145.245445 143.454198 145.245445"></polygon>
                                    <polygon id="Fill-62" fill="#C6DDE6" mask="url(#mask-5)" points="137.933915 187.845703 153.164707 187.845703 153.164707 175.166076 137.933915 175.166076"></polygon>
                                    <path d="M153.164707,162.523819 C153.164707,159.040939 150.830997,156.104968 147.644424,155.193515 L147.644424,148.873134 L143.454198,148.873134 L143.454198,155.193515 C140.267438,156.104968 137.933915,159.040939 137.933915,162.523819 L137.933915,163.549625 L153.164707,163.549625 L153.164707,162.523819" id="Fill-63" fill="#C6DDE6" mask="url(#mask-5)"></path>
                                    <polygon id="Fill-64" fill="#92B2BB" mask="url(#mask-5)" points="137.933915 175.166076 153.164707 175.166076 153.164707 163.549625 137.933915 163.549625"></polygon>
                                    <polygon id="Fill-65" fill="#92B2BB" mask="url(#mask-5)" points="162.778733 148.873134 166.96896 148.873134 166.96896 145.245445 162.778733 145.245445"></polygon>
                                    <polygon id="Fill-66" fill="#C6DDE6" mask="url(#mask-5)" points="157.25845 187.845703 172.489243 187.845703 172.489243 175.166076 157.25845 175.166076"></polygon>
                                    <path d="M172.489243,162.523819 C172.489243,159.040939 170.155533,156.104968 166.96896,155.193515 L166.96896,148.873134 L162.778733,148.873134 L162.778733,155.193515 C159.59216,156.104968 157.25845,159.040939 157.25845,162.523819 L157.25845,163.549625 L172.489243,163.549625 L172.489243,162.523819" id="Fill-67" fill="#C6DDE6" mask="url(#mask-5)"></path>
                                    <polygon id="Fill-68" fill="#92B2BB" mask="url(#mask-5)" points="157.25845 175.166076 172.489243 175.166076 172.489243 163.549625 157.25845 163.549625"></polygon>
                                    <polygon id="Fill-69" fill="#92B2BB" mask="url(#mask-5)" points="182.104015 148.873134 186.293682 148.873134 186.293682 145.245445 182.104015 145.245445"></polygon>
                                    <polygon id="Fill-70" fill="#C6DDE6" mask="url(#mask-5)" points="176.582986 187.845703 191.813965 187.845703 191.813965 175.166076 176.582986 175.166076"></polygon>
                                    <path d="M191.813965,162.523819 C191.813965,159.040939 189.479322,156.104968 186.293682,155.193515 L186.293682,148.873134 L182.104015,148.873134 L182.104015,155.193515 C178.916509,156.104968 176.582986,159.040939 176.582986,162.523819 L176.582986,163.549625 L191.813965,163.549625 L191.813965,162.523819" id="Fill-71" fill="#C6DDE6" mask="url(#mask-5)"></path>
                                    <polygon id="Fill-72" fill="#92B2BB" mask="url(#mask-5)" points="176.582986 175.166076 191.813965 175.166076 191.813965 163.549625 176.582986 163.549625"></polygon>
                                    <polygon id="Fill-73" fill="#92B2BB" mask="url(#mask-5)" points="201.428738 148.873134 205.618405 148.873134 205.618405 145.245445 201.428738 145.245445"></polygon>
                                    <polygon id="Fill-74" fill="#C6DDE6" mask="url(#mask-5)" points="195.908455 187.845703 211.138688 187.845703 211.138688 175.166076 195.908455 175.166076"></polygon>
                                    <path d="M211.138688,162.523819 C211.138688,159.040939 208.804045,156.104968 205.618405,155.193515 L205.618405,148.873134 L201.428738,148.873134 L201.428738,155.193515 C198.241232,156.104968 195.908455,159.040939 195.908455,162.523819 L195.908455,163.549625 L211.138688,163.549625 L211.138688,162.523819" id="Fill-75" fill="#C6DDE6" mask="url(#mask-5)"></path>
                                    <polygon id="Fill-76" fill="#92B2BB" mask="url(#mask-5)" points="195.908455 175.166076 211.138688 175.166076 211.138688 163.549625 195.908455 163.549625"></polygon>
                                    <polygon id="Fill-77" fill="#92B2BB" mask="url(#mask-5)" points="220.751594 148.873134 224.943127 148.873134 224.943127 145.245445 220.751594 145.245445"></polygon>
                                    <polygon id="Fill-78" fill="#C6DDE6" mask="url(#mask-5)" points="215.231311 187.845703 230.46341 187.845703 230.46341 175.166076 215.231311 175.166076"></polygon>
                                    <path d="M230.46341,162.523819 C230.46341,159.040939 228.128767,156.104968 224.943127,155.193515 L224.943127,148.873134 L220.751594,148.873134 L220.751594,155.193515 C217.565954,156.104968 215.231311,159.040939 215.231311,162.523819 L215.231311,163.549625 L230.46341,163.549625 L230.46341,162.523819" id="Fill-79" fill="#C6DDE6" mask="url(#mask-5)"></path>
                                    <polygon id="Fill-80" fill="#92B2BB" mask="url(#mask-5)" points="215.231311 175.166076 230.46341 175.166076 230.46341 163.549625 215.231311 163.549625"></polygon>
                                    <polygon id="Fill-81" fill="#92B2BB" mask="url(#mask-5)" points="240.076316 148.873134 244.267849 148.873134 244.267849 145.245445 240.076316 145.245445"></polygon>
                                    <polygon id="Fill-82" fill="#C6DDE6" mask="url(#mask-5)" points="234.556033 187.845703 249.788132 187.845703 249.788132 175.166076 234.556033 175.166076"></polygon>
                                    <path d="M249.788132,162.523819 C249.788132,159.040939 247.453489,156.104968 244.267849,155.193515 L244.267849,148.873134 L240.076316,148.873134 L240.076316,155.193515 C236.890676,156.104968 234.556033,159.040939 234.556033,162.523819 L234.556033,163.549625 L249.788132,163.549625 L249.788132,162.523819" id="Fill-83" fill="#C6DDE6" mask="url(#mask-5)"></path>
                                    <polygon id="Fill-84" fill="#92B2BB" mask="url(#mask-5)" points="234.556033 175.166076 249.788132 175.166076 249.788132 163.549625 234.556033 163.549625"></polygon>
                                    <polygon id="Fill-86" fill="#C6DDE6" mask="url(#mask-5)" points="253.880756 187.845703 269.112855 187.845703 269.112855 175.166076 253.880756 175.166076"></polygon>
                                    <path d="M269.112855,162.523819 C269.112855,159.040939 266.778212,156.104968 263.592572,155.193515 L263.592572,148.873134 L259.401039,148.873134 L259.401039,155.193515 C256.215399,156.104968 253.880756,159.040939 253.880756,162.523819 L253.880756,163.549625 L269.112855,163.549625 L269.112855,162.523819" id="Fill-87" fill="#C6DDE6" mask="url(#mask-5)"></path>
                                    <polygon id="Fill-88" fill="#92B2BB" mask="url(#mask-5)" points="253.880756 175.166076 269.112855 175.166076 269.112855 163.549625 253.880756 163.549625"></polygon>
                                </g>
                                <polyline id="Fill-94" fill="#2C91C3" points="99.9239024 138.362832 90.519084 136.714948 95.2211357 106.70354 104.625954 108.351424 99.9239024 138.362832"></polyline>
                                <polyline id="Fill-95" fill="#64BCDE" points="106.79287 138.362832 101.099237 137.423433 105.985942 108.057186 109.526282 104.358407 111.679389 108.996585 106.79287 138.362832"></polyline>
                                <polyline id="Fill-96" fill="#3096C7" points="95.221374 107.268753 98.660002 103.185841 108.152672 104.96576 104.714224 109.048673 95.221374 107.268753"></polyline>
                                <polyline id="Fill-97" fill="#64BCDE" points="98.7480916 102.734768 108.80674 104.358407 109.328244 101.291781 99.2695959 99.6681416 98.7480916 102.734768"></polyline>
                                <polyline id="Fill-98" fill="#2C91C3" points="94.0458015 135.655527 84.4093668 137.190265 79.9389313 107.065902 89.575366 105.530973 94.0458015 135.655527"></polyline>
                                <polyline id="Fill-99" fill="#64BCDE" points="99.9236641 135.14527 94.0339314 136.017699 89.3435115 106.622127 91.622647 102.013274 95.2332442 105.749882 99.9236641 135.14527"></polyline>
                                <polyline id="Fill-100" fill="#3096C7" points="79.9389313 107.876106 82.101251 103.451083 91.6946565 102.013274 89.5321548 106.43812 79.9389313 107.876106"></polyline>
                                <polyline id="Fill-101" fill="#64BCDE" points="81.60012 103.185841 91.6946565 101.640722 91.2090403 98.4955752 81.1145038 100.040694 81.60012 103.185841"></polyline>
                                <polyline id="Fill-102" fill="#2C91C3" points="90.5194414 158.29646 81.1145038 156.648576 85.8166152 126.637168 95.221374 128.285052 90.5194414 158.29646"></polyline>
                                <polyline id="Fill-103" fill="#64BCDE" points="96.2125313 158.29646 90.519084 157.356882 95.4056036 127.990794 98.946129 124.292035 101.099237 128.930188 96.2125313 158.29646"></polyline>
                                <polyline id="Fill-104" fill="#3096C7" points="85.8167939 127.202443 89.2552414 123.119469 98.7480916 124.899531 95.3094637 128.982301 85.8167939 127.202443"></polyline>
                                <polyline id="Fill-105" fill="#64BCDE" points="89.3435115 122.66821 99.4021692 124.292035 99.9236641 121.225409 89.8650063 119.60177 89.3435115 122.66821"></polyline>
                                <path d="M118.807101,118.429204 C121.792584,111.308427 121.844523,103.037244 118.948565,95.880483 C116.052607,88.7239082 110.584037,82.8646641 103.450382,79.7345133 C109.265718,83.671627 113.713629,89.5401936 115.898488,96.158669 C118.083347,102.777331 117.992311,110.106187 115.643323,116.669659 C116.835666,117.372209 117.614758,117.726467 118.807101,118.429204" id="Fill-106" fill="#3F9D6C"></path>
                                <path d="M112.647209,119.60177 C117.906264,114.209373 121.000292,106.676001 121.08214,99.0647321 C121.163989,91.4536474 118.497414,84.0710979 113.355724,78.5619469 C117.036575,84.3180484 118.799028,91.3297118 118.287924,98.1852126 C117.77682,105.040713 114.995584,111.698985 110.503817,116.819571 C111.297065,117.904238 111.853961,118.517103 112.647209,119.60177" id="Fill-107" fill="#2C7F52"></path>
                                <path d="M115.116739,123.119469 C118.862867,116.342182 119.750183,108.141111 117.536029,100.762155 C115.321682,93.3833844 110.367834,87.0440135 103.450382,83.2522124 C108.949782,87.7178016 112.867562,93.9681396 114.415122,100.744683 C115.962682,107.521412 115.130594,114.78364 112.086469,121.06948 C113.224528,121.881186 113.97868,122.307763 115.116739,123.119469" id="Fill-108" fill="#2C7F52"></path>
                                <path d="M112.765631,127.809735 C116.511578,121.032634 117.39909,112.831563 115.184928,105.452606 C112.970575,98.0736499 108.016711,91.7342789 101.099237,87.9424779 C106.598655,92.4080671 110.516446,98.6584051 112.064012,105.434948 C113.611577,112.211678 112.779486,119.473906 109.735351,125.759746 C110.873414,126.571637 111.627568,126.998029 112.765631,127.809735" id="Fill-109" fill="#3F9D6C"></path>
                                <path d="M112.765631,132.5 C116.511578,125.722713 117.39909,117.521642 115.184928,110.142686 C112.970575,102.763915 108.016711,96.4245444 101.099237,92.6327434 C106.598655,97.0983326 110.516446,103.348671 112.064012,110.125214 C113.611577,116.901943 112.779486,124.164171 109.735351,130.450011 C110.873414,131.261717 111.627568,131.688294 112.765631,132.5" id="Fill-110" fill="#2C7F52"></path>
                                <path d="M115.075849,134.845133 C117.347333,127.401323 116.630297,119.071471 113.12077,112.136744 C109.61143,105.202018 103.695137,99.8118808 96.3969466,97.3230088 C102.475169,100.746362 107.389326,106.24054 110.150325,112.699544 C112.911324,119.158549 113.502394,126.543553 111.804651,133.367642 C113.041203,133.96418 113.839297,134.248595 115.075849,134.845133" id="Fill-111" fill="#3F9D6C"></path>
                                <path d="M122.954293,100.723533 C122.604139,99.8299346 122.249608,98.9125932 122.259755,97.9621215 C122.271095,96.890172 122.752756,95.8588991 123.421033,94.9831547 C124.089509,94.1074102 124.940026,93.3667637 125.784574,92.6327434 C125.220348,93.3825927 124.652342,94.138884 124.262199,94.978001 C123.872056,95.8173022 123.667534,96.7559942 123.862904,97.6514328 C124.040766,98.4660703 124.533568,99.1899675 125.060988,99.8626968 C125.588408,100.535426 126.164571,101.184964 126.549939,101.935734 C126.935308,102.686319 127.113966,103.571635 126.803403,104.351485 C125.818196,104.426029 124.871984,103.889502 124.255037,103.174991 C123.638089,102.460297 123.291118,101.583264 122.954293,100.723533" id="Fill-112" fill="#3F9D6C"></path>
                                <path d="M126.990355,105.526823 C126.636565,105.570689 126.329406,105.259352 126.098953,104.948015 C124.501999,102.790978 124.201767,99.5646425 125.142673,96.9471995 C126.083578,94.3297564 128.148197,92.3485742 130.48855,91.460177 C129.564878,92.3472155 128.632927,93.243765 127.901186,94.3419847 C127.169277,95.4400103 126.643999,96.7723151 126.656164,98.15528 C126.67458,100.261463 127.914872,102.213918 127.736625,104.310202 C127.691176,104.845919 127.456161,105.469175 126.990355,105.526823" id="Fill-113" fill="#2C7F52"></path>
                                <path d="M127.423232,105.465599 C126.769521,105.18059 126.296769,104.58901 126.050751,103.939866 C125.804733,103.290909 125.764412,102.585701 125.795188,101.895493 C125.855573,100.545641 126.186519,99.1933511 126.878213,98.0176914 C127.569907,96.8422192 128.636959,95.8523775 129.937368,95.343675 C131.237582,94.83516 132.770763,94.8398476 134.015267,95.4648036 C132.481307,95.3712383 130.838265,95.9990068 129.789718,97.0805387 C128.741171,98.1622581 128.228682,99.7058037 128.431457,101.172284 C128.513074,101.762177 128.702603,102.333131 128.812074,102.918898 C128.921351,103.504478 128.945894,104.127184 128.707473,104.6762 C128.469052,105.225216 127.986365,105.711043 127.423232,105.465599" id="Fill-114" fill="#3F9D6C"></path>
                                <path d="M129.384298,105.629757 C130.632126,107.075138 130.556543,109.241908 130.408618,111.171993 C130.071377,115.573529 129.734136,119.975066 129.396895,124.376788 C129.283882,125.851708 129.167089,127.345949 128.69326,128.742283 C128.219431,130.138803 127.339797,131.449678 126.055438,132.10623 C124.771079,132.762967 123.055181,132.617315 122.088267,131.525105 C121.475691,130.83344 121.230228,129.884468 121.031375,128.970237 C119.906638,123.799751 119.623385,118.435308 120.19691,113.169144 C120.382087,111.468128 120.663541,109.751878 121.368796,108.202832 C122.074231,106.6536 123.252595,105.272314 124.802032,104.662579 C126.351289,104.052844 128.280976,104.352138 129.384298,105.629757" id="Fill-115" fill="#E15E62"></path>
                                <path d="M132.853343,94.7965728 C132.879789,93.8068436 132.911044,92.7923808 133.297717,91.8739766 C133.733676,90.8382313 134.594576,90.0070659 135.568673,89.3923678 C136.54297,88.7776697 137.634471,88.3579647 138.717557,87.9424779 C137.891118,88.4716628 137.058467,89.0058328 136.35945,89.6828443 C135.660633,90.3598559 135.09645,91.1984989 134.924551,92.1358848 C134.768078,92.9885243 134.942782,93.8637885 135.170579,94.7016646 C135.398176,95.5395407 135.680868,96.3720482 135.744379,97.2356166 C135.807889,98.0991851 135.624169,99.020657 135.023723,99.6681416 C134.070062,99.3943459 133.395487,98.5415146 133.100574,97.6315467 C132.80566,96.7215787 132.828099,95.7491056 132.853343,94.7965728" id="Fill-116" fill="#3F9D6C"></path>
                                <path d="M135.064832,98.4729455 C134.693311,98.3759183 134.490729,97.997635 134.365304,97.6483019 C133.496655,95.2280606 134.301861,92.3986557 136.148678,90.5516294 C137.995678,88.7046031 140.756306,87.8183744 143.419847,87.9564583 C142.184431,88.35334 140.937495,88.7554854 139.822932,89.4027429 C138.70837,90.0500004 137.721608,90.972724 137.259036,92.141437 C136.554572,93.9214391 137.133976,96.0342813 136.234611,97.7314681 C136.004787,98.1651956 135.554098,98.6006776 135.064832,98.4729455" id="Fill-117" fill="#2C7F52"></path>
                                <path d="M135.889134,99.4702695 C135.390328,99.0065244 135.175058,98.3344633 135.191737,97.6868375 C135.208415,97.0392117 135.436873,96.4103959 135.725645,95.8177938 C136.290389,94.6593101 137.107251,93.587493 138.191552,92.7886842 C139.276047,91.9898755 140.638647,91.4767322 142.035962,91.4605592 C143.433084,91.4442103 144.852895,91.9527829 145.770992,92.9075211 C144.38415,92.3212475 142.624173,92.3289824 141.244312,92.9282648 C139.864257,93.5275472 138.807302,94.7065987 138.442506,96.0537095 C138.295696,96.5955072 138.256133,97.1564664 138.136862,97.7037137 C138.017397,98.250961 137.805424,98.802779 137.377405,99.2035897 C136.949193,99.6044004 136.318704,99.8698496 135.889134,99.4702695" id="Fill-118" fill="#3F9D6C"></path>
                                <path d="M138.466271,101.096189 C139.167724,102.894577 138.268733,104.865038 137.386978,106.590364 C135.376546,110.524845 133.366114,114.459326 131.355682,118.39399 C130.682116,119.712416 129.997318,121.04722 128.991812,122.158607 C127.986499,123.270177 126.606832,124.15152 125.070104,124.278504 C123.533569,124.405488 121.869602,123.631437 121.315334,122.263691 C120.964414,121.397255 121.079064,120.430336 121.227023,119.512738 C122.064623,114.32406 123.81903,109.270096 126.394769,104.626161 C127.226559,103.126093 128.160797,101.647925 129.456219,100.481696 C130.751642,99.3156517 132.45744,98.4806857 134.241671,98.4955752 C136.025903,98.5108674 137.846157,99.5061277 138.466271,101.096189" id="Fill-119" fill="#6B4F90"></path>
                                <polyline id="Fill-120" fill="#F6BB61" points="132.839695 115.91091 116.459773 159.469027 91.6946565 156.803044 106.434012 112.566372 132.839695 115.91091"></polyline>
                                <path d="M82.072283,124.442691 C84.1583903,127.305136 83.6221938,131.327059 82.2889432,134.609642 C78.5792005,143.744041 68.5336497,150.300545 58.8221169,148.665186 C55.6653092,148.133562 52.4808547,146.661851 50.7906414,143.939704 C49.1004281,141.217557 49.4720606,137.115411 52.1577451,135.370826 C49.5723036,134.33319 46.9778346,133.122677 45.0186767,131.140435 C43.0593307,129.158192 41.8306488,126.247915 42.5086525,123.542905 C43.1866562,120.837706 46.181721,118.727595 48.8275339,119.599134 C45.1392315,118.076766 43.0574499,113.467289 44.3513931,109.688862 C45.6455244,105.910435 50.1143304,103.550237 53.9592977,104.614614 C57.804265,105.678992 60.4278854,110.002601 59.5997993,113.910026 C60.352468,110.188283 62.8604234,107.909438 66.0448778,108.672694 C69.2293323,109.43595 71.3430863,112.659778 71.8364022,115.90112 C72.32953,119.142273 71.5337925,122.425798 70.7436972,125.607631 C71.6898932,123.518235 73.7944317,122.001893 76.0738782,121.767436 C78.3531366,121.532979 80.7217297,122.589447 82.072283,124.442691" id="Fill-121" fill="#3F9D6C"></path>
                                <path d="M77.5877863,127.475053 C75.8444614,132.252888 72.3879566,136.383164 67.9980863,138.963999 C65.8123831,135.554402 63.8439125,131.984654 61.884297,128.408703 C64.1480005,123.888388 65.2236129,118.634048 65.0410471,113.596626 C64.845858,118.077843 63.2786931,122.487255 60.6182056,126.101364 C57.5613109,120.547587 54.4160536,115.059788 50.3941411,110.221239 C53.4843837,117.339119 55.2324188,122.678609 57.5746878,127.517722 C53.4977606,127.322421 49.4545582,126.359072 45.8473282,124.455307 C49.8426754,127.07054 54.2892561,128.99611 58.930649,130.129009 C59.9928846,132.030519 61.2094251,133.888419 62.7108361,135.787109 C63.6134914,136.928466 64.5916977,138.103658 65.6296288,139.251406 C62.0190076,140.728666 57.8898918,140.921148 54.1613281,139.766257 C58.0984577,141.855362 62.9746051,142.352356 67.190011,140.904043 C68.8852923,142.61777 70.7107624,144.193151 72.6185661,145.39823 C71.3829966,143.885631 70.23221,142.310438 69.1385106,140.693328 C73.6421784,137.6561 76.7461746,132.837476 77.5877863,127.475053" id="Fill-122" fill="#2C7F52"></path>
                                <path d="M88.1675921,123.884788 C88.2003984,126.784635 85.9005504,129.209591 83.4178978,130.762948 C76.5092515,135.085411 66.5558856,134.676545 60.7738386,128.96775 C58.8942135,127.111953 57.4486544,124.61667 57.6162884,121.998877 C57.7839225,119.380896 60.0107624,116.824078 62.6676861,116.938919 C61.4183953,115.017845 60.2462845,112.977253 59.8755553,110.724373 C59.5048262,108.471679 60.0750474,105.947966 61.8365323,104.467742 C63.5978275,102.987705 66.6402715,103.006035 68.0103574,104.845186 C66.2484933,102.07664 67.0599255,98.0147208 69.7549651,96.1123505 C72.4500046,94.2099802 76.6099457,94.7628665 78.6983548,97.3007942 C80.7869536,99.838909 80.4795613,103.967788 78.0376795,106.17765 C80.3390446,104.055696 83.1332613,103.729874 84.9197774,105.753072 C86.7064832,107.776269 86.5839814,110.930115 85.3566879,113.324397 C84.1292047,115.718866 82.009696,117.528465 79.9429048,119.272975 C81.5892835,118.330674 83.7433051,118.321322 85.3980275,119.249034 C87.0529396,120.176933 88.1463534,122.00748 88.1675921,123.884788" id="Fill-123" fill="#3F9D6C"></path>
                                <path d="M83.4656489,124.075221 C80.0775131,126.434942 75.8680334,127.550335 71.7725678,127.189313 C71.9369473,123.87864 72.3193925,120.563856 72.7105086,117.249072 C76.3194774,115.307927 79.4924993,112.313615 81.7371738,108.867092 C79.5054135,111.763487 76.4061871,113.96101 72.9617823,115.109664 C73.5604482,109.955389 74.0700062,104.80317 73.6988148,99.6681416 C72.3880223,105.881563 71.0300007,110.272124 70.2973959,114.610737 C67.7104947,112.546635 65.5065922,109.986222 64.0301288,107.005364 C65.427631,110.644731 67.4448309,114.038372 69.9625488,116.995498 C69.7677287,118.767531 69.6948556,120.584038 69.7902363,122.562369 C69.8474278,123.751946 69.9385652,124.999639 70.081544,126.257608 C67.0160791,125.530333 64.2129571,123.699998 62.3053435,121.161074 C63.9115025,124.422041 66.8815868,127.066543 70.3309728,128.100089 C70.6403604,130.047214 71.1001064,131.96388 71.7878804,133.672566 C71.6862271,132.07768 71.6694386,130.4813 71.7100262,128.883798 C76.0945856,128.994234 80.3955717,127.25266 83.4656489,124.075221" id="Fill-124" fill="#2C7F52"></path>
                                <polyline id="Fill-125" fill="#F6BB61" points="43.4961832 124.292035 49.844985 152.43575 81.6404603 155.951327 85.8167939 128.387774 43.4961832 124.292035"></polyline>
                                <path d="M109.033785,185.265487 L43.790643,185.265487 C42.9786482,185.265487 42.3206107,184.477843 42.3206107,183.505525 C42.3206107,182.533207 42.9786482,181.747788 43.790643,181.747788 L109.033785,181.747788 C109.845593,181.747788 110.503817,182.533207 110.503817,183.505525 C110.503817,184.477843 109.845593,185.265487 109.033785,185.265487" id="Fill-126" fill="#7A9BA3"></path>
                                <path d="M126.915582,123.787658 L129.499468,123.787658 L127.895088,128.096358 L126.915582,123.787658 Z M113.999303,140.82998 L123.153357,140.82998 L117.46903,156.095267 L113.999303,140.82998 Z M46.8386611,140.82998 L61.2205825,140.82998 L64.0984506,153.491139 L49.348542,151.872427 L46.8386611,140.82998 Z M53.4731895,106.745336 L56.8043645,121.400729 L42.4222576,121.400729 L39.0912681,106.745336 L53.4731895,106.745336 Z M109.5829,121.400729 L106.25191,106.745336 L120.633832,106.745336 L123.965007,121.400729 L109.5829,121.400729 Z M96.6664358,138.443051 L93.3354463,123.787658 L107.717368,123.787658 L111.048543,138.443051 L96.6664358,138.443051 Z M90.9272071,123.787658 L94.2583821,138.443051 L79.8762753,138.443051 L76.5452858,123.787658 L90.9272071,123.787658 Z M103.843857,106.745336 L107.174846,121.400729 L92.7927393,121.400729 L89.4617498,106.745336 L103.843857,106.745336 Z M87.0535106,106.745336 L90.3846856,121.400729 L76.0025787,121.400729 L72.6715892,106.745336 L87.0535106,106.745336 Z M70.26335,106.745336 L73.594525,121.400729 L59.2124182,121.400729 L55.8814287,106.745336 L70.26335,106.745336 Z M59.7551252,123.787658 L74.1370466,123.787658 L77.4682215,138.443051 L63.0861147,138.443051 L59.7551252,123.787658 Z M42.9649646,123.787658 L57.346886,123.787658 L60.678061,138.443051 L46.2959541,138.443051 L42.9649646,123.787658 Z M66.5682683,153.762119 L63.6288217,140.82998 L78.0107431,140.82998 L81.3181769,155.380641 L66.5682683,153.762119 Z M83.7878092,155.651622 L80.4189823,140.82998 L94.8009036,140.82998 L98.5377178,157.270144 L83.7878092,155.651622 Z M101.00735,157.541124 L97.2089574,140.82998 L111.591064,140.82998 L115.757444,159.159081 L101.00735,157.541124 Z M124.042165,138.443051 L113.456596,138.443051 L110.125607,123.787658 L124.507528,123.787658 L126.399769,132.112 L124.042165,138.443051 Z M130.388462,121.400729 L126.37306,121.400729 L123.041885,106.745336 L135.845579,106.745336 L130.388462,121.400729 Z M132.341168,122.894329 L138.641466,105.974665 C138.777978,105.608011 138.728826,105.196257 138.509963,104.87376 C138.290914,104.550886 137.929975,104.358407 137.544553,104.358407 L37.615795,104.358407 C37.2581945,104.358407 36.9200691,104.524279 36.6976816,104.809035 C36.4751087,105.09379 36.3923857,105.466294 36.472883,105.820682 L47.2506065,153.236953 C47.3630059,153.731926 47.7712417,154.100278 48.2675794,154.154814 L116.729717,161.666969 C116.899243,161.761322 117.092325,161.814159 117.292456,161.814159 C117.380186,161.814159 117.46903,161.804724 117.557874,161.783966 C118.189239,161.63489 118.582451,160.993293 118.43648,160.351696 L118.419973,160.279988 L125.930882,140.109127 C125.940898,140.085539 125.949244,140.061007 125.957776,140.036664 L128.115807,134.241535 C128.731221,134.081513 129.112006,133.450672 128.968075,132.817567 L128.846031,132.280324 L132.250841,123.137003 C132.289235,123.060578 132.319467,122.979246 132.341168,122.894329 L132.341168,122.894329 Z" id="Fill-127" fill="#92B5BB"></path>
                                <path d="M110.007603,181.747788 C109.788862,181.747788 109.566788,181.708545 109.350084,181.624454 C108.392329,181.25819 107.910396,180.178084 108.273791,179.211969 L133.457872,112.219446 C135.225394,107.517623 139.761718,104.358407 144.746081,104.358407 L174.481119,104.358407 C175.505552,104.358407 176.335878,105.19633 176.335878,106.229718 C176.335878,107.263293 175.505552,108.101029 174.481119,108.101029 L144.746081,108.101029 C141.293274,108.101029 138.150705,110.289458 136.926423,113.54678 L111.742156,180.538742 C111.460997,181.28622 110.756063,181.747788 110.007603,181.747788" id="Fill-128" fill="#7A9BA3"></path>
                                <path d="M197.091246,164.042603 L198.671756,149.50812 L187.548235,146.570796 C187.3375,151.673174 187.126765,156.775552 186.916031,161.87736 C189.980767,163.683629 193.597773,164.477551 197.091246,164.042603" id="Fill-129" fill="#EBA55C"></path>
                                <path d="M187.34163,160.641593 C186.975406,169.363556 186.609182,178.083652 186.244771,186.805616 C185.282074,187.175333 184.33388,187.574926 183.389313,187.989457 C183.880633,188.960432 184.177963,190.034105 184.235979,191.128319 L195.683194,191.128319 L194.742252,187.716838 L197.496183,162.770267 C194.009805,163.197869 190.400143,162.417356 187.34163,160.641593" id="Fill-130" fill="#F6BB61"></path>
                                <path d="M183.299889,188.783186 C180.549429,189.907075 177.84702,191.13448 175.042358,192.141914 C174.164364,192.458008 173.263113,192.787041 172.570404,193.39335 C171.877888,194.001507 171.434278,194.960879 171.723162,195.818584 L197.496183,195.818584 L196.33334,191.890518 L184.197488,191.890518 C184.135983,190.807295 183.820766,189.744407 183.299889,188.783186" id="Fill-131" fill="#212039"></path>
                                <path d="M258.625954,176.924133 L256.133994,175.597661 L239.768544,150.088496 C235.743507,150.418496 231.775321,151.404119 228.061069,152.99303 L250.009268,180.947318 C250.030113,182.051125 249.855771,183.17206 249.535511,184.264448 C250.543665,184.350088 251.532869,184.692649 252.368576,185.265487 C255.135315,183.14732 257.413137,180.210813 258.625954,176.924133" id="Fill-132" fill="#F6BB61"></path>
                                <path d="M235.820657,144.225664 L223.358779,146.772459 L228.523045,153.606195 C232.106041,152.013685 235.933997,151.025829 239.816794,150.695081 L235.820657,144.225664" id="Fill-133" fill="#EBA55C"></path>
                                <path d="M258.663922,177.057522 C257.50282,180.209308 255.322124,183.025292 252.67336,185.056524 C251.873288,184.507197 250.926264,184.178696 249.961097,184.09657 C249.337005,186.213577 248.126918,188.221084 246.644699,189.759564 C245.646876,190.792517 244.362407,191.909421 244.534758,193.338401 C244.663568,194.398729 245.570679,195.165232 246.410664,195.818584 C253.397235,192.402173 259.228145,186.158827 262.152672,178.919028 L258.663922,177.057522" id="Fill-134" fill="#212039"></path>
                                <path d="M194.270149,75.5524167 C196.64369,74.8006456 198.851764,73.5886869 201.171989,72.6763853 C204.858241,71.2271043 208.831303,70.5523127 212.778626,70.6871208 C212.515716,69.4899948 212.311639,68.2879872 212.17375,67.0814734 C208.149209,66.4900451 203.972069,66.9710735 200.188375,68.497334 C197.785417,69.4663377 195.533219,70.8427698 193.040173,71.5305164 C191.026983,72.0862713 188.732498,72.1067365 186.916031,71.1625166 C187.013473,72.1287039 187.199164,73.0905729 187.487813,74.0434296 C187.690051,74.7080824 187.945607,75.3503923 188.230579,75.9812491 C190.19229,76.4525142 192.321307,76.1690042 194.270149,75.5524167" id="Fill-135" fill="#E15E62"></path>
                                <path d="M196.552174,80.1153152 C199.115035,79.233952 201.46417,77.8507287 204.015975,76.9443258 C207.17395,75.822155 210.617505,75.4652056 213.954198,75.8915915 C213.464104,74.4494093 213.031127,72.9997685 212.692114,71.5424915 C208.736355,71.4149842 204.754801,72.0532311 201.060671,73.4240233 C198.735488,74.2869174 196.522695,75.43324 194.144081,76.1442974 C192.191074,76.7274924 190.057507,76.9956484 188.091603,76.5499056 C188.701457,77.8290631 189.440283,79.0588515 190.050137,80.3417383 C190.103568,80.4575249 190.153315,80.5745545 190.206746,80.6908739 C192.26293,81.1632547 194.529154,80.8121656 196.552174,80.1153152" id="Fill-136" fill="#E46D6C"></path>
                                <path d="M200.651835,93.308672 C203.95226,92.0682282 207.105918,90.4439779 210.503576,89.4849086 C213.141715,88.7401775 216.014681,88.4346697 218.656489,89.0378197 C218.058413,87.5324475 217.414472,86.0167069 216.765028,84.4913131 C212.602346,84.1988551 208.368115,84.8729744 204.526487,86.4655835 C201.978243,87.5222579 199.602451,88.9698893 196.984492,89.849051 C195.315017,90.4092976 193.482263,90.7112301 191.746742,90.5169136 C191.787103,91.9770585 191.737569,93.4506107 191.618321,94.9298834 C194.669242,95.1849797 197.773366,94.3910885 200.651835,93.308672" id="Fill-137" fill="#E15E62"></path>
                                <path d="M196.644737,84.7359422 C199.279046,83.6984492 201.644128,82.0246557 204.270958,80.970535 C207.705469,79.592947 211.549429,79.3433378 215.129771,80.2307944 C214.497836,78.574982 213.897685,76.9095023 213.36484,75.234162 C209.97894,74.769939 206.484601,75.1585638 203.280054,76.3803152 C200.690616,77.3671515 198.306838,78.8731211 195.706182,79.8326957 C193.653328,80.5913841 191.353683,80.9736285 189.267176,80.459329 C189.949591,82.0772457 190.452521,83.7396319 190.800272,85.4356602 C192.699817,85.8316321 194.797542,85.4629219 196.644737,84.7359422" id="Fill-138" fill="#E15E62"></path>
                                <path d="M197.538807,89.5784275 C200.17815,88.7206393 202.573348,87.3082014 205.142407,86.2772159 C209.015415,84.7233249 213.284232,84.0655942 217.480916,84.3509422 C216.877955,82.9765275 216.269445,81.5939151 215.686829,80.2036283 C212.144895,79.4030492 208.34217,79.6282229 204.944502,80.870952 C202.345851,81.8218796 200.006139,83.3318172 197.400089,84.2677448 C195.57271,84.9235569 193.497488,85.2561723 191.618321,84.898964 C192.01043,86.6429707 192.208335,88.4258726 192.258273,90.2300536 C194.00797,90.4196461 195.855695,90.1250539 197.538807,89.5784275" id="Fill-139" fill="#E46D6C"></path>
                                <path d="M192.07854,71.1648653 C194.622524,70.520653 196.92074,69.2313491 199.372795,68.3236834 C203.233797,66.8940352 207.496283,66.4434559 211.603053,66.9974468 C211.516753,66.3002976 211.456718,65.6017415 211.428577,64.9014267 C211.40794,64.4031866 211.368542,63.9213025 211.314135,63.4541914 C206.601386,63.0489866 201.802337,63.5539098 197.307215,64.9415251 C195.24914,65.5771197 193.243595,66.3964986 191.116104,66.7765539 C189.406982,67.0815127 187.566534,67.0713123 185.968101,66.4824991 C185.73359,67.9279756 185.667926,69.3792559 185.82927,70.8201598 C187.682851,71.7046107 190.024217,71.6854408 192.07854,71.1648653" id="Fill-140" fill="#E46D6C"></path>
                                <path d="M194.435816,59.2112134 C196.967944,58.5286014 199.368557,57.436813 201.915503,56.8089237 C203.923424,56.3137545 206.107315,56.1369719 208.076336,56.6708733 C206.55002,54.7312388 204.551362,53.4532512 202.413779,52.7654867 C200.539226,53.0087183 198.662821,53.6835129 196.87718,54.330413 C194.698846,55.1190946 192.333427,55.8733081 190.064329,55.7706143 C189.619771,56.3372071 189.254863,56.9638528 188.991833,57.6489522 C188.680642,58.2739988 188.378713,58.9081067 188.091603,59.5493214 C190.142127,60.0316982 192.377883,59.76608 194.435816,59.2112134" id="Fill-141" fill="#E46D6C"></path>
                                <path d="M190.993379,66.6311169 C193.164229,66.2373377 195.210647,65.3883709 197.310667,64.7298249 C201.897401,63.2921026 206.794257,62.7689466 211.603053,63.1887834 C211.470965,62.0632054 211.245074,61.0254578 210.938781,60.070803 C206.872745,59.5367138 202.691848,59.7965606 198.734929,60.8384993 C196.311387,61.4771833 193.968247,62.404505 191.498762,62.8613326 C189.879239,63.1607214 188.162085,63.2348853 186.56362,62.9041545 C186.207554,64.0361102 185.922319,65.1793636 185.740458,66.3264437 C187.371467,66.936519 189.249425,66.9470878 190.993379,66.6311169" id="Fill-142" fill="#E15E62"></path>
                                <path d="M197.576588,53.706294 C199.446361,53.0796053 201.411173,52.4258937 203.374046,52.1902615 C198.573542,50.7613217 193.107755,51.9601372 190.442748,55.1014983 C192.818755,55.2009836 195.295621,54.4703344 197.576588,53.706294" id="Fill-143" fill="#E46D6C"></path>
                                <path d="M191.676301,63.0348452 C194.058282,62.5357786 196.318395,61.5227151 198.65606,60.8249774 C202.47277,59.6866994 206.505521,59.4028267 210.427481,59.9862987 C209.928927,58.2265265 209.210639,56.7277341 208.335399,55.4755885 C206.372573,54.8773854 204.195552,55.0754593 202.193949,55.6302653 C199.655016,56.333776 197.261955,57.5570566 194.737793,58.3218806 C192.686335,58.9435739 190.457612,59.2411824 188.41354,58.7007094 C187.842972,60.1334108 187.329646,61.5985605 186.916031,63.0816265 C188.457856,63.4429372 190.114164,63.361916 191.676301,63.0348452" id="Fill-144" fill="#E46D6C"></path>
                                <path d="M219.722777,138.894233 C215.229176,140.088529 210.933767,141.889931 206.510552,143.311241 C202.087337,144.732372 197.438145,145.780229 192.796363,145.38883 C189.051078,145.072984 185.290974,143.708024 182.560732,141.259674 C182.086551,142.885207 181.57903,144.501229 181.038168,146.106125 C187.087674,151.373586 195.869275,153.645708 203.800685,151.7998 C208.990739,150.591686 213.626965,147.826054 218.555849,145.841783 C224.531264,143.436324 230.995678,142.183525 237.465649,142.160375 C236.985912,140.506487 236.317243,138.876467 235.533734,137.260804 C230.217726,136.982105 224.857263,137.529812 219.722777,138.894233" id="Fill-145" fill="#E15E62"></path>
                                <path d="M205.826817,137.502472 C209.830923,136.236775 213.732693,134.661806 217.800061,133.606249 C222.663784,132.34433 227.735899,131.846867 232.763359,132.121237 C231.713956,130.332709 230.612454,128.551378 229.563051,126.76483 C223.869481,126.356605 218.101485,126.928732 212.616307,128.462321 C207.646527,129.851798 202.898164,132.018686 197.80186,132.885512 C193.295381,133.652307 188.258618,133.20432 184.643387,130.62435 C184.24707,132.355305 183.830286,134.081042 183.389313,135.799044 C186.105853,138.111841 189.791789,139.301434 193.434929,139.501139 C197.639984,139.731789 201.822712,138.768168 205.826817,137.502472" id="Fill-146" fill="#E15E62"></path>
                                <path d="M197.15812,100.329149 C200.07727,99.5763956 202.778573,98.1913217 205.601113,97.1475677 C210.494146,95.3386653 215.786882,94.570372 221.007634,94.8928221 C220.524581,93.5412328 220.016903,92.1972283 219.509225,90.8569238 C219.333053,90.3877709 219.149304,89.9175081 218.961766,89.4463203 C216.233942,88.8221398 213.267434,89.1383 210.543399,89.9089982 C207.035115,90.9015081 203.778775,92.5823924 200.37089,93.8660878 C197.398698,94.9862457 194.193506,95.8078181 191.043248,95.5438272 C190.91254,97.1836421 190.704165,98.829747 190.442748,100.471597 C192.587121,101.061738 194.973966,100.892465 197.15812,100.329149" id="Fill-147" fill="#E46D6C"></path>
                                <path d="M196.973607,128.828591 C201.255192,128.282449 205.29809,126.549141 209.435352,125.280485 C215.089857,123.546795 220.988602,122.677176 226.885496,122.695349 C226.302653,121.440083 225.779019,120.177739 225.344199,118.9043 C219.941334,118.063375 214.379344,118.339985 209.083796,119.724565 C205.024246,120.785669 201.123821,122.484735 197.005062,123.254499 C193.485798,123.911782 189.648284,123.799493 186.508331,122.148633 C186.25484,123.457269 185.999499,124.765141 185.740458,126.071674 C188.743489,128.656236 193.045428,129.329397 196.973607,128.828591" id="Fill-148" fill="#E15E62"></path>
                                <path d="M203.759256,152.802546 C195.724583,154.669523 186.82865,152.371468 180.700382,147.043884 C180.079299,148.876557 179.413183,150.694891 178.687023,152.495074 C185.554586,158.315992 195.302397,160.738562 204.217094,158.825481 C210.199004,157.542048 215.582347,154.490921 221.076398,151.866153 C226.570448,149.241385 232.531717,146.966562 238.641221,147.428315 C238.556784,145.94831 238.280956,144.491901 237.862522,143.053097 C231.308316,143.076512 224.759738,144.34361 218.706525,146.776525 C213.71347,148.783444 209.016882,151.580643 203.759256,152.802546" id="Fill-149" fill="#E46D6C"></path>
                                <path d="M206.662393,143.231023 C211.177736,141.805184 215.562611,139.998041 220.149806,138.799941 C225.391234,137.431171 230.863345,136.881719 236.290076,137.161306 C235.528065,135.621328 234.663948,134.094673 233.758232,132.573238 C228.649163,132.298692 223.494714,132.796475 218.55204,134.059207 C214.418648,135.115444 210.453542,136.691428 206.384439,137.95794 C202.315336,139.224452 198.064712,140.188693 193.791397,139.957895 C190.089119,139.758061 186.34335,138.567702 183.582714,136.253414 C183.153491,137.90087 182.699688,139.541665 182.21374,141.172918 C185.000849,143.629069 188.839269,144.998379 192.662561,145.315232 C197.401024,145.707878 202.14705,144.656682 206.662393,143.231023" id="Fill-150" fill="#E46D6C"></path>
                                <path d="M198.826311,133.344003 C203.894488,132.502287 208.616645,130.398173 213.558997,129.048946 C219.013903,127.559784 224.750066,127.00423 230.412214,127.40063 C229.55549,125.979426 228.733924,124.554729 228.004876,123.119724 C222.10773,123.103127 216.208734,123.897324 210.553988,125.480651 C206.416549,126.639277 202.37348,128.222255 198.091712,128.72103 C194.163365,129.178401 189.861243,128.563623 186.858085,126.20322 C186.499112,127.855031 186.129037,129.504046 185.740458,131.148344 C189.335737,133.653576 194.344702,134.088585 198.826311,133.344003" id="Fill-151" fill="#E46D6C"></path>
                                <path d="M197.257871,111.809165 C201.362337,110.645403 205.154507,108.520615 209.260831,107.368556 C213.844895,106.083037 218.761703,106.066614 223.358779,107.297767 C223.267692,106.299178 223.163593,105.302476 223.01674,104.312192 C222.801107,102.84772 222.496246,101.402502 222.130041,99.9714415 C216.802415,99.220706 211.28518,99.8676184 206.277286,101.868007 C203.154323,103.116338 200.228404,104.873214 197.018072,105.86784 C194.525279,106.639906 191.736919,106.891913 189.301751,106.089455 C189.156757,106.800927 189.009903,107.509567 188.86119,108.213676 C188.599085,109.464273 188.342555,110.717512 188.091603,111.972451 C190.96919,112.907425 194.287339,112.651265 197.257871,111.809165" id="Fill-152" fill="#E46D6C"></path>
                                <path d="M197.00412,106.0249 C200.223032,105.080052 203.156771,103.4111 206.288081,102.225243 C211.30936,100.324965 216.841341,99.7104281 222.183206,100.423592 C221.694871,98.6106451 221.096567,96.8220855 220.45353,95.0473338 C215.316691,94.7347752 210.109025,95.4795002 205.294636,97.2329126 C202.517462,98.2446485 199.859577,99.5872337 196.987345,100.316896 C194.838298,100.862932 192.489815,101.027012 190.379909,100.454974 C190.064914,102.394702 189.677228,104.327616 189.267176,106.235425 C191.708852,106.997723 194.504664,106.758328 197.00412,106.0249" id="Fill-153" fill="#E15E62"></path>
                                <path d="M200.309318,116.465726 C204.856817,115.435465 209.223451,113.694321 213.804171,112.832057 C217.351368,112.164451 221.158792,112.081183 224.534351,113.211694 C224.270434,111.3493 224.14678,109.462254 223.97145,107.582512 C219.40734,106.391558 214.525791,106.407445 209.9746,107.650989 C205.897722,108.765431 202.132747,110.820839 198.057715,111.946603 C195.108484,112.761206 191.81413,113.009002 188.957178,112.104557 C188.663732,113.524863 188.377667,114.94736 188.091603,116.370953 C191.950703,117.689914 196.289653,117.376928 200.309318,116.465726" id="Fill-154" fill="#E15E62"></path>
                                <path d="M197.401416,122.762918 C201.515724,122.030609 205.411933,120.414214 209.467095,119.40474 C214.756919,118.087529 220.312898,117.824378 225.709924,118.624386 C225.436376,117.863141 225.197946,117.09771 225.000178,116.327366 C224.758051,115.372124 224.580615,114.405417 224.443841,113.432159 C221.063307,112.305486 217.250271,112.388472 213.697845,113.053811 C209.110374,113.913146 204.737304,115.648378 200.183102,116.67514 C196.157513,117.583247 191.812168,117.89517 187.94738,116.580689 C187.603597,118.290261 187.261662,120.001106 186.916031,121.71086 C190.05259,123.281395 193.885956,123.38822 197.401416,122.762918" id="Fill-155" fill="#E46D6C"></path>
                                <path d="M189.730578,57.2565397 C188.252331,65.7286191 190.606227,74.4056621 192.64376,82.7617703 C194.683176,91.1176912 196.686813,99.7964204 195.02967,108.235526 C201.211944,109.705868 208.092854,109.118143 214.079284,106.989257 C217.74948,105.683785 221.154156,103.744687 224.534351,101.815893 C224.161494,100.469203 223.837598,99.0432634 223.462857,97.6963864 C222.300974,93.5049366 220.370779,88.6592519 218.417986,84.7686902 C216.467077,80.8781285 213.555777,73.2024845 212.034219,65.2178963 C211.52766,62.5623621 212.224414,59.9315585 210.591751,57.771197 C208.045776,54.4031614 204.26636,51.8008354 200.034995,51.607675 C195.803631,51.4147019 190.453695,53.1048087 189.730578,57.2565397" id="Fill-156" fill="#6B4F90"></path>
                                <path d="M194.78056,56.4612465 C192.339123,57.3419704 191.530937,60.3247411 191.067776,62.8777351 C189.841432,69.649998 188.615088,76.4222609 187.388744,83.1945237 C179.29375,90.4966073 170.011039,96.796378 160.1971,101.547903 C158.684984,101.407017 157.084549,101.514555 155.572433,101.373669 C155.252346,101.343694 154.922696,101.314842 154.61536,101.408516 C154.146387,101.55165 153.799485,101.965502 153.615721,102.419822 C153.431957,102.873954 153.387329,103.370426 153.344763,103.858281 C153.222128,105.259646 151.67626,106.452866 150.938579,107.650771 C150.768316,107.927484 150.595427,108.210005 150.518546,108.525687 C150.391412,109.047452 150.544798,109.605937 150.82007,110.067188 L150.82832,110.081052 C151.263166,110.801593 152.025037,111.262657 152.859663,111.373942 C153.208065,111.420591 153.556842,111.467991 153.893055,111.467991 C154.900382,112.707674 156.962102,112.918628 158.230262,111.946853 C159.041449,112.857552 160.632696,112.719102 161.46376,111.826388 C162.066243,111.900203 162.544405,111.429959 162.920934,110.954282 C164.054083,109.522754 165.004031,107.946406 165.740024,106.27601 C175.45158,100.718887 184.231003,95.7247463 193.094806,89.0755712 C193.916119,88.4580715 194.482413,87.5578634 194.677428,86.5484313 C196.128789,79.0704277 198.148318,70.1882494 199.515298,62.9219493 C199.813446,61.3364214 200.102218,59.6412949 199.470294,58.1561857 C198.840246,56.6712638 196.299427,55.9136277 194.78056,56.4612465" id="Fill-157" fill="#F6BB61"></path>
                                <path d="M179.862595,89.0129189 L187.200539,82.8522221 C188.432748,76.2464263 189.575308,69.3487836 190.805611,62.7429878 C191.177563,60.7469999 191.599108,58.6482256 192.957209,57.1084688 C194.324848,55.5572089 196.587078,54.8076466 198.645212,55.2245442 C200.701438,55.6412563 202.467733,57.2071736 203.085745,59.1608594 C203.728554,61.1946964 203.173488,63.3827132 202.616514,65.4406698 C200.480175,73.3361209 198.343836,81.231572 196.209404,89.1268376 L185.794751,94.9778761 L179.862595,89.0129189" id="Fill-158" fill="#775C98"></path>
                                <path d="M180.437057,99.6681416 C177.719706,97.2898188 175.824297,93.9240191 175.160305,90.3020061 C177.337929,89.4216006 179.368457,88.2665648 181.208096,86.7699115 C182.293539,89.9203044 184.346524,92.6812317 186.916031,94.7027699 C184.823745,96.4576225 182.529342,97.9131084 180.437057,99.6681416" id="Fill-159" fill="#6B4F90"></path>
                                <path d="M186.322266,42.7373193 L192.793893,41.3813781 C192.764848,41.2558211 192.737618,41.1295122 192.712204,41.0022634 C192.338247,39.0425958 192.672266,37.004549 192.401783,35.0268372 C191.929799,31.5884907 189.488189,28.5189211 186.32045,27.3804493 C183.150896,26.2419775 179.656399,27.64754 176.752971,29.3848514 C175.400555,30.1940178 174.694576,31.8429881 174.528111,33.4509832 C174.361464,35.0589783 174.645017,36.6748677 174.812935,38.2826748 C174.981034,39.8904819 175.023512,41.5742248 174.411022,43.0619257 C174.203531,43.5654696 173.917073,44.0817949 173.999125,44.6225549 C174.081359,45.1633149 174.712729,45.3029689 175.785766,45.3420646 C176.554193,46.4286595 176.758054,47.6269025 177.264166,48.8674364 C177.770278,50.1079703 178.657971,51.3470005 179.94322,51.5603347 C181.292005,51.7843827 182.530055,50.813383 183.543006,49.8645625 C184.336302,49.1226856 185.198581,48.3210376 186.191562,48.0148512 C186.776097,46.32359 186.845079,44.3988829 186.322266,42.7373193" id="Fill-160" fill="#F6BB61"></path>
                                <path d="M201.022901,49.6513493 C199.382778,48.49496 197.731781,47.3288579 196.338129,45.8774153 C195.03328,44.5168711 193.95678,42.8744685 193.507332,41.039823 L187.046515,42.361882 C187.568455,43.9819265 187.499588,45.8585392 186.916031,47.5075392 C187.191499,47.4243379 187.477841,47.3766895 187.775056,47.3807213 C188.701137,47.3935497 189.563787,47.9114508 190.199901,48.5928225 C190.836015,49.2741941 191.280026,50.1120724 191.716788,50.9389548 C192.202482,51.8635164 192.06656,52.9236926 191.807403,53.9380531 C195.163765,53.4857601 198.362458,51.7669369 201.022901,49.6513493" id="Fill-161" fill="#EBA55C"></path>
                                <path d="M211.349072,65.6637168 C211.139115,60.6682569 207.669191,55.9612659 202.947021,54.2655542 C198.224851,52.5696558 192.507257,54.0168548 189.146061,57.7296083 C188.330601,54.4399425 190.786355,51.1108806 190.41143,47.743543 C190.150858,45.4098389 188.420583,43.5231215 186.165414,42.8335968 C187.059608,41.843467 187.56763,40.5166967 187.563881,39.1852587 C187.560132,38.3924827 187.312682,37.5065377 186.613448,37.1288208 C186.071683,36.8366177 185.3687,36.9394956 184.871925,37.3005952 C184.375151,37.6616948 184.071462,38.2442339 183.953361,38.8458176 C183.83526,39.4474013 183.970233,40.0917419 184.078961,40.6948193 C183.104158,39.9380785 182.268077,38.9882783 181.690694,37.8999383 C179.999786,38.2296704 178.258263,38.3969637 176.534736,38.398084 C175.993908,37.0778486 175.727149,35.6233679 175.837752,34.2017483 C175.432834,35.6117918 175.355225,37.119672 175.761268,38.529342 C174.237388,38.6996227 172.604031,38.6979423 171.072278,38.628299 C170.254568,35.63233 170.191581,32.3794464 171.259553,29.4628297 C172.327712,26.5460263 174.60069,24.0114209 177.532784,22.9589295 C179.176827,22.3687352 180.955842,22.2514805 182.702989,22.2835948 C184.005851,22.3076806 185.329333,22.4161598 186.547837,22.8786436 C187.76634,23.3413141 188.879865,24.1992524 189.404759,25.3872962 C191.136909,25.0112597 192.994658,25.9431356 194.0257,27.3783851 C195.058616,28.8136346 195.452286,30.6023285 195.695987,32.3510663 C195.937813,34.0999907 196.057789,35.8849504 196.635172,37.5537757 C197.737449,40.7351489 200.360044,43.1258 202.967642,45.2670048 C205.573365,47.4080228 208.34218,49.5359711 209.931859,52.5056138 C212.023936,56.4159078 211.692128,61.2457549 211.349072,65.6637168" id="Fill-162" fill="#212039"></path>
                                <path d="M115.206107,186.438053 C115.206107,191.618207 110.99548,195.818584 105.801433,195.818584 C100.607574,195.818584 96.3969466,191.618207 96.3969466,186.438053 C96.3969466,181.257899 100.607574,177.057522 105.801433,177.057522 C110.99548,177.057522 115.206107,181.257899 115.206107,186.438053" id="Fill-163" fill="#212039"></path>
                                <path d="M106.389403,189.955752 C104.120462,189.955752 102.274809,188.1152 102.274809,185.852668 C102.274809,183.590135 104.120462,181.747788 106.389403,181.747788 C108.658164,181.747788 110.503817,183.590135 110.503817,185.852668 C110.503817,188.1152 108.658164,189.955752 106.389403,189.955752" id="Fill-164" fill="#92B5BB"></path>
                                <path d="M65.8320611,186.438053 C65.8320611,191.618207 61.6214341,195.818584 56.4275743,195.818584 C51.2335277,195.818584 47.0229008,191.618207 47.0229008,186.438053 C47.0229008,181.257899 51.2335277,177.057522 56.4275743,177.057522 C61.6214341,177.057522 65.8320611,181.257899 65.8320611,186.438053" id="Fill-165" fill="#212039"></path>
                                <path d="M57.0153572,189.955752 C54.7464161,189.955752 52.9007634,188.1152 52.9007634,185.852668 C52.9007634,183.590135 54.7464161,181.747788 57.0153572,181.747788 C59.2841183,181.747788 61.129771,183.590135 61.129771,185.852668 C61.129771,188.1152 59.2841183,189.955752 57.0153572,189.955752" id="Fill-166" fill="#92B5BB"></path>
                            </g>
                        </g>
                    </g>
                </g>
            </g>
        </g>
    </g>
</svg>